<svg xmlns="http://www.w3.org/2000/svg" viewBox="0 0 900 700" font-family="'Segoe UI', Arial, sans-serif">
  <defs>
    <linearGradient id="bg2" x1="0%" y1="0%" x2="0%" y2="100%">
      <stop offset="0%" style="stop-color:#0f172a"/>
      <stop offset="100%" style="stop-color:#1e293b"/>
    </linearGradient>
  </defs>

  <rect width="900" height="700" fill="url(#bg2)" rx="12"/>

  <text x="450" y="45" text-anchor="middle" fill="#e2e8f0" font-size="24" font-weight="bold">
    Conformal Kernel Heatmap: K(x,y) = ⟨σ⁻¹(x), σ⁻¹(y)⟩
  </text>
  <text x="450" y="72" text-anchor="middle" fill="#94a3b8" font-size="13">
    Stereographic kernel value as a function of distance from reference point at origin
  </text>

  <!-- Heatmap grid (20x20) showing kernel values -->
  <g transform="translate(100, 100)">
    <!-- Axes -->
    <text x="300" y="530" text-anchor="middle" fill="#94a3b8" font-size="14">x-coordinate</text>
    <text x="-40" y="250" text-anchor="middle" fill="#94a3b8" font-size="14" transform="rotate(-90, -40, 250)">y-coordinate</text>

    <!-- Axis labels -->
    <text x="0" y="520" text-anchor="middle" fill="#64748b" font-size="11">-3</text>
    <text x="150" y="520" text-anchor="middle" fill="#64748b" font-size="11">-1.5</text>
    <text x="300" y="520" text-anchor="middle" fill="#64748b" font-size="11">0</text>
    <text x="450" y="520" text-anchor="middle" fill="#64748b" font-size="11">1.5</text>
    <text x="600" y="520" text-anchor="middle" fill="#64748b" font-size="11">3</text>

    <text x="-15" y="5" text-anchor="end" fill="#64748b" font-size="11">3</text>
    <text x="-15" y="130" text-anchor="end" fill="#64748b" font-size="11">1.5</text>
    <text x="-15" y="255" text-anchor="end" fill="#64748b" font-size="11">0</text>
    <text x="-15" y="380" text-anchor="end" fill="#64748b" font-size="11">-1.5</text>
    <text x="-15" y="505" text-anchor="end" fill="#64748b" font-size="11">-3</text>

    <!-- Heatmap cells - kernel K(0, (x,y)) = (|p|²-1)/(|p|²+1) where p=(x,y) -->
    <!-- Center: K=−1 (dark blue), edges: K≈0.8 (bright) -->

    <!-- Row 0 (y=3): far from origin, K ≈ 0.8 -->
    <rect x="0" y="0" width="30" height="25" fill="#2563eb" opacity="0.85"/>
    <rect x="30" y="0" width="30" height="25" fill="#3b82f6" opacity="0.85"/>
    <rect x="60" y="0" width="30" height="25" fill="#3b82f6" opacity="0.85"/>
    <rect x="90" y="0" width="30" height="25" fill="#60a5fa" opacity="0.85"/>
    <rect x="120" y="0" width="30" height="25" fill="#60a5fa" opacity="0.85"/>
    <rect x="150" y="0" width="30" height="25" fill="#93c5fd" opacity="0.85"/>
    <rect x="180" y="0" width="30" height="25" fill="#93c5fd" opacity="0.85"/>
    <rect x="210" y="0" width="30" height="25" fill="#bfdbfe" opacity="0.85"/>
    <rect x="240" y="0" width="30" height="25" fill="#93c5fd" opacity="0.85"/>
    <rect x="270" y="0" width="30" height="25" fill="#bfdbfe" opacity="0.85"/>
    <rect x="300" y="0" width="30" height="25" fill="#93c5fd" opacity="0.85"/>
    <rect x="330" y="0" width="30" height="25" fill="#93c5fd" opacity="0.85"/>
    <rect x="360" y="0" width="30" height="25" fill="#60a5fa" opacity="0.85"/>
    <rect x="390" y="0" width="30" height="25" fill="#60a5fa" opacity="0.85"/>
    <rect x="420" y="0" width="30" height="25" fill="#3b82f6" opacity="0.85"/>
    <rect x="450" y="0" width="30" height="25" fill="#3b82f6" opacity="0.85"/>
    <rect x="480" y="0" width="30" height="25" fill="#2563eb" opacity="0.85"/>
    <rect x="510" y="0" width="30" height="25" fill="#1d4ed8" opacity="0.85"/>
    <rect x="540" y="0" width="30" height="25" fill="#1e40af" opacity="0.85"/>
    <rect x="570" y="0" width="30" height="25" fill="#1e3a8a" opacity="0.85"/>

    <!-- Middle rows showing gradient from center -->
    <!-- Row 5 (y≈1.5) -->
    <rect x="0" y="125" width="30" height="25" fill="#3b82f6" opacity="0.85"/>
    <rect x="30" y="125" width="30" height="25" fill="#60a5fa" opacity="0.85"/>
    <rect x="60" y="125" width="30" height="25" fill="#60a5fa" opacity="0.85"/>
    <rect x="90" y="125" width="30" height="25" fill="#93c5fd" opacity="0.85"/>
    <rect x="120" y="125" width="30" height="25" fill="#93c5fd" opacity="0.85"/>
    <rect x="150" y="125" width="30" height="25" fill="#bfdbfe" opacity="0.85"/>
    <rect x="180" y="125" width="30" height="25" fill="#dbeafe" opacity="0.85"/>
    <rect x="210" y="125" width="30" height="25" fill="#eff6ff" opacity="0.85"/>
    <rect x="240" y="125" width="30" height="25" fill="#eff6ff" opacity="0.85"/>
    <rect x="270" y="125" width="30" height="25" fill="#fef3c7" opacity="0.85"/>
    <rect x="300" y="125" width="30" height="25" fill="#eff6ff" opacity="0.85"/>
    <rect x="330" y="125" width="30" height="25" fill="#eff6ff" opacity="0.85"/>
    <rect x="360" y="125" width="30" height="25" fill="#dbeafe" opacity="0.85"/>
    <rect x="390" y="125" width="30" height="25" fill="#bfdbfe" opacity="0.85"/>
    <rect x="420" y="125" width="30" height="25" fill="#93c5fd" opacity="0.85"/>
    <rect x="450" y="125" width="30" height="25" fill="#93c5fd" opacity="0.85"/>
    <rect x="480" y="125" width="30" height="25" fill="#60a5fa" opacity="0.85"/>
    <rect x="510" y="125" width="30" height="25" fill="#3b82f6" opacity="0.85"/>
    <rect x="540" y="125" width="30" height="25" fill="#2563eb" opacity="0.85"/>
    <rect x="570" y="125" width="30" height="25" fill="#1d4ed8" opacity="0.85"/>

    <!-- Row 10 (y=0, center row) -->
    <rect x="0" y="250" width="30" height="25" fill="#93c5fd" opacity="0.85"/>
    <rect x="30" y="250" width="30" height="25" fill="#93c5fd" opacity="0.85"/>
    <rect x="60" y="250" width="30" height="25" fill="#bfdbfe" opacity="0.85"/>
    <rect x="90" y="250" width="30" height="25" fill="#bfdbfe" opacity="0.85"/>
    <rect x="120" y="250" width="30" height="25" fill="#dbeafe" opacity="0.85"/>
    <rect x="150" y="250" width="30" height="25" fill="#eff6ff" opacity="0.85"/>
    <rect x="180" y="250" width="30" height="25" fill="#fef3c7" opacity="0.85"/>
    <rect x="210" y="250" width="30" height="25" fill="#fde68a" opacity="0.85"/>
    <rect x="240" y="250" width="30" height="25" fill="#fbbf24" opacity="0.85"/>
    <rect x="270" y="250" width="30" height="25" fill="#f59e0b" opacity="0.85"/>
    <rect x="300" y="250" width="30" height="25" fill="#ef4444" opacity="0.9"/>
    <rect x="330" y="250" width="30" height="25" fill="#f59e0b" opacity="0.85"/>
    <rect x="360" y="250" width="30" height="25" fill="#fbbf24" opacity="0.85"/>
    <rect x="390" y="250" width="30" height="25" fill="#fde68a" opacity="0.85"/>
    <rect x="420" y="250" width="30" height="25" fill="#fef3c7" opacity="0.85"/>
    <rect x="450" y="250" width="30" height="25" fill="#eff6ff" opacity="0.85"/>
    <rect x="480" y="250" width="30" height="25" fill="#dbeafe" opacity="0.85"/>
    <rect x="510" y="250" width="30" height="25" fill="#bfdbfe" opacity="0.85"/>
    <rect x="540" y="250" width="30" height="25" fill="#93c5fd" opacity="0.85"/>
    <rect x="570" y="250" width="30" height="25" fill="#93c5fd" opacity="0.85"/>

    <!-- Row 15 (y≈−1.5) - mirror of row 5 -->
    <rect x="0" y="375" width="30" height="25" fill="#3b82f6" opacity="0.85"/>
    <rect x="30" y="375" width="30" height="25" fill="#60a5fa" opacity="0.85"/>
    <rect x="60" y="375" width="30" height="25" fill="#60a5fa" opacity="0.85"/>
    <rect x="90" y="375" width="30" height="25" fill="#93c5fd" opacity="0.85"/>
    <rect x="120" y="375" width="30" height="25" fill="#93c5fd" opacity="0.85"/>
    <rect x="150" y="375" width="30" height="25" fill="#bfdbfe" opacity="0.85"/>
    <rect x="180" y="375" width="30" height="25" fill="#dbeafe" opacity="0.85"/>
    <rect x="210" y="375" width="30" height="25" fill="#eff6ff" opacity="0.85"/>
    <rect x="240" y="375" width="30" height="25" fill="#eff6ff" opacity="0.85"/>
    <rect x="270" y="375" width="30" height="25" fill="#fef3c7" opacity="0.85"/>
    <rect x="300" y="375" width="30" height="25" fill="#eff6ff" opacity="0.85"/>
    <rect x="330" y="375" width="30" height="25" fill="#eff6ff" opacity="0.85"/>
    <rect x="360" y="375" width="30" height="25" fill="#dbeafe" opacity="0.85"/>
    <rect x="390" y="375" width="30" height="25" fill="#bfdbfe" opacity="0.85"/>
    <rect x="420" y="375" width="30" height="25" fill="#93c5fd" opacity="0.85"/>
    <rect x="450" y="375" width="30" height="25" fill="#93c5fd" opacity="0.85"/>
    <rect x="480" y="375" width="30" height="25" fill="#60a5fa" opacity="0.85"/>
    <rect x="510" y="375" width="30" height="25" fill="#3b82f6" opacity="0.85"/>
    <rect x="540" y="375" width="30" height="25" fill="#2563eb" opacity="0.85"/>
    <rect x="570" y="375" width="30" height="25" fill="#1d4ed8" opacity="0.85"/>

    <!-- Row 19 (y=−3) - mirror of row 0 -->
    <rect x="0" y="500" width="30" height="25" fill="#1e3a8a" opacity="0.85"/>
    <rect x="30" y="500" width="30" height="25" fill="#1e40af" opacity="0.85"/>
    <rect x="60" y="500" width="30" height="25" fill="#1d4ed8" opacity="0.85"/>
    <rect x="90" y="500" width="30" height="25" fill="#2563eb" opacity="0.85"/>
    <rect x="120" y="500" width="30" height="25" fill="#3b82f6" opacity="0.85"/>
    <rect x="150" y="500" width="30" height="25" fill="#3b82f6" opacity="0.85"/>
    <rect x="180" y="500" width="30" height="25" fill="#60a5fa" opacity="0.85"/>
    <rect x="210" y="500" width="30" height="25" fill="#60a5fa" opacity="0.85"/>
    <rect x="240" y="500" width="30" height="25" fill="#93c5fd" opacity="0.85"/>
    <rect x="270" y="500" width="30" height="25" fill="#bfdbfe" opacity="0.85"/>
    <rect x="300" y="500" width="30" height="25" fill="#93c5fd" opacity="0.85"/>
    <rect x="330" y="500" width="30" height="25" fill="#93c5fd" opacity="0.85"/>
    <rect x="360" y="500" width="30" height="25" fill="#60a5fa" opacity="0.85"/>
    <rect x="390" y="500" width="30" height="25" fill="#60a5fa" opacity="0.85"/>
    <rect x="420" y="500" width="30" height="25" fill="#3b82f6" opacity="0.85"/>
    <rect x="450" y="500" width="30" height="25" fill="#3b82f6" opacity="0.85"/>
    <rect x="480" y="500" width="30" height="25" fill="#2563eb" opacity="0.85"/>
    <rect x="510" y="500" width="30" height="25" fill="#1d4ed8" opacity="0.85"/>
    <rect x="540" y="500" width="30" height="25" fill="#1e40af" opacity="0.85"/>
    <rect x="570" y="500" width="30" height="25" fill="#1e3a8a" opacity="0.85"/>

    <!-- Reference point marker -->
    <circle cx="300" cy="262" r="8" fill="none" stroke="#ef4444" stroke-width="2.5"/>
    <text x="320" y="245" fill="#ef4444" font-size="11" font-weight="bold">Reference</text>
    <text x="320" y="258" fill="#ef4444" font-size="11" font-weight="bold">point (0,0)</text>
  </g>

  <!-- Color legend -->
  <g transform="translate(730, 120)">
    <text x="50" y="0" text-anchor="middle" fill="#e2e8f0" font-size="13" font-weight="bold">Kernel Value</text>
    <rect x="30" y="15" width="40" height="20" fill="#ef4444"/>
    <text x="80" y="30" fill="#e2e8f0" font-size="11">K = −1 (identical)</text>
    <rect x="30" y="45" width="40" height="20" fill="#f59e0b"/>
    <text x="80" y="60" fill="#e2e8f0" font-size="11">K ≈ −0.6</text>
    <rect x="30" y="75" width="40" height="20" fill="#fef3c7"/>
    <text x="80" y="90" fill="#e2e8f0" font-size="11">K ≈ 0</text>
    <rect x="30" y="105" width="40" height="20" fill="#bfdbfe"/>
    <text x="80" y="120" fill="#e2e8f0" font-size="11">K ≈ 0.4</text>
    <rect x="30" y="135" width="40" height="20" fill="#3b82f6"/>
    <text x="80" y="150" fill="#e2e8f0" font-size="11">K ≈ 0.7</text>
    <rect x="30" y="165" width="40" height="20" fill="#1e3a8a"/>
    <text x="80" y="180" fill="#e2e8f0" font-size="11">K → 1 (antipodal)</text>

    <text x="50" y="220" text-anchor="middle" fill="#94a3b8" font-size="11">
      Note: K(0,p) =
    </text>
    <text x="50" y="240" text-anchor="middle" fill="#94a3b8" font-size="11">
      (‖p‖²−1)/(‖p‖²+1)
    </text>
    <text x="50" y="270" text-anchor="middle" fill="#94a3b8" font-size="11">
      K(0,0) = −1 (same point)
    </text>
    <text x="50" y="290" text-anchor="middle" fill="#94a3b8" font-size="11">
      K → 1 as ‖p‖ → ∞
    </text>
  </g>
</svg>
