<svg xmlns="http://www.w3.org/2000/svg" viewBox="0 0 900 500" width="900" height="500">
  <rect width="900" height="500" fill="#0a0a2e"/>
  <line x1="80" y1="50.0" x2="860" y2="50.0" stroke="#1a1a4e" stroke-width="0.5"/>
  <line x1="80.0" y1="50" x2="80.0" y2="440" stroke="#1a1a4e" stroke-width="0.5"/>
  <line x1="80" y1="89.0" x2="860" y2="89.0" stroke="#1a1a4e" stroke-width="0.5"/>
  <line x1="158.0" y1="50" x2="158.0" y2="440" stroke="#1a1a4e" stroke-width="0.5"/>
  <line x1="80" y1="128.0" x2="860" y2="128.0" stroke="#1a1a4e" stroke-width="0.5"/>
  <line x1="236.0" y1="50" x2="236.0" y2="440" stroke="#1a1a4e" stroke-width="0.5"/>
  <line x1="80" y1="167.0" x2="860" y2="167.0" stroke="#1a1a4e" stroke-width="0.5"/>
  <line x1="314.0" y1="50" x2="314.0" y2="440" stroke="#1a1a4e" stroke-width="0.5"/>
  <line x1="80" y1="206.0" x2="860" y2="206.0" stroke="#1a1a4e" stroke-width="0.5"/>
  <line x1="392.0" y1="50" x2="392.0" y2="440" stroke="#1a1a4e" stroke-width="0.5"/>
  <line x1="80" y1="245.0" x2="860" y2="245.0" stroke="#1a1a4e" stroke-width="0.5"/>
  <line x1="470.0" y1="50" x2="470.0" y2="440" stroke="#1a1a4e" stroke-width="0.5"/>
  <line x1="80" y1="284.0" x2="860" y2="284.0" stroke="#1a1a4e" stroke-width="0.5"/>
  <line x1="548.0" y1="50" x2="548.0" y2="440" stroke="#1a1a4e" stroke-width="0.5"/>
  <line x1="80" y1="323.0" x2="860" y2="323.0" stroke="#1a1a4e" stroke-width="0.5"/>
  <line x1="626.0" y1="50" x2="626.0" y2="440" stroke="#1a1a4e" stroke-width="0.5"/>
  <line x1="80" y1="362.0" x2="860" y2="362.0" stroke="#1a1a4e" stroke-width="0.5"/>
  <line x1="704.0" y1="50" x2="704.0" y2="440" stroke="#1a1a4e" stroke-width="0.5"/>
  <line x1="80" y1="401.0" x2="860" y2="401.0" stroke="#1a1a4e" stroke-width="0.5"/>
  <line x1="782.0" y1="50" x2="782.0" y2="440" stroke="#1a1a4e" stroke-width="0.5"/>
  <line x1="80" y1="440.0" x2="860" y2="440.0" stroke="#1a1a4e" stroke-width="0.5"/>
  <line x1="860.0" y1="50" x2="860.0" y2="440" stroke="#1a1a4e" stroke-width="0.5"/>
  <line x1="80" y1="440" x2="860" y2="440" stroke="white" stroke-width="1.5"/>
  <line x1="80" y1="50" x2="80" y2="440" stroke="white" stroke-width="1.5"/>
  <!-- Continuous: E = p -->
  <polyline points="80.0,440.0 83.9,438.2 87.8,436.5 91.7,434.7 95.6,432.9 99.5,431.1 103.4,429.4 107.3,427.6 111.2,425.8 115.1,424.0 119.0,422.3 122.9,420.5 126.8,418.7 130.7,417.0 134.6,415.2 138.5,413.4 142.4,411.6 146.3,409.9 150.2,408.1 154.1,406.3 158.0,404.5 161.9,402.8 165.8,401.0 169.7,399.2 173.6,397.5 177.5,395.7 181.4,393.9 185.3,392.1 189.2,390.4 193.1,388.6 197.0,386.8 200.9,385.0 204.8,383.3 208.7,381.5 212.6,379.7 216.5,378.0 220.4,376.2 224.3,374.4 228.2,372.6 232.1,370.9 236.0,369.1 239.9,367.3 243.8,365.5 247.7,363.8 251.6,362.0 255.5,360.2 259.4,358.5 263.3,356.7 267.2,354.9 271.1,353.1 275.0,351.4 278.9,349.6 282.8,347.8 286.7,346.0 290.6,344.3 294.5,342.5 298.4,340.7 302.3,339.0 306.2,337.2 310.1,335.4 314.0,333.6 317.9,331.9 321.8,330.1 325.7,328.3 329.6,326.5 333.5,324.8 337.4,323.0 341.3,321.2 345.2,319.5 349.1,317.7 353.0,315.9 356.9,314.1 360.8,312.4 364.7,310.6 368.6,308.8 372.5,307.0 376.4,305.3 380.3,303.5 384.2,301.7 388.1,300.0 392.0,298.2 395.9,296.4 399.8,294.6 403.7,292.9 407.6,291.1 411.5,289.3 415.4,287.5 419.3,285.8 423.2,284.0 427.1,282.2 431.0,280.5 434.9,278.7 438.8,276.9 442.7,275.1 446.6,273.4 450.5,271.6 454.4,269.8 458.3,268.0 462.2,266.3 466.1,264.5 470.0,262.7 473.9,261.0 477.8,259.2 481.7,257.4 485.6,255.6 489.5,253.9 493.4,252.1 497.3,250.3 501.2,248.5 505.1,246.8 509.0,245.0 512.9,243.2 516.8,241.5 520.7,239.7 524.6,237.9 528.5,236.1 532.4,234.4 536.3,232.6 540.2,230.8 544.1,229.0 548.0,227.3 551.9,225.5 555.8,223.7 559.7,222.0 563.6,220.2 567.5,218.4 571.4,216.6 575.3,214.9 579.2,213.1 583.1,211.3 587.0,209.5 590.9,207.8 594.8,206.0 598.7,204.2 602.6,202.5 606.5,200.7 610.4,198.9 614.3,197.1 618.2,195.4 622.1,193.6 626.0,191.8 629.9,190.0 633.8,188.3 637.7,186.5 641.6,184.7 645.5,183.0 649.4,181.2 653.3,179.4 657.2,177.6 661.1,175.9 665.0,174.1 668.9,172.3 672.8,170.5 676.7,168.8 680.6,167.0 684.5,165.2 688.4,163.5 692.3,161.7 696.2,159.9 700.1,158.1 704.0,156.4 707.9,154.6 711.8,152.8 715.7,151.0 719.6,149.3 723.5,147.5 727.4,145.7 731.3,144.0 735.2,142.2 739.1,140.4 743.0,138.6 746.9,136.9 750.8,135.1 754.7,133.3 758.6,131.5 762.5,129.8 766.4,128.0 770.3,126.2 774.2,124.5 778.1,122.7 782.0,120.9 785.9,119.1 789.8,117.4 793.7,115.6 797.6,113.8 801.5,112.0 805.4,110.3 809.3,108.5 813.2,106.7 817.1,105.0 821.0,103.2 824.9,101.4 828.8,99.6 832.7,97.9 836.6,96.1 840.5,94.3 844.4,92.5 848.3,90.8 852.2,89.0 856.1,87.2" fill="none" stroke="#44ff44" stroke-width="2" opacity="0.8"/>
  <!-- Lattice: E = (2/a)sin(pa/2), a=0.3 -->
  <polyline points="80.0,440.0 83.9,438.2 87.8,436.5 91.7,434.7 95.6,432.9 99.5,431.1 103.4,429.4 107.3,427.6 111.2,425.8 115.1,424.1 119.0,422.3 122.9,420.5 126.8,418.8 130.7,417.0 134.6,415.2 138.5,413.5 142.4,411.7 146.3,410.0 150.2,408.2 154.1,406.5 158.0,404.7 161.9,403.0 165.8,401.2 169.7,399.5 173.6,397.8 177.5,396.0 181.4,394.3 185.3,392.6 189.2,390.8 193.1,389.1 197.0,387.4 200.9,385.7 204.8,384.0 208.7,382.3 212.6,380.6 216.5,378.9 220.4,377.2 224.3,375.5 228.2,373.8 232.1,372.2 236.0,370.5 239.9,368.8 243.8,367.2 247.7,365.5 251.6,363.9 255.5,362.2 259.4,360.6 263.3,359.0 267.2,357.3 271.1,355.7 275.0,354.1 278.9,352.5 282.8,350.9 286.7,349.3 290.6,347.7 294.5,346.1 298.4,344.6 302.3,343.0 306.2,341.4 310.1,339.9 314.0,338.3 317.9,336.8 321.8,335.3 325.7,333.8 329.6,332.2 333.5,330.7 337.4,329.2 341.3,327.7 345.2,326.3 349.1,324.8 353.0,323.3 356.9,321.9 360.8,320.4 364.7,319.0 368.6,317.6 372.5,316.2 376.4,314.7 380.3,313.3 384.2,312.0 388.1,310.6 392.0,309.2 395.9,307.8 399.8,306.5 403.7,305.2 407.6,303.8 411.5,302.5 415.4,301.2 419.3,299.9 423.2,298.6 427.1,297.3 431.0,296.1 434.9,294.8 438.8,293.5 442.7,292.3 446.6,291.1 450.5,289.9 454.4,288.7 458.3,287.5 462.2,286.3 466.1,285.1 470.0,284.0 473.9,282.8 477.8,281.7 481.7,280.6 485.6,279.5 489.5,278.4 493.4,277.3 497.3,276.2 501.2,275.1 505.1,274.1 509.0,273.1 512.9,272.0 516.8,271.0 520.7,270.0 524.6,269.0 528.5,268.1 532.4,267.1 536.3,266.1 540.2,265.2 544.1,264.3 548.0,263.4 551.9,262.5 555.8,261.6 559.7,260.7 563.6,259.9 567.5,259.0 571.4,258.2 575.3,257.4 579.2,256.6 583.1,255.8 587.0,255.0 590.9,254.3 594.8,253.5 598.7,252.8 602.6,252.1 606.5,251.4 610.4,250.7 614.3,250.0 618.2,249.3 622.1,248.7 626.0,248.1 629.9,247.4 633.8,246.8 637.7,246.2 641.6,245.7 645.5,245.1 649.4,244.6 653.3,244.0 657.2,243.5 661.1,243.0 665.0,242.5 668.9,242.0 672.8,241.6 676.7,241.1 680.6,240.7 684.5,240.3 688.4,239.9 692.3,239.5 696.2,239.1 700.1,238.8 704.0,238.4 707.9,238.1 711.8,237.8 715.7,237.5 719.6,237.2 723.5,237.0 727.4,236.7 731.3,236.5 735.2,236.3 739.1,236.1 743.0,235.9 746.9,235.7 750.8,235.5 754.7,235.4 758.6,235.3 762.5,235.2 766.4,235.1 770.3,235.0 774.2,234.9 778.1,234.9 782.0,234.8 785.9,234.8 789.8,234.8 793.7,234.8 797.6,234.8 801.5,234.9 805.4,234.9 809.3,235.0 813.2,235.1 817.1,235.2 821.0,235.3 824.9,235.5 828.8,235.6 832.7,235.8 836.6,235.9 840.5,236.1 844.4,236.3 848.3,236.6 852.2,236.8 856.1,237.1" fill="none" stroke="#ff4444" stroke-width="2.5"/>
  <!-- Lattice with mass -->
  <polyline points="80.0,378.4 83.9,378.4 87.8,378.3 91.7,378.2 95.6,378.0 99.5,377.8 103.4,377.5 107.3,377.2 111.2,376.8 115.1,376.4 119.0,375.9 122.9,375.4 126.8,374.9 130.7,374.3 134.6,373.7 138.5,373.0 142.4,372.3 146.3,371.5 150.2,370.7 154.1,369.9 158.0,369.1 161.9,368.2 165.8,367.3 169.7,366.3 173.6,365.3 177.5,364.3 181.4,363.3 185.3,362.3 189.2,361.2 193.1,360.1 197.0,359.0 200.9,357.9 204.8,356.8 208.7,355.6 212.6,354.4 216.5,353.3 220.4,352.1 224.3,350.9 228.2,349.6 232.1,348.4 236.0,347.2 239.9,345.9 243.8,344.6 247.7,343.4 251.6,342.1 255.5,340.8 259.4,339.5 263.3,338.2 267.2,336.9 271.1,335.6 275.0,334.3 278.9,333.0 282.8,331.7 286.7,330.4 290.6,329.1 294.5,327.7 298.4,326.4 302.3,325.1 306.2,323.8 310.1,322.5 314.0,321.2 317.9,319.8 321.8,318.5 325.7,317.2 329.6,315.9 333.5,314.6 337.4,313.3 341.3,312.0 345.2,310.7 349.1,309.4 353.0,308.1 356.9,306.8 360.8,305.5 364.7,304.2 368.6,303.0 372.5,301.7 376.4,300.4 380.3,299.2 384.2,297.9 388.1,296.7 392.0,295.4 395.9,294.2 399.8,293.0 403.7,291.8 407.6,290.6 411.5,289.4 415.4,288.2 419.3,287.0 423.2,285.8 427.1,284.6 431.0,283.4 434.9,282.3 438.8,281.1 442.7,280.0 446.6,278.9 450.5,277.7 454.4,276.6 458.3,275.5 462.2,274.4 466.1,273.3 470.0,272.3 473.9,271.2 477.8,270.1 481.7,269.1 485.6,268.1 489.5,267.0 493.4,266.0 497.3,265.0 501.2,264.0 505.1,263.0 509.0,262.1 512.9,261.1 516.8,260.2 520.7,259.2 524.6,258.3 528.5,257.4 532.4,256.5 536.3,255.6 540.2,254.7 544.1,253.8 548.0,253.0 551.9,252.1 555.8,251.3 559.7,250.5 563.6,249.7 567.5,248.9 571.4,248.1 575.3,247.3 579.2,246.5 583.1,245.8 587.0,245.1 590.9,244.3 594.8,243.6 598.7,242.9 602.6,242.2 606.5,241.6 610.4,240.9 614.3,240.3 618.2,239.6 622.1,239.0 626.0,238.4 629.9,237.8 633.8,237.3 637.7,236.7 641.6,236.1 645.5,235.6 649.4,235.1 653.3,234.6 657.2,234.1 661.1,233.6 665.0,233.1 668.9,232.7 672.8,232.3 676.7,231.8 680.6,231.4 684.5,231.0 688.4,230.6 692.3,230.3 696.2,229.9 700.1,229.6 704.0,229.3 707.9,228.9 711.8,228.6 715.7,228.4 719.6,228.1 723.5,227.8 727.4,227.6 731.3,227.4 735.2,227.2 739.1,227.0 743.0,226.8 746.9,226.6 750.8,226.5 754.7,226.3 758.6,226.2 762.5,226.1 766.4,226.0 770.3,225.9 774.2,225.9 778.1,225.8 782.0,225.8 785.9,225.8 789.8,225.8 793.7,225.8 797.6,225.8 801.5,225.8 805.4,225.9 809.3,226.0 813.2,226.1 817.1,226.2 821.0,226.3 824.9,226.4 828.8,226.5 832.7,226.7 836.6,226.9 840.5,227.0 844.4,227.2 848.3,227.5 852.2,227.7 856.1,227.9" fill="none" stroke="#ff8844" stroke-width="2" stroke-dasharray="6,3"/>
  <line x1="789.0909090909091" y1="50" x2="789.0909090909091" y2="440" stroke="#ffff44" stroke-width="1" stroke-dasharray="4,4" opacity="0.6"/>
  <text x="789.0909090909091" y="45" text-anchor="middle" fill="#ffff44" font-size="11" font-family="sans-serif">p = π/a</text>
  <text x="789.0909090909091" y="65" text-anchor="middle" fill="#ffff44" font-size="9" font-family="sans-serif">(Brillouin zone)</text>
  <rect x="80" y="50" width="67.71319397000639" height="390" fill="#44ff44" opacity="0.05"/>
  <text x="113.8565969850032" y="420" text-anchor="middle" fill="#44ff44" font-size="9" font-family="sans-serif" opacity="0.7">Agreement region</text>
  <rect x="147.7131939700064" y="50" width="641.3777151209027" height="390" fill="#ff4444" opacity="0.05"/>
  <text x="468.40205153045775" y="80" text-anchor="middle" fill="#ff8888" font-size="9" font-family="sans-serif" opacity="0.7">Quantum gravity regime</text>
  <text x="450" y="490" text-anchor="middle" fill="white" font-size="13" font-family="sans-serif">Momentum p</text>
  <text x="15" y="250" text-anchor="middle" fill="white" font-size="13" font-family="sans-serif" transform="rotate(-90, 15, 250)">Energy E</text>
  <text x="450" y="25" text-anchor="middle" fill="white" font-size="16" font-family="sans-serif">Dispersion Relations: Continuous vs Lattice Spacetime</text>
  <line x1="95" y1="70" x2="125" y2="70" stroke="#44ff44" stroke-width="2"/>
  <text x="130" y="74" fill="#44ff44" font-size="11" font-family="sans-serif">Continuous: E = p</text>
  <line x1="95" y1="90" x2="125" y2="90" stroke="#ff4444" stroke-width="2.5"/>
  <text x="130" y="94" fill="#ff4444" font-size="11" font-family="sans-serif">Lattice: E = (2/a)sin(pa/2)</text>
  <line x1="95" y1="110" x2="125" y2="110" stroke="#ff8844" stroke-width="2" stroke-dasharray="6,3"/>
  <text x="130" y="114" fill="#ff8844" font-size="11" font-family="sans-serif">Lattice massive: E² = (2/a)²sin²(pa/2) + m²</text>
</svg>