<svg xmlns="http://www.w3.org/2000/svg" viewBox="0 0 900 550" width="900" height="550">
  <rect width="900" height="550" fill="#0a0a2e"/>
  <line x1="80.0" y1="80" x2="80.0" y2="470" stroke="#1a1a4e" stroke-width="0.5"/>
  <text x="80.0" y="485" text-anchor="middle" fill="#888" font-size="10" font-family="sans-serif">10^-15</text>
  <line x1="265.0" y1="80" x2="265.0" y2="470" stroke="#1a1a4e" stroke-width="0.5"/>
  <text x="265.0" y="485" text-anchor="middle" fill="#888" font-size="10" font-family="sans-serif">10^-10</text>
  <line x1="450.0" y1="80" x2="450.0" y2="470" stroke="#1a1a4e" stroke-width="0.5"/>
  <text x="450.0" y="485" text-anchor="middle" fill="#888" font-size="10" font-family="sans-serif">10^-5</text>
  <line x1="635.0" y1="80" x2="635.0" y2="470" stroke="#1a1a4e" stroke-width="0.5"/>
  <text x="635.0" y="485" text-anchor="middle" fill="#888" font-size="10" font-family="sans-serif">10^0</text>
  <line x1="820.0" y1="80" x2="820.0" y2="470" stroke="#1a1a4e" stroke-width="0.5"/>
  <text x="820.0" y="485" text-anchor="middle" fill="#888" font-size="10" font-family="sans-serif">10^5</text>
  <line x1="80" y1="470.0" x2="820" y2="470.0" stroke="#1a1a4e" stroke-width="0.5"/>
  <text x="75" y="474.0" text-anchor="end" fill="#888" font-size="10" font-family="sans-serif">10^-50</text>
  <line x1="80" y1="392.0" x2="820" y2="392.0" stroke="#1a1a4e" stroke-width="0.5"/>
  <text x="75" y="396.0" text-anchor="end" fill="#888" font-size="10" font-family="sans-serif">10^-40</text>
  <line x1="80" y1="314.0" x2="820" y2="314.0" stroke="#1a1a4e" stroke-width="0.5"/>
  <text x="75" y="318.0" text-anchor="end" fill="#888" font-size="10" font-family="sans-serif">10^-30</text>
  <line x1="80" y1="236.0" x2="820" y2="236.0" stroke="#1a1a4e" stroke-width="0.5"/>
  <text x="75" y="240.0" text-anchor="end" fill="#888" font-size="10" font-family="sans-serif">10^-20</text>
  <line x1="80" y1="158.0" x2="820" y2="158.0" stroke="#1a1a4e" stroke-width="0.5"/>
  <text x="75" y="162.0" text-anchor="end" fill="#888" font-size="10" font-family="sans-serif">10^-10</text>
  <line x1="80" y1="80.0" x2="820" y2="80.0" stroke="#1a1a4e" stroke-width="0.5"/>
  <text x="75" y="84.0" text-anchor="end" fill="#888" font-size="10" font-family="sans-serif">10^0</text>
  <line x1="80" y1="470" x2="820" y2="470" stroke="white" stroke-width="1.5"/>
  <line x1="80" y1="80" x2="80" y2="470" stroke="white" stroke-width="1.5"/>
  <!-- Prediction: cubic lattice anisotropy -->
  <polyline points="764.5,469.9 768.2,468.4 771.9,466.8 775.6,465.2 779.3,463.7 783.0,462.1 786.7,460.6 790.4,459.0 794.1,457.4 797.8,455.9 801.5,454.3 805.2,452.8 808.9,451.2 812.6,449.6 816.3,448.1 820.0,446.5" fill="none" stroke="#44aaff" stroke-width="2.5"/>
  <line x1="80" y1="220.4" x2="820" y2="220.4" stroke="#ff4444" stroke-width="2" stroke-dasharray="6,3"/>
  <text x="815" y="215.4" text-anchor="end" fill="#ff4444" font-size="11" font-family="sans-serif">Michelson-Morley bound (Δc/c &lt; 10⁻¹⁸)</text>
  <rect x="80" y="80" width="740" height="140.4" fill="#ff4444" opacity="0.08"/>
  <text x="450.0" y="150.2" text-anchor="middle" fill="#ff6666" font-size="14" font-family="sans-serif" opacity="0.5">RULED OUT</text>
  <line x1="635.0" y1="80" x2="635.0" y2="470" stroke="#ffff44" stroke-width="1.5" stroke-dasharray="4,4" opacity="0.6"/>
  <text x="638.0" y="95" fill="#ffff44" font-size="10" font-family="sans-serif">Planck length</text>
  <circle cx="635.0" cy="524.5196603382095" r="6" fill="#ff8844" stroke="white" stroke-width="1"/>
  <text x="645.0" y="528.5196603382095" fill="#ff8844" font-size="10" font-family="sans-serif">Cubic lattice at ℓ_P</text>
  <text x="450.0" y="540" text-anchor="middle" fill="white" font-size="12" font-family="sans-serif">Lattice spacing (units of Planck length)</text>
  <text x="15" y="275.0" text-anchor="middle" fill="white" font-size="12" font-family="sans-serif" transform="rotate(-90, 15, 275.0)">Speed anisotropy Δc/c</text>
  <text x="450.0" y="25" text-anchor="middle" fill="white" font-size="16" font-family="sans-serif">Pythagorean Lattice: Predictions vs Experimental Bounds</text>
</svg>