<svg xmlns="http://www.w3.org/2000/svg" viewBox="0 0 800 800" width="800" height="800">
  <defs>
    <radialGradient id="glow" cx="50%" cy="50%" r="50%">
      <stop offset="0%" style="stop-color:#ffdd44;stop-opacity:0.8"/>
      <stop offset="100%" style="stop-color:#ffdd44;stop-opacity:0"/>
    </radialGradient>
  </defs>
  <rect width="800" height="800" fill="#0a0a2e"/>
  <!-- Lattice points -->
  <circle cx="80" cy="720" r="1.5" fill="#334" opacity="0.6"/>
  <circle cx="80" cy="680" r="1.5" fill="#334" opacity="0.6"/>
  <circle cx="80" cy="640" r="1.5" fill="#334" opacity="0.6"/>
  <circle cx="80" cy="600" r="1.5" fill="#334" opacity="0.6"/>
  <circle cx="80" cy="560" r="1.5" fill="#334" opacity="0.6"/>
  <circle cx="80" cy="520" r="1.5" fill="#334" opacity="0.6"/>
  <circle cx="80" cy="480" r="1.5" fill="#334" opacity="0.6"/>
  <circle cx="80" cy="440" r="1.5" fill="#334" opacity="0.6"/>
  <circle cx="80" cy="400" r="1.5" fill="#334" opacity="0.6"/>
  <circle cx="80" cy="360" r="1.5" fill="#334" opacity="0.6"/>
  <circle cx="80" cy="320" r="1.5" fill="#334" opacity="0.6"/>
  <circle cx="80" cy="280" r="1.5" fill="#334" opacity="0.6"/>
  <circle cx="80" cy="240" r="1.5" fill="#334" opacity="0.6"/>
  <circle cx="80" cy="200" r="1.5" fill="#334" opacity="0.6"/>
  <circle cx="80" cy="160" r="1.5" fill="#334" opacity="0.6"/>
  <circle cx="80" cy="120" r="1.5" fill="#334" opacity="0.6"/>
  <circle cx="80" cy="80" r="1.5" fill="#334" opacity="0.6"/>
  <circle cx="120" cy="720" r="1.5" fill="#334" opacity="0.6"/>
  <circle cx="120" cy="680" r="1.5" fill="#334" opacity="0.6"/>
  <circle cx="120" cy="640" r="1.5" fill="#334" opacity="0.6"/>
  <circle cx="120" cy="600" r="1.5" fill="#334" opacity="0.6"/>
  <circle cx="120" cy="560" r="1.5" fill="#334" opacity="0.6"/>
  <circle cx="120" cy="520" r="1.5" fill="#334" opacity="0.6"/>
  <circle cx="120" cy="480" r="1.5" fill="#334" opacity="0.6"/>
  <circle cx="120" cy="440" r="1.5" fill="#334" opacity="0.6"/>
  <circle cx="120" cy="400" r="1.5" fill="#334" opacity="0.6"/>
  <circle cx="120" cy="360" r="1.5" fill="#334" opacity="0.6"/>
  <circle cx="120" cy="320" r="1.5" fill="#334" opacity="0.6"/>
  <circle cx="120" cy="280" r="1.5" fill="#334" opacity="0.6"/>
  <circle cx="120" cy="240" r="1.5" fill="#334" opacity="0.6"/>
  <circle cx="120" cy="200" r="1.5" fill="#334" opacity="0.6"/>
  <circle cx="120" cy="160" r="1.5" fill="#334" opacity="0.6"/>
  <circle cx="120" cy="120" r="1.5" fill="#334" opacity="0.6"/>
  <circle cx="120" cy="80" r="1.5" fill="#334" opacity="0.6"/>
  <circle cx="160" cy="720" r="1.5" fill="#334" opacity="0.6"/>
  <circle cx="160" cy="680" r="1.5" fill="#334" opacity="0.6"/>
  <circle cx="160" cy="640" r="1.5" fill="#334" opacity="0.6"/>
  <circle cx="160" cy="600" r="1.5" fill="#334" opacity="0.6"/>
  <circle cx="160" cy="560" r="1.5" fill="#334" opacity="0.6"/>
  <circle cx="160" cy="520" r="1.5" fill="#334" opacity="0.6"/>
  <circle cx="160" cy="480" r="1.5" fill="#334" opacity="0.6"/>
  <circle cx="160" cy="440" r="1.5" fill="#334" opacity="0.6"/>
  <circle cx="160" cy="400" r="1.5" fill="#334" opacity="0.6"/>
  <circle cx="160" cy="360" r="1.5" fill="#334" opacity="0.6"/>
  <circle cx="160" cy="320" r="1.5" fill="#334" opacity="0.6"/>
  <circle cx="160" cy="280" r="1.5" fill="#334" opacity="0.6"/>
  <circle cx="160" cy="240" r="1.5" fill="#334" opacity="0.6"/>
  <circle cx="160" cy="200" r="1.5" fill="#334" opacity="0.6"/>
  <circle cx="160" cy="160" r="1.5" fill="#334" opacity="0.6"/>
  <circle cx="160" cy="120" r="1.5" fill="#334" opacity="0.6"/>
  <circle cx="160" cy="80" r="1.5" fill="#334" opacity="0.6"/>
  <circle cx="200" cy="720" r="1.5" fill="#334" opacity="0.6"/>
  <circle cx="200" cy="680" r="1.5" fill="#334" opacity="0.6"/>
  <circle cx="200" cy="640" r="1.5" fill="#334" opacity="0.6"/>
  <circle cx="200" cy="600" r="1.5" fill="#334" opacity="0.6"/>
  <circle cx="200" cy="560" r="1.5" fill="#334" opacity="0.6"/>
  <circle cx="200" cy="520" r="1.5" fill="#334" opacity="0.6"/>
  <circle cx="200" cy="480" r="1.5" fill="#334" opacity="0.6"/>
  <circle cx="200" cy="440" r="1.5" fill="#334" opacity="0.6"/>
  <circle cx="200" cy="400" r="1.5" fill="#334" opacity="0.6"/>
  <circle cx="200" cy="360" r="1.5" fill="#334" opacity="0.6"/>
  <circle cx="200" cy="320" r="1.5" fill="#334" opacity="0.6"/>
  <circle cx="200" cy="280" r="1.5" fill="#334" opacity="0.6"/>
  <circle cx="200" cy="240" r="1.5" fill="#334" opacity="0.6"/>
  <circle cx="200" cy="200" r="1.5" fill="#334" opacity="0.6"/>
  <circle cx="200" cy="160" r="1.5" fill="#334" opacity="0.6"/>
  <circle cx="200" cy="120" r="1.5" fill="#334" opacity="0.6"/>
  <circle cx="200" cy="80" r="1.5" fill="#334" opacity="0.6"/>
  <circle cx="240" cy="720" r="1.5" fill="#334" opacity="0.6"/>
  <circle cx="240" cy="680" r="1.5" fill="#334" opacity="0.6"/>
  <circle cx="240" cy="640" r="1.5" fill="#334" opacity="0.6"/>
  <circle cx="240" cy="600" r="1.5" fill="#334" opacity="0.6"/>
  <circle cx="240" cy="560" r="1.5" fill="#334" opacity="0.6"/>
  <circle cx="240" cy="520" r="1.5" fill="#334" opacity="0.6"/>
  <circle cx="240" cy="480" r="1.5" fill="#334" opacity="0.6"/>
  <circle cx="240" cy="440" r="1.5" fill="#334" opacity="0.6"/>
  <circle cx="240" cy="400" r="1.5" fill="#334" opacity="0.6"/>
  <circle cx="240" cy="360" r="1.5" fill="#334" opacity="0.6"/>
  <circle cx="240" cy="320" r="1.5" fill="#334" opacity="0.6"/>
  <circle cx="240" cy="280" r="1.5" fill="#334" opacity="0.6"/>
  <circle cx="240" cy="240" r="1.5" fill="#334" opacity="0.6"/>
  <circle cx="240" cy="200" r="1.5" fill="#334" opacity="0.6"/>
  <circle cx="240" cy="160" r="1.5" fill="#334" opacity="0.6"/>
  <circle cx="240" cy="120" r="1.5" fill="#334" opacity="0.6"/>
  <circle cx="240" cy="80" r="1.5" fill="#334" opacity="0.6"/>
  <circle cx="280" cy="720" r="1.5" fill="#334" opacity="0.6"/>
  <circle cx="280" cy="680" r="1.5" fill="#334" opacity="0.6"/>
  <circle cx="280" cy="640" r="1.5" fill="#334" opacity="0.6"/>
  <circle cx="280" cy="600" r="1.5" fill="#334" opacity="0.6"/>
  <circle cx="280" cy="560" r="1.5" fill="#334" opacity="0.6"/>
  <circle cx="280" cy="520" r="1.5" fill="#334" opacity="0.6"/>
  <circle cx="280" cy="480" r="1.5" fill="#334" opacity="0.6"/>
  <circle cx="280" cy="440" r="1.5" fill="#334" opacity="0.6"/>
  <circle cx="280" cy="400" r="1.5" fill="#334" opacity="0.6"/>
  <circle cx="280" cy="360" r="1.5" fill="#334" opacity="0.6"/>
  <circle cx="280" cy="320" r="1.5" fill="#334" opacity="0.6"/>
  <circle cx="280" cy="280" r="1.5" fill="#334" opacity="0.6"/>
  <circle cx="280" cy="240" r="1.5" fill="#334" opacity="0.6"/>
  <circle cx="280" cy="200" r="1.5" fill="#334" opacity="0.6"/>
  <circle cx="280" cy="160" r="1.5" fill="#334" opacity="0.6"/>
  <circle cx="280" cy="120" r="1.5" fill="#334" opacity="0.6"/>
  <circle cx="280" cy="80" r="1.5" fill="#334" opacity="0.6"/>
  <circle cx="320" cy="720" r="1.5" fill="#334" opacity="0.6"/>
  <circle cx="320" cy="680" r="1.5" fill="#334" opacity="0.6"/>
  <circle cx="320" cy="640" r="1.5" fill="#334" opacity="0.6"/>
  <circle cx="320" cy="600" r="1.5" fill="#334" opacity="0.6"/>
  <circle cx="320" cy="560" r="1.5" fill="#334" opacity="0.6"/>
  <circle cx="320" cy="520" r="1.5" fill="#334" opacity="0.6"/>
  <circle cx="320" cy="480" r="1.5" fill="#334" opacity="0.6"/>
  <circle cx="320" cy="440" r="1.5" fill="#334" opacity="0.6"/>
  <circle cx="320" cy="400" r="1.5" fill="#334" opacity="0.6"/>
  <circle cx="320" cy="360" r="1.5" fill="#334" opacity="0.6"/>
  <circle cx="320" cy="320" r="1.5" fill="#334" opacity="0.6"/>
  <circle cx="320" cy="280" r="1.5" fill="#334" opacity="0.6"/>
  <circle cx="320" cy="240" r="1.5" fill="#334" opacity="0.6"/>
  <circle cx="320" cy="200" r="1.5" fill="#334" opacity="0.6"/>
  <circle cx="320" cy="160" r="1.5" fill="#334" opacity="0.6"/>
  <circle cx="320" cy="120" r="1.5" fill="#334" opacity="0.6"/>
  <circle cx="320" cy="80" r="1.5" fill="#334" opacity="0.6"/>
  <circle cx="360" cy="720" r="1.5" fill="#334" opacity="0.6"/>
  <circle cx="360" cy="680" r="1.5" fill="#334" opacity="0.6"/>
  <circle cx="360" cy="640" r="1.5" fill="#334" opacity="0.6"/>
  <circle cx="360" cy="600" r="1.5" fill="#334" opacity="0.6"/>
  <circle cx="360" cy="560" r="1.5" fill="#334" opacity="0.6"/>
  <circle cx="360" cy="520" r="1.5" fill="#334" opacity="0.6"/>
  <circle cx="360" cy="480" r="1.5" fill="#334" opacity="0.6"/>
  <circle cx="360" cy="440" r="1.5" fill="#334" opacity="0.6"/>
  <circle cx="360" cy="400" r="1.5" fill="#334" opacity="0.6"/>
  <circle cx="360" cy="360" r="1.5" fill="#334" opacity="0.6"/>
  <circle cx="360" cy="320" r="1.5" fill="#334" opacity="0.6"/>
  <circle cx="360" cy="280" r="1.5" fill="#334" opacity="0.6"/>
  <circle cx="360" cy="240" r="1.5" fill="#334" opacity="0.6"/>
  <circle cx="360" cy="200" r="1.5" fill="#334" opacity="0.6"/>
  <circle cx="360" cy="160" r="1.5" fill="#334" opacity="0.6"/>
  <circle cx="360" cy="120" r="1.5" fill="#334" opacity="0.6"/>
  <circle cx="360" cy="80" r="1.5" fill="#334" opacity="0.6"/>
  <circle cx="400" cy="720" r="1.5" fill="#334" opacity="0.6"/>
  <circle cx="400" cy="680" r="1.5" fill="#334" opacity="0.6"/>
  <circle cx="400" cy="640" r="1.5" fill="#334" opacity="0.6"/>
  <circle cx="400" cy="600" r="1.5" fill="#334" opacity="0.6"/>
  <circle cx="400" cy="560" r="1.5" fill="#334" opacity="0.6"/>
  <circle cx="400" cy="520" r="1.5" fill="#334" opacity="0.6"/>
  <circle cx="400" cy="480" r="1.5" fill="#334" opacity="0.6"/>
  <circle cx="400" cy="440" r="1.5" fill="#334" opacity="0.6"/>
  <circle cx="400" cy="400" r="1.5" fill="#334" opacity="0.6"/>
  <circle cx="400" cy="360" r="1.5" fill="#334" opacity="0.6"/>
  <circle cx="400" cy="320" r="1.5" fill="#334" opacity="0.6"/>
  <circle cx="400" cy="280" r="1.5" fill="#334" opacity="0.6"/>
  <circle cx="400" cy="240" r="1.5" fill="#334" opacity="0.6"/>
  <circle cx="400" cy="200" r="1.5" fill="#334" opacity="0.6"/>
  <circle cx="400" cy="160" r="1.5" fill="#334" opacity="0.6"/>
  <circle cx="400" cy="120" r="1.5" fill="#334" opacity="0.6"/>
  <circle cx="400" cy="80" r="1.5" fill="#334" opacity="0.6"/>
  <circle cx="440" cy="720" r="1.5" fill="#334" opacity="0.6"/>
  <circle cx="440" cy="680" r="1.5" fill="#334" opacity="0.6"/>
  <circle cx="440" cy="640" r="1.5" fill="#334" opacity="0.6"/>
  <circle cx="440" cy="600" r="1.5" fill="#334" opacity="0.6"/>
  <circle cx="440" cy="560" r="1.5" fill="#334" opacity="0.6"/>
  <circle cx="440" cy="520" r="1.5" fill="#334" opacity="0.6"/>
  <circle cx="440" cy="480" r="1.5" fill="#334" opacity="0.6"/>
  <circle cx="440" cy="440" r="1.5" fill="#334" opacity="0.6"/>
  <circle cx="440" cy="400" r="1.5" fill="#334" opacity="0.6"/>
  <circle cx="440" cy="360" r="1.5" fill="#334" opacity="0.6"/>
  <circle cx="440" cy="320" r="1.5" fill="#334" opacity="0.6"/>
  <circle cx="440" cy="280" r="1.5" fill="#334" opacity="0.6"/>
  <circle cx="440" cy="240" r="1.5" fill="#334" opacity="0.6"/>
  <circle cx="440" cy="200" r="1.5" fill="#334" opacity="0.6"/>
  <circle cx="440" cy="160" r="1.5" fill="#334" opacity="0.6"/>
  <circle cx="440" cy="120" r="1.5" fill="#334" opacity="0.6"/>
  <circle cx="440" cy="80" r="1.5" fill="#334" opacity="0.6"/>
  <circle cx="480" cy="720" r="1.5" fill="#334" opacity="0.6"/>
  <circle cx="480" cy="680" r="1.5" fill="#334" opacity="0.6"/>
  <circle cx="480" cy="640" r="1.5" fill="#334" opacity="0.6"/>
  <circle cx="480" cy="600" r="1.5" fill="#334" opacity="0.6"/>
  <circle cx="480" cy="560" r="1.5" fill="#334" opacity="0.6"/>
  <circle cx="480" cy="520" r="1.5" fill="#334" opacity="0.6"/>
  <circle cx="480" cy="480" r="1.5" fill="#334" opacity="0.6"/>
  <circle cx="480" cy="440" r="1.5" fill="#334" opacity="0.6"/>
  <circle cx="480" cy="400" r="1.5" fill="#334" opacity="0.6"/>
  <circle cx="480" cy="360" r="1.5" fill="#334" opacity="0.6"/>
  <circle cx="480" cy="320" r="1.5" fill="#334" opacity="0.6"/>
  <circle cx="480" cy="280" r="1.5" fill="#334" opacity="0.6"/>
  <circle cx="480" cy="240" r="1.5" fill="#334" opacity="0.6"/>
  <circle cx="480" cy="200" r="1.5" fill="#334" opacity="0.6"/>
  <circle cx="480" cy="160" r="1.5" fill="#334" opacity="0.6"/>
  <circle cx="480" cy="120" r="1.5" fill="#334" opacity="0.6"/>
  <circle cx="480" cy="80" r="1.5" fill="#334" opacity="0.6"/>
  <circle cx="520" cy="720" r="1.5" fill="#334" opacity="0.6"/>
  <circle cx="520" cy="680" r="1.5" fill="#334" opacity="0.6"/>
  <circle cx="520" cy="640" r="1.5" fill="#334" opacity="0.6"/>
  <circle cx="520" cy="600" r="1.5" fill="#334" opacity="0.6"/>
  <circle cx="520" cy="560" r="1.5" fill="#334" opacity="0.6"/>
  <circle cx="520" cy="520" r="1.5" fill="#334" opacity="0.6"/>
  <circle cx="520" cy="480" r="1.5" fill="#334" opacity="0.6"/>
  <circle cx="520" cy="440" r="1.5" fill="#334" opacity="0.6"/>
  <circle cx="520" cy="400" r="1.5" fill="#334" opacity="0.6"/>
  <circle cx="520" cy="360" r="1.5" fill="#334" opacity="0.6"/>
  <circle cx="520" cy="320" r="1.5" fill="#334" opacity="0.6"/>
  <circle cx="520" cy="280" r="1.5" fill="#334" opacity="0.6"/>
  <circle cx="520" cy="240" r="1.5" fill="#334" opacity="0.6"/>
  <circle cx="520" cy="200" r="1.5" fill="#334" opacity="0.6"/>
  <circle cx="520" cy="160" r="1.5" fill="#334" opacity="0.6"/>
  <circle cx="520" cy="120" r="1.5" fill="#334" opacity="0.6"/>
  <circle cx="520" cy="80" r="1.5" fill="#334" opacity="0.6"/>
  <circle cx="560" cy="720" r="1.5" fill="#334" opacity="0.6"/>
  <circle cx="560" cy="680" r="1.5" fill="#334" opacity="0.6"/>
  <circle cx="560" cy="640" r="1.5" fill="#334" opacity="0.6"/>
  <circle cx="560" cy="600" r="1.5" fill="#334" opacity="0.6"/>
  <circle cx="560" cy="560" r="1.5" fill="#334" opacity="0.6"/>
  <circle cx="560" cy="520" r="1.5" fill="#334" opacity="0.6"/>
  <circle cx="560" cy="480" r="1.5" fill="#334" opacity="0.6"/>
  <circle cx="560" cy="440" r="1.5" fill="#334" opacity="0.6"/>
  <circle cx="560" cy="400" r="1.5" fill="#334" opacity="0.6"/>
  <circle cx="560" cy="360" r="1.5" fill="#334" opacity="0.6"/>
  <circle cx="560" cy="320" r="1.5" fill="#334" opacity="0.6"/>
  <circle cx="560" cy="280" r="1.5" fill="#334" opacity="0.6"/>
  <circle cx="560" cy="240" r="1.5" fill="#334" opacity="0.6"/>
  <circle cx="560" cy="200" r="1.5" fill="#334" opacity="0.6"/>
  <circle cx="560" cy="160" r="1.5" fill="#334" opacity="0.6"/>
  <circle cx="560" cy="120" r="1.5" fill="#334" opacity="0.6"/>
  <circle cx="560" cy="80" r="1.5" fill="#334" opacity="0.6"/>
  <circle cx="600" cy="720" r="1.5" fill="#334" opacity="0.6"/>
  <circle cx="600" cy="680" r="1.5" fill="#334" opacity="0.6"/>
  <circle cx="600" cy="640" r="1.5" fill="#334" opacity="0.6"/>
  <circle cx="600" cy="600" r="1.5" fill="#334" opacity="0.6"/>
  <circle cx="600" cy="560" r="1.5" fill="#334" opacity="0.6"/>
  <circle cx="600" cy="520" r="1.5" fill="#334" opacity="0.6"/>
  <circle cx="600" cy="480" r="1.5" fill="#334" opacity="0.6"/>
  <circle cx="600" cy="440" r="1.5" fill="#334" opacity="0.6"/>
  <circle cx="600" cy="400" r="1.5" fill="#334" opacity="0.6"/>
  <circle cx="600" cy="360" r="1.5" fill="#334" opacity="0.6"/>
  <circle cx="600" cy="320" r="1.5" fill="#334" opacity="0.6"/>
  <circle cx="600" cy="280" r="1.5" fill="#334" opacity="0.6"/>
  <circle cx="600" cy="240" r="1.5" fill="#334" opacity="0.6"/>
  <circle cx="600" cy="200" r="1.5" fill="#334" opacity="0.6"/>
  <circle cx="600" cy="160" r="1.5" fill="#334" opacity="0.6"/>
  <circle cx="600" cy="120" r="1.5" fill="#334" opacity="0.6"/>
  <circle cx="600" cy="80" r="1.5" fill="#334" opacity="0.6"/>
  <circle cx="640" cy="720" r="1.5" fill="#334" opacity="0.6"/>
  <circle cx="640" cy="680" r="1.5" fill="#334" opacity="0.6"/>
  <circle cx="640" cy="640" r="1.5" fill="#334" opacity="0.6"/>
  <circle cx="640" cy="600" r="1.5" fill="#334" opacity="0.6"/>
  <circle cx="640" cy="560" r="1.5" fill="#334" opacity="0.6"/>
  <circle cx="640" cy="520" r="1.5" fill="#334" opacity="0.6"/>
  <circle cx="640" cy="480" r="1.5" fill="#334" opacity="0.6"/>
  <circle cx="640" cy="440" r="1.5" fill="#334" opacity="0.6"/>
  <circle cx="640" cy="400" r="1.5" fill="#334" opacity="0.6"/>
  <circle cx="640" cy="360" r="1.5" fill="#334" opacity="0.6"/>
  <circle cx="640" cy="320" r="1.5" fill="#334" opacity="0.6"/>
  <circle cx="640" cy="280" r="1.5" fill="#334" opacity="0.6"/>
  <circle cx="640" cy="240" r="1.5" fill="#334" opacity="0.6"/>
  <circle cx="640" cy="200" r="1.5" fill="#334" opacity="0.6"/>
  <circle cx="640" cy="160" r="1.5" fill="#334" opacity="0.6"/>
  <circle cx="640" cy="120" r="1.5" fill="#334" opacity="0.6"/>
  <circle cx="640" cy="80" r="1.5" fill="#334" opacity="0.6"/>
  <circle cx="680" cy="720" r="1.5" fill="#334" opacity="0.6"/>
  <circle cx="680" cy="680" r="1.5" fill="#334" opacity="0.6"/>
  <circle cx="680" cy="640" r="1.5" fill="#334" opacity="0.6"/>
  <circle cx="680" cy="600" r="1.5" fill="#334" opacity="0.6"/>
  <circle cx="680" cy="560" r="1.5" fill="#334" opacity="0.6"/>
  <circle cx="680" cy="520" r="1.5" fill="#334" opacity="0.6"/>
  <circle cx="680" cy="480" r="1.5" fill="#334" opacity="0.6"/>
  <circle cx="680" cy="440" r="1.5" fill="#334" opacity="0.6"/>
  <circle cx="680" cy="400" r="1.5" fill="#334" opacity="0.6"/>
  <circle cx="680" cy="360" r="1.5" fill="#334" opacity="0.6"/>
  <circle cx="680" cy="320" r="1.5" fill="#334" opacity="0.6"/>
  <circle cx="680" cy="280" r="1.5" fill="#334" opacity="0.6"/>
  <circle cx="680" cy="240" r="1.5" fill="#334" opacity="0.6"/>
  <circle cx="680" cy="200" r="1.5" fill="#334" opacity="0.6"/>
  <circle cx="680" cy="160" r="1.5" fill="#334" opacity="0.6"/>
  <circle cx="680" cy="120" r="1.5" fill="#334" opacity="0.6"/>
  <circle cx="680" cy="80" r="1.5" fill="#334" opacity="0.6"/>
  <circle cx="720" cy="720" r="1.5" fill="#334" opacity="0.6"/>
  <circle cx="720" cy="680" r="1.5" fill="#334" opacity="0.6"/>
  <circle cx="720" cy="640" r="1.5" fill="#334" opacity="0.6"/>
  <circle cx="720" cy="600" r="1.5" fill="#334" opacity="0.6"/>
  <circle cx="720" cy="560" r="1.5" fill="#334" opacity="0.6"/>
  <circle cx="720" cy="520" r="1.5" fill="#334" opacity="0.6"/>
  <circle cx="720" cy="480" r="1.5" fill="#334" opacity="0.6"/>
  <circle cx="720" cy="440" r="1.5" fill="#334" opacity="0.6"/>
  <circle cx="720" cy="400" r="1.5" fill="#334" opacity="0.6"/>
  <circle cx="720" cy="360" r="1.5" fill="#334" opacity="0.6"/>
  <circle cx="720" cy="320" r="1.5" fill="#334" opacity="0.6"/>
  <circle cx="720" cy="280" r="1.5" fill="#334" opacity="0.6"/>
  <circle cx="720" cy="240" r="1.5" fill="#334" opacity="0.6"/>
  <circle cx="720" cy="200" r="1.5" fill="#334" opacity="0.6"/>
  <circle cx="720" cy="160" r="1.5" fill="#334" opacity="0.6"/>
  <circle cx="720" cy="120" r="1.5" fill="#334" opacity="0.6"/>
  <circle cx="720" cy="80" r="1.5" fill="#334" opacity="0.6"/>
  <!-- Photon paths -->
  <line x1="400" y1="400" x2="440" y2="400" stroke="#ff4444" stroke-width="2.5" opacity="0.8"/>
  <line x1="440" y1="400" x2="480" y2="400" stroke="#ff4444" stroke-width="2.5" opacity="0.8"/>
  <line x1="480" y1="400" x2="520" y2="400" stroke="#ff4444" stroke-width="2.5" opacity="0.8"/>
  <line x1="520" y1="400" x2="560" y2="400" stroke="#ff4444" stroke-width="2.5" opacity="0.8"/>
  <line x1="560" y1="400" x2="600" y2="400" stroke="#ff4444" stroke-width="2.5" opacity="0.8"/>
  <line x1="600" y1="400" x2="640" y2="400" stroke="#ff4444" stroke-width="2.5" opacity="0.8"/>
  <line x1="640" y1="400" x2="680" y2="400" stroke="#ff4444" stroke-width="2.5" opacity="0.8"/>
  <line x1="680" y1="400" x2="720" y2="400" stroke="#ff4444" stroke-width="2.5" opacity="0.8"/>
  <circle cx="400" cy="400" r="4" fill="#ff4444" opacity="0.9"/>
  <circle cx="440" cy="400" r="4" fill="#ff4444" opacity="0.9"/>
  <circle cx="480" cy="400" r="4" fill="#ff4444" opacity="0.9"/>
  <circle cx="520" cy="400" r="4" fill="#ff4444" opacity="0.9"/>
  <circle cx="560" cy="400" r="4" fill="#ff4444" opacity="0.9"/>
  <circle cx="600" cy="400" r="4" fill="#ff4444" opacity="0.9"/>
  <circle cx="640" cy="400" r="4" fill="#ff4444" opacity="0.9"/>
  <circle cx="680" cy="400" r="4" fill="#ff4444" opacity="0.9"/>
  <circle cx="720" cy="400" r="4" fill="#ff4444" opacity="0.9"/>
  <line x1="400" y1="400" x2="784.0" y2="400.0" stroke="#ff4444" stroke-width="0.8" opacity="0.3" stroke-dasharray="4,4"/>
  <text x="794.0" y="400.0" fill="#ff4444" font-size="10" font-family="sans-serif">0° (along axis)</text>
  <line x1="400" y1="400" x2="560" y2="280" stroke="#44ff44" stroke-width="2.5" opacity="0.8"/>
  <line x1="560" y1="280" x2="720" y2="160" stroke="#44ff44" stroke-width="2.5" opacity="0.8"/>
  <line x1="720" y1="160" x2="880" y2="40" stroke="#44ff44" stroke-width="2.5" opacity="0.8"/>
  <line x1="880" y1="40" x2="1040" y2="-80" stroke="#44ff44" stroke-width="2.5" opacity="0.8"/>
  <line x1="1040" y1="-80" x2="1200" y2="-200" stroke="#44ff44" stroke-width="2.5" opacity="0.8"/>
  <line x1="1200" y1="-200" x2="1360" y2="-320" stroke="#44ff44" stroke-width="2.5" opacity="0.8"/>
  <line x1="1360" y1="-320" x2="1520" y2="-440" stroke="#44ff44" stroke-width="2.5" opacity="0.8"/>
  <line x1="1520" y1="-440" x2="1680" y2="-560" stroke="#44ff44" stroke-width="2.5" opacity="0.8"/>
  <circle cx="400" cy="400" r="4" fill="#44ff44" opacity="0.9"/>
  <circle cx="560" cy="280" r="4" fill="#44ff44" opacity="0.9"/>
  <circle cx="720" cy="160" r="4" fill="#44ff44" opacity="0.9"/>
  <circle cx="880" cy="40" r="4" fill="#44ff44" opacity="0.9"/>
  <circle cx="1040" cy="-80" r="4" fill="#44ff44" opacity="0.9"/>
  <circle cx="1200" cy="-200" r="4" fill="#44ff44" opacity="0.9"/>
  <circle cx="1360" cy="-320" r="4" fill="#44ff44" opacity="0.9"/>
  <circle cx="1520" cy="-440" r="4" fill="#44ff44" opacity="0.9"/>
  <circle cx="1680" cy="-560" r="4" fill="#44ff44" opacity="0.9"/>
  <line x1="400" y1="400" x2="707.2" y2="169.60000000000002" stroke="#44ff44" stroke-width="0.8" opacity="0.3" stroke-dasharray="4,4"/>
  <text x="715.2" y="163.60000000000002" fill="#44ff44" font-size="10" font-family="sans-serif">36.87° (3-4-5)</text>
  <line x1="400" y1="400" x2="520" y2="240" stroke="#4488ff" stroke-width="2.5" opacity="0.8"/>
  <line x1="520" y1="240" x2="640" y2="80" stroke="#4488ff" stroke-width="2.5" opacity="0.8"/>
  <line x1="640" y1="80" x2="760" y2="-80" stroke="#4488ff" stroke-width="2.5" opacity="0.8"/>
  <line x1="760" y1="-80" x2="880" y2="-240" stroke="#4488ff" stroke-width="2.5" opacity="0.8"/>
  <line x1="880" y1="-240" x2="1000" y2="-400" stroke="#4488ff" stroke-width="2.5" opacity="0.8"/>
  <line x1="1000" y1="-400" x2="1120" y2="-560" stroke="#4488ff" stroke-width="2.5" opacity="0.8"/>
  <line x1="1120" y1="-560" x2="1240" y2="-720" stroke="#4488ff" stroke-width="2.5" opacity="0.8"/>
  <line x1="1240" y1="-720" x2="1360" y2="-880" stroke="#4488ff" stroke-width="2.5" opacity="0.8"/>
  <circle cx="400" cy="400" r="4" fill="#4488ff" opacity="0.9"/>
  <circle cx="520" cy="240" r="4" fill="#4488ff" opacity="0.9"/>
  <circle cx="640" cy="80" r="4" fill="#4488ff" opacity="0.9"/>
  <circle cx="760" cy="-80" r="4" fill="#4488ff" opacity="0.9"/>
  <circle cx="880" cy="-240" r="4" fill="#4488ff" opacity="0.9"/>
  <circle cx="1000" cy="-400" r="4" fill="#4488ff" opacity="0.9"/>
  <circle cx="1120" cy="-560" r="4" fill="#4488ff" opacity="0.9"/>
  <circle cx="1240" cy="-720" r="4" fill="#4488ff" opacity="0.9"/>
  <circle cx="1360" cy="-880" r="4" fill="#4488ff" opacity="0.9"/>
  <line x1="400" y1="400" x2="671.5290039756342" y2="128.47099602436577" stroke="#4488ff" stroke-width="0.8" opacity="0.3" stroke-dasharray="4,4"/>
  <text x="678.6000717874997" y="121.3999282125003" fill="#4488ff" font-size="10" font-family="sans-serif">45° (diagonal)</text>
  <line x1="400" y1="400" x2="520" y2="240" stroke="#ff44ff" stroke-width="2.5" opacity="0.8"/>
  <line x1="520" y1="240" x2="640" y2="80" stroke="#ff44ff" stroke-width="2.5" opacity="0.8"/>
  <line x1="640" y1="80" x2="760" y2="-80" stroke="#ff44ff" stroke-width="2.5" opacity="0.8"/>
  <line x1="760" y1="-80" x2="880" y2="-240" stroke="#ff44ff" stroke-width="2.5" opacity="0.8"/>
  <line x1="880" y1="-240" x2="1000" y2="-400" stroke="#ff44ff" stroke-width="2.5" opacity="0.8"/>
  <line x1="1000" y1="-400" x2="1120" y2="-560" stroke="#ff44ff" stroke-width="2.5" opacity="0.8"/>
  <line x1="1120" y1="-560" x2="1240" y2="-720" stroke="#ff44ff" stroke-width="2.5" opacity="0.8"/>
  <line x1="1240" y1="-720" x2="1360" y2="-880" stroke="#ff44ff" stroke-width="2.5" opacity="0.8"/>
  <circle cx="400" cy="400" r="4" fill="#ff44ff" opacity="0.9"/>
  <circle cx="520" cy="240" r="4" fill="#ff44ff" opacity="0.9"/>
  <circle cx="640" cy="80" r="4" fill="#ff44ff" opacity="0.9"/>
  <circle cx="760" cy="-80" r="4" fill="#ff44ff" opacity="0.9"/>
  <circle cx="880" cy="-240" r="4" fill="#ff44ff" opacity="0.9"/>
  <circle cx="1000" cy="-400" r="4" fill="#ff44ff" opacity="0.9"/>
  <circle cx="1120" cy="-560" r="4" fill="#ff44ff" opacity="0.9"/>
  <circle cx="1240" cy="-720" r="4" fill="#ff44ff" opacity="0.9"/>
  <circle cx="1360" cy="-880" r="4" fill="#ff44ff" opacity="0.9"/>
  <line x1="400" y1="400" x2="630.4000000000001" y2="92.80000000000007" stroke="#ff44ff" stroke-width="0.8" opacity="0.3" stroke-dasharray="4,4"/>
  <text x="636.4000000000001" y="84.80000000000001" fill="#ff44ff" font-size="10" font-family="sans-serif">53.13° (4-3-5)</text>
  <line x1="400" y1="400" x2="400" y2="360" stroke="#ffaa00" stroke-width="2.5" opacity="0.8"/>
  <line x1="400" y1="360" x2="400" y2="320" stroke="#ffaa00" stroke-width="2.5" opacity="0.8"/>
  <line x1="400" y1="320" x2="400" y2="280" stroke="#ffaa00" stroke-width="2.5" opacity="0.8"/>
  <line x1="400" y1="280" x2="400" y2="240" stroke="#ffaa00" stroke-width="2.5" opacity="0.8"/>
  <line x1="400" y1="240" x2="400" y2="200" stroke="#ffaa00" stroke-width="2.5" opacity="0.8"/>
  <line x1="400" y1="200" x2="400" y2="160" stroke="#ffaa00" stroke-width="2.5" opacity="0.8"/>
  <line x1="400" y1="160" x2="400" y2="120" stroke="#ffaa00" stroke-width="2.5" opacity="0.8"/>
  <line x1="400" y1="120" x2="400" y2="80" stroke="#ffaa00" stroke-width="2.5" opacity="0.8"/>
  <circle cx="400" cy="400" r="4" fill="#ffaa00" opacity="0.9"/>
  <circle cx="400" cy="360" r="4" fill="#ffaa00" opacity="0.9"/>
  <circle cx="400" cy="320" r="4" fill="#ffaa00" opacity="0.9"/>
  <circle cx="400" cy="280" r="4" fill="#ffaa00" opacity="0.9"/>
  <circle cx="400" cy="240" r="4" fill="#ffaa00" opacity="0.9"/>
  <circle cx="400" cy="200" r="4" fill="#ffaa00" opacity="0.9"/>
  <circle cx="400" cy="160" r="4" fill="#ffaa00" opacity="0.9"/>
  <circle cx="400" cy="120" r="4" fill="#ffaa00" opacity="0.9"/>
  <circle cx="400" cy="80" r="4" fill="#ffaa00" opacity="0.9"/>
  <line x1="400" y1="400" x2="400.0" y2="16.0" stroke="#ffaa00" stroke-width="0.8" opacity="0.3" stroke-dasharray="4,4"/>
  <text x="400.0" y="6.0" fill="#ffaa00" font-size="10" font-family="sans-serif">90° (along axis)</text>
  <circle cx="400" cy="400" r="20" fill="url(#glow)"/>
  <circle cx="400" cy="400" r="5" fill="#ffdd44"/>
  <text x="400" y="30" text-anchor="middle" fill="white" font-size="16" font-family="sans-serif">Light Propagation on Pythagorean Lattice</text>
  <text x="400" y="50" text-anchor="middle" fill="#888" font-size="11" font-family="sans-serif">Photons hop between lattice points at integer distances only</text>
  <text x="620" y="720" fill="#888" font-size="10" font-family="sans-serif">Solid: lattice path</text>
  <text x="620" y="735" fill="#888" font-size="10" font-family="sans-serif">Dashed: continuous reference</text>
  <text x="620" y="750" fill="#888" font-size="10" font-family="sans-serif">Dot: lattice hop point</text>
</svg>