<svg xmlns="http://www.w3.org/2000/svg" viewBox="0 0 900 550" font-family="'Segoe UI', Arial, sans-serif">
  <defs>
    <linearGradient id="bg2" x1="0" y1="0" x2="0" y2="1">
      <stop offset="0%" stop-color="#0d0d30"/>
      <stop offset="100%" stop-color="#1a0a3e"/>
    </linearGradient>
    <linearGradient id="bar_t" x1="0" y1="0" x2="1" y2="0">
      <stop offset="0%" stop-color="#ff6b6b"/>
      <stop offset="100%" stop-color="#ee5a24"/>
    </linearGradient>
    <linearGradient id="bar_v" x1="0" y1="0" x2="1" y2="0">
      <stop offset="0%" stop-color="#a29bfe"/>
      <stop offset="100%" stop-color="#6c5ce7"/>
    </linearGradient>
    <linearGradient id="bar_3" x1="0" y1="0" x2="1" y2="0">
      <stop offset="0%" stop-color="#55efc4"/>
      <stop offset="100%" stop-color="#00b894"/>
    </linearGradient>
  </defs>

  <rect width="900" height="550" fill="url(#bg2)"/>

  <!-- Title -->
  <text x="450" y="35" text-anchor="middle" fill="#a29bfe" font-size="20" font-weight="bold">
    Gate Set Comparison: Non-Clifford Gate Count
  </text>
  <text x="450" y="55" text-anchor="middle" fill="#8888cc" font-size="12">
    log_p(d) gates needed for precision ε ≈ 1/√d — smaller p = more gates
  </text>

  <!-- Legend -->
  <rect x="200" y="70" width="20" height="14" rx="3" fill="url(#bar_t)"/>
  <text x="225" y="82" fill="#ff9999" font-size="12">Clifford+T (p=2): log₂(d)</text>

  <rect x="430" y="70" width="20" height="14" rx="3" fill="url(#bar_3)"/>
  <text x="455" y="82" fill="#55efc4" font-size="12">Clifford+W (p=3): log₃(d)</text>

  <rect x="660" y="70" width="20" height="14" rx="3" fill="url(#bar_v)"/>
  <text x="685" y="82" fill="#c4b5fd" font-size="12">Clifford+V (p=5): log₅(d)</text>

  <!-- Chart area -->
  <line x1="100" y1="100" x2="100" y2="430" stroke="#444" stroke-width="1"/>
  <line x1="100" y1="430" x2="850" y2="430" stroke="#444" stroke-width="1"/>

  <!-- Y axis label -->
  <text x="30" y="265" text-anchor="middle" fill="#888" font-size="12" transform="rotate(-90 30 265)">
    Non-Clifford Gate Count
  </text>

  <!-- X axis label -->
  <text x="475" y="460" text-anchor="middle" fill="#888" font-size="12">
    Precision Level d = 2^k
  </text>

  <!-- Y axis ticks -->
  <text x="90" y="434" text-anchor="end" fill="#888" font-size="10">0</text>
  <text x="90" y="368" text-anchor="end" fill="#888" font-size="10">5</text>
  <line x1="95" y1="365" x2="850" y2="365" stroke="#333" stroke-width="0.5"/>
  <text x="90" y="302" text-anchor="end" fill="#888" font-size="10">10</text>
  <line x1="95" y1="299" x2="850" y2="299" stroke="#333" stroke-width="0.5"/>
  <text x="90" y="236" text-anchor="end" fill="#888" font-size="10">15</text>
  <line x1="95" y1="233" x2="850" y2="233" stroke="#333" stroke-width="0.5"/>
  <text x="90" y="170" text-anchor="end" fill="#888" font-size="10">20</text>
  <line x1="95" y1="167" x2="850" y2="167" stroke="#333" stroke-width="0.5"/>
  <text x="90" y="104" text-anchor="end" fill="#888" font-size="10">25</text>
  <line x1="95" y1="101" x2="850" y2="101" stroke="#333" stroke-width="0.5"/>

  <!-- Data: d = 2^k for k = 2,4,6,8,10,12,14,16,18,20 -->
  <!-- Scale: 1 unit = 13.2px, base at y=430 -->

  <!-- k=2: log2=2, log3=1.26, log5=0.86 -->
  <g transform="translate(145,0)">
    <rect x="0" y="404" width="18" height="26" rx="2" fill="url(#bar_t)" opacity="0.9"/>
    <rect x="22" y="413" width="18" height="17" rx="2" fill="url(#bar_3)" opacity="0.9"/>
    <rect x="44" y="419" width="18" height="11" rx="2" fill="url(#bar_v)" opacity="0.9"/>
    <text x="30" y="448" text-anchor="middle" fill="#888" font-size="9">2²</text>
  </g>

  <!-- k=4: log2=4, log3=2.52, log5=1.72 -->
  <g transform="translate(220,0)">
    <rect x="0" y="378" width="18" height="52" rx="2" fill="url(#bar_t)" opacity="0.9"/>
    <rect x="22" y="397" width="18" height="33" rx="2" fill="url(#bar_3)" opacity="0.9"/>
    <rect x="44" y="407" width="18" height="23" rx="2" fill="url(#bar_v)" opacity="0.9"/>
    <text x="30" y="448" text-anchor="middle" fill="#888" font-size="9">2⁴</text>
  </g>

  <!-- k=6: log2=6, log3=3.79, log5=2.58 -->
  <g transform="translate(295,0)">
    <rect x="0" y="351" width="18" height="79" rx="2" fill="url(#bar_t)" opacity="0.9"/>
    <rect x="22" y="380" width="18" height="50" rx="2" fill="url(#bar_3)" opacity="0.9"/>
    <rect x="44" y="396" width="18" height="34" rx="2" fill="url(#bar_v)" opacity="0.9"/>
    <text x="30" y="448" text-anchor="middle" fill="#888" font-size="9">2⁶</text>
  </g>

  <!-- k=8: log2=8, log3=5.05, log5=3.45 -->
  <g transform="translate(370,0)">
    <rect x="0" y="325" width="18" height="105" rx="2" fill="url(#bar_t)" opacity="0.9"/>
    <rect x="22" y="364" width="18" height="66" rx="2" fill="url(#bar_3)" opacity="0.9"/>
    <rect x="44" y="385" width="18" height="45" rx="2" fill="url(#bar_v)" opacity="0.9"/>
    <text x="30" y="448" text-anchor="middle" fill="#888" font-size="9">2⁸</text>
  </g>

  <!-- k=10: log2=10, log3=6.31, log5=4.31 -->
  <g transform="translate(445,0)">
    <rect x="0" y="299" width="18" height="131" rx="2" fill="url(#bar_t)" opacity="0.9"/>
    <rect x="22" y="347" width="18" height="83" rx="2" fill="url(#bar_3)" opacity="0.9"/>
    <rect x="44" y="374" width="18" height="56" rx="2" fill="url(#bar_v)" opacity="0.9"/>
    <text x="30" y="448" text-anchor="middle" fill="#888" font-size="9">2¹⁰</text>
  </g>

  <!-- k=14: log2=14, log3=8.84, log5=6.03 -->
  <g transform="translate(520,0)">
    <rect x="0" y="246" width="18" height="184" rx="2" fill="url(#bar_t)" opacity="0.9"/>
    <rect x="22" y="314" width="18" height="116" rx="2" fill="url(#bar_3)" opacity="0.9"/>
    <rect x="44" y="351" width="18" height="79" rx="2" fill="url(#bar_v)" opacity="0.9"/>
    <text x="30" y="448" text-anchor="middle" fill="#888" font-size="9">2¹⁴</text>
  </g>

  <!-- k=18: log2=18, log3=11.36, log5=7.75 -->
  <g transform="translate(595,0)">
    <rect x="0" y="193" width="18" height="237" rx="2" fill="url(#bar_t)" opacity="0.9"/>
    <rect x="22" y="281" width="18" height="149" rx="2" fill="url(#bar_3)" opacity="0.9"/>
    <rect x="44" y="328" width="18" height="102" rx="2" fill="url(#bar_v)" opacity="0.9"/>
    <text x="30" y="448" text-anchor="middle" fill="#888" font-size="9">2¹⁸</text>
  </g>

  <!-- k=20: log2=20, log3=12.62, log5=8.61 -->
  <g transform="translate(670,0)">
    <rect x="0" y="167" width="18" height="263" rx="2" fill="url(#bar_t)" opacity="0.9"/>
    <rect x="22" y="264" width="18" height="166" rx="2" fill="url(#bar_3)" opacity="0.9"/>
    <rect x="44" y="317" width="18" height="113" rx="2" fill="url(#bar_v)" opacity="0.9"/>
    <text x="30" y="448" text-anchor="middle" fill="#888" font-size="9">2²⁰</text>
  </g>

  <!-- k=24: log2=24, log3=15.14, log5=10.34 -->
  <g transform="translate(745,0)">
    <rect x="0" y="114" width="18" height="316" rx="2" fill="url(#bar_t)" opacity="0.9"/>
    <rect x="22" y="231" width="18" height="199" rx="2" fill="url(#bar_3)" opacity="0.9"/>
    <rect x="44" y="294" width="18" height="136" rx="2" fill="url(#bar_v)" opacity="0.9"/>
    <text x="30" y="448" text-anchor="middle" fill="#888" font-size="9">2²⁴</text>
  </g>

  <!-- Annotation: savings -->
  <rect x="570" y="475" width="310" height="65" rx="8" fill="#1a0a3e" stroke="#6c5ce7" stroke-width="1"/>
  <text x="725" y="495" text-anchor="middle" fill="#c4b5fd" font-size="13" font-weight="bold">
    Gate Count Ratios (proven in Lean 4)
  </text>
  <text x="580" y="515" fill="#55efc4" font-size="11">log₃/log₂ = 0.631 → 36.9% fewer gates</text>
  <text x="580" y="532" fill="#c4b5fd" font-size="11">log₅/log₂ = 0.431 → 56.9% fewer gates</text>

  <!-- Bottom -->
  <text x="450" y="545" text-anchor="middle" fill="#555" font-size="9">
    Theorem: ∀ d, Nat.log 5 d ≤ Nat.log 2 d (cliffordV_fewer_layers)
  </text>
</svg>
