<?xml version="1.0" encoding="UTF-8"?>
<svg xmlns="http://www.w3.org/2000/svg" viewBox="0 0 600 600" 
     width="600" height="600">
  <defs>
    <style>
      text { font-family: 'Georgia', 'Times New Roman', serif; }
      .title { font-size: 18px; font-weight: bold; fill: #1a1a2e; }
      .subtitle { font-size: 13px; fill: #444; }
      .label { font-size: 12px; fill: #333; }
      .small { font-size: 10px; fill: #666; }
      .math { font-family: 'Times New Roman', serif; font-style: italic; }
      .axis { stroke: #333; stroke-width: 1.5; fill: none; }
      .grid { stroke: #ddd; stroke-width: 0.5; fill: none; }
      .highlight { fill: #e94560; }
      .accent1 { fill: #0f3460; }
      .accent2 { fill: #16213e; }
      .accent3 { fill: #533483; }
    </style>
    <marker id="arrowhead" markerWidth="10" markerHeight="7" refX="10" refY="3.5" orient="auto">
      <polygon points="0 0, 10 3.5, 0 7" fill="#333" />
    </marker>
  </defs>
  <!-- Lattice L₃(N) Visualization -->
  <rect width="600" height="600" fill="#fafbfc" rx="10"/>
  <text x="300" y="30" text-anchor="middle" class="title">Lattice L₃(N=15) Short Vectors</text>
  <text x="300" y="50" text-anchor="middle" class="subtitle">Projection to (x,y) plane · Color = z value</text>
  <line x1="50" y1="70" x2="50" y2="570" class="grid"/>
  <line x1="50" y1="70" x2="550" y2="70" class="grid"/>
  <line x1="75" y1="70" x2="75" y2="570" class="grid"/>
  <line x1="50" y1="95" x2="550" y2="95" class="grid"/>
  <line x1="100" y1="70" x2="100" y2="570" class="grid"/>
  <line x1="50" y1="120" x2="550" y2="120" class="grid"/>
  <line x1="125" y1="70" x2="125" y2="570" class="grid"/>
  <line x1="50" y1="145" x2="550" y2="145" class="grid"/>
  <line x1="150" y1="70" x2="150" y2="570" class="grid"/>
  <line x1="50" y1="170" x2="550" y2="170" class="grid"/>
  <line x1="175" y1="70" x2="175" y2="570" class="grid"/>
  <line x1="50" y1="195" x2="550" y2="195" class="grid"/>
  <line x1="200" y1="70" x2="200" y2="570" class="grid"/>
  <line x1="50" y1="220" x2="550" y2="220" class="grid"/>
  <line x1="225" y1="70" x2="225" y2="570" class="grid"/>
  <line x1="50" y1="245" x2="550" y2="245" class="grid"/>
  <line x1="250" y1="70" x2="250" y2="570" class="grid"/>
  <line x1="50" y1="270" x2="550" y2="270" class="grid"/>
  <line x1="275" y1="70" x2="275" y2="570" class="grid"/>
  <line x1="50" y1="295" x2="550" y2="295" class="grid"/>
  <line x1="300" y1="70" x2="300" y2="570" class="grid"/>
  <line x1="50" y1="320" x2="550" y2="320" class="grid"/>
  <line x1="325" y1="70" x2="325" y2="570" class="grid"/>
  <line x1="50" y1="345" x2="550" y2="345" class="grid"/>
  <line x1="350" y1="70" x2="350" y2="570" class="grid"/>
  <line x1="50" y1="370" x2="550" y2="370" class="grid"/>
  <line x1="375" y1="70" x2="375" y2="570" class="grid"/>
  <line x1="50" y1="395" x2="550" y2="395" class="grid"/>
  <line x1="400" y1="70" x2="400" y2="570" class="grid"/>
  <line x1="50" y1="420" x2="550" y2="420" class="grid"/>
  <line x1="425" y1="70" x2="425" y2="570" class="grid"/>
  <line x1="50" y1="445" x2="550" y2="445" class="grid"/>
  <line x1="450" y1="70" x2="450" y2="570" class="grid"/>
  <line x1="50" y1="470" x2="550" y2="470" class="grid"/>
  <line x1="475" y1="70" x2="475" y2="570" class="grid"/>
  <line x1="50" y1="495" x2="550" y2="495" class="grid"/>
  <line x1="500" y1="70" x2="500" y2="570" class="grid"/>
  <line x1="50" y1="520" x2="550" y2="520" class="grid"/>
  <line x1="525" y1="70" x2="525" y2="570" class="grid"/>
  <line x1="50" y1="545" x2="550" y2="545" class="grid"/>
  <line x1="550" y1="70" x2="550" y2="570" class="grid"/>
  <line x1="50" y1="570" x2="550" y2="570" class="grid"/>
  <line x1="50" y1="320" x2="550" y2="320" class="axis" marker-end="url(#arrowhead)"/>
  <line x1="300" y1="570" x2="300" y2="70" class="axis" marker-end="url(#arrowhead)"/>
  <text x="555" y="315" class="label">x</text>
  <text x="308" y="75" class="label">y</text>
  <circle cx="100" cy="445" r="3" fill="#1a237e" opacity="0.5"/>
  <circle cx="100" cy="445" r="3" fill="#3949ab" opacity="0.5"/>
  <circle cx="100" cy="445" r="3" fill="#43a047" opacity="0.5"/>
  <circle cx="100" cy="445" r="3" fill="#1b5e20" opacity="0.5"/>
  <circle cx="100" cy="420" r="3" fill="#1a237e" opacity="0.5"/>
  <circle cx="100" cy="420" r="3" fill="#1b5e20" opacity="0.5"/>
  <circle cx="100" cy="345" r="3" fill="#1a237e" opacity="0.5"/>
  <circle cx="100" cy="345" r="3" fill="#1b5e20" opacity="0.5"/>
  <circle cx="100" cy="295" r="3" fill="#1a237e" opacity="0.5"/>
  <circle cx="100" cy="295" r="3" fill="#1b5e20" opacity="0.5"/>
  <circle cx="100" cy="220" r="3" fill="#1a237e" opacity="0.5"/>
  <circle cx="100" cy="220" r="3" fill="#1b5e20" opacity="0.5"/>
  <circle cx="100" cy="195" r="3" fill="#1a237e" opacity="0.5"/>
  <circle cx="100" cy="195" r="3" fill="#3949ab" opacity="0.5"/>
  <circle cx="100" cy="195" r="3" fill="#43a047" opacity="0.5"/>
  <circle cx="100" cy="195" r="3" fill="#1b5e20" opacity="0.5"/>
  <circle cx="125" cy="445" r="3" fill="#1a237e" opacity="0.5"/>
  <circle cx="125" cy="445" r="3" fill="#3949ab" opacity="0.5"/>
  <circle cx="125" cy="445" r="3" fill="#43a047" opacity="0.5"/>
  <circle cx="125" cy="445" r="3" fill="#1b5e20" opacity="0.5"/>
  <circle cx="125" cy="420" r="3" fill="#1a237e" opacity="0.5"/>
  <circle cx="125" cy="420" r="3" fill="#1b5e20" opacity="0.5"/>
  <circle cx="125" cy="345" r="3" fill="#1a237e" opacity="0.5"/>
  <circle cx="125" cy="345" r="3" fill="#1b5e20" opacity="0.5"/>
  <circle cx="125" cy="295" r="3" fill="#1a237e" opacity="0.5"/>
  <circle cx="125" cy="295" r="3" fill="#1b5e20" opacity="0.5"/>
  <circle cx="125" cy="220" r="3" fill="#1a237e" opacity="0.5"/>
  <circle cx="125" cy="220" r="3" fill="#1b5e20" opacity="0.5"/>
  <circle cx="125" cy="195" r="3" fill="#1a237e" opacity="0.5"/>
  <circle cx="125" cy="195" r="3" fill="#3949ab" opacity="0.5"/>
  <circle cx="125" cy="195" r="3" fill="#43a047" opacity="0.5"/>
  <circle cx="125" cy="195" r="3" fill="#1b5e20" opacity="0.5"/>
  <circle cx="150" cy="395" r="4" fill="#e53935" opacity="0.9"/>
  <circle cx="150" cy="320" r="3" fill="#1a237e" opacity="0.5"/>
  <circle cx="150" cy="320" r="3" fill="#1b5e20" opacity="0.5"/>
  <circle cx="150" cy="245" r="4" fill="#e53935" opacity="0.9"/>
  <circle cx="175" cy="520" r="3" fill="#1a237e" opacity="0.5"/>
  <circle cx="175" cy="520" r="3" fill="#3949ab" opacity="0.5"/>
  <circle cx="175" cy="520" r="3" fill="#43a047" opacity="0.5"/>
  <circle cx="175" cy="520" r="3" fill="#1b5e20" opacity="0.5"/>
  <circle cx="175" cy="495" r="3" fill="#1a237e" opacity="0.5"/>
  <circle cx="175" cy="495" r="3" fill="#3949ab" opacity="0.5"/>
  <circle cx="175" cy="495" r="3" fill="#43a047" opacity="0.5"/>
  <circle cx="175" cy="495" r="3" fill="#1b5e20" opacity="0.5"/>
  <circle cx="175" cy="445" r="3" fill="#1a237e" opacity="0.5"/>
  <circle cx="175" cy="445" r="3" fill="#1b5e20" opacity="0.5"/>
  <circle cx="175" cy="420" r="3" fill="#1a237e" opacity="0.5"/>
  <circle cx="175" cy="420" r="3" fill="#1a237e" opacity="0.5"/>
  <circle cx="175" cy="420" r="3" fill="#283593" opacity="0.5"/>
  <circle cx="175" cy="420" r="3" fill="#2e7d32" opacity="0.5"/>
  <circle cx="175" cy="420" r="3" fill="#1b5e20" opacity="0.5"/>
  <circle cx="175" cy="420" r="3" fill="#1b5e20" opacity="0.5"/>
  <circle cx="175" cy="370" r="3" fill="#1a237e" opacity="0.5"/>
  <circle cx="175" cy="370" r="3" fill="#3949ab" opacity="0.5"/>
  <circle cx="175" cy="370" r="3" fill="#43a047" opacity="0.5"/>
  <circle cx="175" cy="370" r="3" fill="#1b5e20" opacity="0.5"/>
  <circle cx="175" cy="345" r="3" fill="#1a237e" opacity="0.5"/>
  <circle cx="175" cy="345" r="3" fill="#1a237e" opacity="0.5"/>
  <circle cx="175" cy="345" r="3" fill="#283593" opacity="0.5"/>
  <circle cx="175" cy="345" r="3" fill="#2e7d32" opacity="0.5"/>
  <circle cx="175" cy="345" r="3" fill="#1b5e20" opacity="0.5"/>
  <circle cx="175" cy="345" r="3" fill="#1b5e20" opacity="0.5"/>
  <circle cx="175" cy="295" r="3" fill="#1a237e" opacity="0.5"/>
  <circle cx="175" cy="295" r="3" fill="#1a237e" opacity="0.5"/>
  <circle cx="175" cy="295" r="3" fill="#283593" opacity="0.5"/>
  <circle cx="175" cy="295" r="3" fill="#2e7d32" opacity="0.5"/>
  <circle cx="175" cy="295" r="3" fill="#1b5e20" opacity="0.5"/>
  <circle cx="175" cy="295" r="3" fill="#1b5e20" opacity="0.5"/>
  <circle cx="175" cy="270" r="3" fill="#1a237e" opacity="0.5"/>
  <circle cx="175" cy="270" r="3" fill="#3949ab" opacity="0.5"/>
  <circle cx="175" cy="270" r="3" fill="#43a047" opacity="0.5"/>
  <circle cx="175" cy="270" r="3" fill="#1b5e20" opacity="0.5"/>
  <circle cx="175" cy="220" r="3" fill="#1a237e" opacity="0.5"/>
  <circle cx="175" cy="220" r="3" fill="#1a237e" opacity="0.5"/>
  <circle cx="175" cy="220" r="3" fill="#283593" opacity="0.5"/>
  <circle cx="175" cy="220" r="3" fill="#2e7d32" opacity="0.5"/>
  <circle cx="175" cy="220" r="3" fill="#1b5e20" opacity="0.5"/>
  <circle cx="175" cy="220" r="3" fill="#1b5e20" opacity="0.5"/>
  <circle cx="175" cy="195" r="3" fill="#1a237e" opacity="0.5"/>
  <circle cx="175" cy="195" r="3" fill="#1b5e20" opacity="0.5"/>
  <circle cx="175" cy="145" r="3" fill="#1a237e" opacity="0.5"/>
  <circle cx="175" cy="145" r="3" fill="#3949ab" opacity="0.5"/>
  <circle cx="175" cy="145" r="3" fill="#43a047" opacity="0.5"/>
  <circle cx="175" cy="145" r="3" fill="#1b5e20" opacity="0.5"/>
  <circle cx="175" cy="120" r="3" fill="#1a237e" opacity="0.5"/>
  <circle cx="175" cy="120" r="3" fill="#3949ab" opacity="0.5"/>
  <circle cx="175" cy="120" r="3" fill="#43a047" opacity="0.5"/>
  <circle cx="175" cy="120" r="3" fill="#1b5e20" opacity="0.5"/>
  <circle cx="200" cy="520" r="3" fill="#1a237e" opacity="0.5"/>
  <circle cx="200" cy="520" r="3" fill="#1b5e20" opacity="0.5"/>
  <circle cx="200" cy="495" r="3" fill="#1a237e" opacity="0.5"/>
  <circle cx="200" cy="495" r="3" fill="#1b5e20" opacity="0.5"/>
  <circle cx="200" cy="445" r="3" fill="#1a237e" opacity="0.5"/>
  <circle cx="200" cy="445" r="3" fill="#1a237e" opacity="0.5"/>
  <circle cx="200" cy="445" r="3" fill="#283593" opacity="0.5"/>
  <circle cx="200" cy="445" r="3" fill="#2e7d32" opacity="0.5"/>
  <circle cx="200" cy="445" r="3" fill="#1b5e20" opacity="0.5"/>
  <circle cx="200" cy="445" r="3" fill="#1b5e20" opacity="0.5"/>
  <circle cx="200" cy="370" r="3" fill="#1a237e" opacity="0.5"/>
  <circle cx="200" cy="370" r="3" fill="#1b5e20" opacity="0.5"/>
  <circle cx="200" cy="270" r="3" fill="#1a237e" opacity="0.5"/>
  <circle cx="200" cy="270" r="3" fill="#1b5e20" opacity="0.5"/>
  <circle cx="200" cy="195" r="3" fill="#1a237e" opacity="0.5"/>
  <circle cx="200" cy="195" r="3" fill="#1a237e" opacity="0.5"/>
  <circle cx="200" cy="195" r="3" fill="#283593" opacity="0.5"/>
  <circle cx="200" cy="195" r="3" fill="#2e7d32" opacity="0.5"/>
  <circle cx="200" cy="195" r="3" fill="#1b5e20" opacity="0.5"/>
  <circle cx="200" cy="195" r="3" fill="#1b5e20" opacity="0.5"/>
  <circle cx="200" cy="145" r="3" fill="#1a237e" opacity="0.5"/>
  <circle cx="200" cy="145" r="3" fill="#1b5e20" opacity="0.5"/>
  <circle cx="200" cy="120" r="3" fill="#1a237e" opacity="0.5"/>
  <circle cx="200" cy="120" r="3" fill="#1b5e20" opacity="0.5"/>
  <circle cx="225" cy="470" r="4" fill="#e53935" opacity="0.9"/>
  <circle cx="225" cy="320" r="3" fill="#1a237e" opacity="0.5"/>
  <circle cx="225" cy="320" r="3" fill="#1b5e20" opacity="0.5"/>
  <circle cx="225" cy="170" r="4" fill="#e53935" opacity="0.9"/>
  <circle cx="250" cy="445" r="3" fill="#1a237e" opacity="0.5"/>
  <circle cx="250" cy="445" r="3" fill="#3949ab" opacity="0.5"/>
  <circle cx="250" cy="445" r="3" fill="#43a047" opacity="0.5"/>
  <circle cx="250" cy="445" r="3" fill="#1b5e20" opacity="0.5"/>
  <circle cx="250" cy="420" r="3" fill="#1a237e" opacity="0.5"/>
  <circle cx="250" cy="420" r="3" fill="#1b5e20" opacity="0.5"/>
  <circle cx="250" cy="345" r="3" fill="#1a237e" opacity="0.5"/>
  <circle cx="250" cy="345" r="3" fill="#1b5e20" opacity="0.5"/>
  <circle cx="250" cy="295" r="3" fill="#1a237e" opacity="0.5"/>
  <circle cx="250" cy="295" r="3" fill="#1b5e20" opacity="0.5"/>
  <circle cx="250" cy="220" r="3" fill="#1a237e" opacity="0.5"/>
  <circle cx="250" cy="220" r="3" fill="#1b5e20" opacity="0.5"/>
  <circle cx="250" cy="195" r="3" fill="#1a237e" opacity="0.5"/>
  <circle cx="250" cy="195" r="3" fill="#3949ab" opacity="0.5"/>
  <circle cx="250" cy="195" r="3" fill="#43a047" opacity="0.5"/>
  <circle cx="250" cy="195" r="3" fill="#1b5e20" opacity="0.5"/>
  <circle cx="275" cy="520" r="3" fill="#1a237e" opacity="0.5"/>
  <circle cx="275" cy="520" r="3" fill="#1b5e20" opacity="0.5"/>
  <circle cx="275" cy="495" r="3" fill="#1a237e" opacity="0.5"/>
  <circle cx="275" cy="495" r="3" fill="#1b5e20" opacity="0.5"/>
  <circle cx="275" cy="445" r="3" fill="#1a237e" opacity="0.5"/>
  <circle cx="275" cy="445" r="3" fill="#1a237e" opacity="0.5"/>
  <circle cx="275" cy="445" r="3" fill="#283593" opacity="0.5"/>
  <circle cx="275" cy="445" r="3" fill="#2e7d32" opacity="0.5"/>
  <circle cx="275" cy="445" r="3" fill="#1b5e20" opacity="0.5"/>
  <circle cx="275" cy="445" r="3" fill="#1b5e20" opacity="0.5"/>
  <circle cx="275" cy="370" r="3" fill="#1a237e" opacity="0.5"/>
  <circle cx="275" cy="370" r="3" fill="#1b5e20" opacity="0.5"/>
  <circle cx="275" cy="270" r="3" fill="#1a237e" opacity="0.5"/>
  <circle cx="275" cy="270" r="3" fill="#1b5e20" opacity="0.5"/>
  <circle cx="275" cy="195" r="3" fill="#1a237e" opacity="0.5"/>
  <circle cx="275" cy="195" r="3" fill="#1a237e" opacity="0.5"/>
  <circle cx="275" cy="195" r="3" fill="#283593" opacity="0.5"/>
  <circle cx="275" cy="195" r="3" fill="#2e7d32" opacity="0.5"/>
  <circle cx="275" cy="195" r="3" fill="#1b5e20" opacity="0.5"/>
  <circle cx="275" cy="195" r="3" fill="#1b5e20" opacity="0.5"/>
  <circle cx="275" cy="145" r="3" fill="#1a237e" opacity="0.5"/>
  <circle cx="275" cy="145" r="3" fill="#1b5e20" opacity="0.5"/>
  <circle cx="275" cy="120" r="3" fill="#1a237e" opacity="0.5"/>
  <circle cx="275" cy="120" r="3" fill="#1b5e20" opacity="0.5"/>
  <circle cx="300" cy="470" r="3" fill="#1a237e" opacity="0.5"/>
  <circle cx="300" cy="470" r="3" fill="#1b5e20" opacity="0.5"/>
  <circle cx="300" cy="395" r="3" fill="#1a237e" opacity="0.5"/>
  <circle cx="300" cy="395" r="3" fill="#1b5e20" opacity="0.5"/>
  <circle cx="300" cy="245" r="3" fill="#1a237e" opacity="0.5"/>
  <circle cx="300" cy="245" r="3" fill="#1b5e20" opacity="0.5"/>
  <circle cx="300" cy="170" r="3" fill="#1a237e" opacity="0.5"/>
  <circle cx="300" cy="170" r="3" fill="#1b5e20" opacity="0.5"/>
  <circle cx="325" cy="520" r="3" fill="#1a237e" opacity="0.5"/>
  <circle cx="325" cy="520" r="3" fill="#1b5e20" opacity="0.5"/>
  <circle cx="325" cy="495" r="3" fill="#1a237e" opacity="0.5"/>
  <circle cx="325" cy="495" r="3" fill="#1b5e20" opacity="0.5"/>
  <circle cx="325" cy="445" r="3" fill="#1a237e" opacity="0.5"/>
  <circle cx="325" cy="445" r="3" fill="#1a237e" opacity="0.5"/>
  <circle cx="325" cy="445" r="3" fill="#283593" opacity="0.5"/>
  <circle cx="325" cy="445" r="3" fill="#2e7d32" opacity="0.5"/>
  <circle cx="325" cy="445" r="3" fill="#1b5e20" opacity="0.5"/>
  <circle cx="325" cy="445" r="3" fill="#1b5e20" opacity="0.5"/>
  <circle cx="325" cy="370" r="3" fill="#1a237e" opacity="0.5"/>
  <circle cx="325" cy="370" r="3" fill="#1b5e20" opacity="0.5"/>
  <circle cx="325" cy="270" r="3" fill="#1a237e" opacity="0.5"/>
  <circle cx="325" cy="270" r="3" fill="#1b5e20" opacity="0.5"/>
  <circle cx="325" cy="195" r="3" fill="#1a237e" opacity="0.5"/>
  <circle cx="325" cy="195" r="3" fill="#1a237e" opacity="0.5"/>
  <circle cx="325" cy="195" r="3" fill="#283593" opacity="0.5"/>
  <circle cx="325" cy="195" r="3" fill="#2e7d32" opacity="0.5"/>
  <circle cx="325" cy="195" r="3" fill="#1b5e20" opacity="0.5"/>
  <circle cx="325" cy="195" r="3" fill="#1b5e20" opacity="0.5"/>
  <circle cx="325" cy="145" r="3" fill="#1a237e" opacity="0.5"/>
  <circle cx="325" cy="145" r="3" fill="#1b5e20" opacity="0.5"/>
  <circle cx="325" cy="120" r="3" fill="#1a237e" opacity="0.5"/>
  <circle cx="325" cy="120" r="3" fill="#1b5e20" opacity="0.5"/>
  <circle cx="350" cy="445" r="3" fill="#1a237e" opacity="0.5"/>
  <circle cx="350" cy="445" r="3" fill="#3949ab" opacity="0.5"/>
  <circle cx="350" cy="445" r="3" fill="#43a047" opacity="0.5"/>
  <circle cx="350" cy="445" r="3" fill="#1b5e20" opacity="0.5"/>
  <circle cx="350" cy="420" r="3" fill="#1a237e" opacity="0.5"/>
  <circle cx="350" cy="420" r="3" fill="#1b5e20" opacity="0.5"/>
  <circle cx="350" cy="345" r="3" fill="#1a237e" opacity="0.5"/>
  <circle cx="350" cy="345" r="3" fill="#1b5e20" opacity="0.5"/>
  <circle cx="350" cy="295" r="3" fill="#1a237e" opacity="0.5"/>
  <circle cx="350" cy="295" r="3" fill="#1b5e20" opacity="0.5"/>
  <circle cx="350" cy="220" r="3" fill="#1a237e" opacity="0.5"/>
  <circle cx="350" cy="220" r="3" fill="#1b5e20" opacity="0.5"/>
  <circle cx="350" cy="195" r="3" fill="#1a237e" opacity="0.5"/>
  <circle cx="350" cy="195" r="3" fill="#3949ab" opacity="0.5"/>
  <circle cx="350" cy="195" r="3" fill="#43a047" opacity="0.5"/>
  <circle cx="350" cy="195" r="3" fill="#1b5e20" opacity="0.5"/>
  <circle cx="375" cy="470" r="4" fill="#e53935" opacity="0.9"/>
  <circle cx="375" cy="320" r="3" fill="#1a237e" opacity="0.5"/>
  <circle cx="375" cy="320" r="3" fill="#1b5e20" opacity="0.5"/>
  <circle cx="375" cy="170" r="4" fill="#e53935" opacity="0.9"/>
  <circle cx="400" cy="520" r="3" fill="#1a237e" opacity="0.5"/>
  <circle cx="400" cy="520" r="3" fill="#1b5e20" opacity="0.5"/>
  <circle cx="400" cy="495" r="3" fill="#1a237e" opacity="0.5"/>
  <circle cx="400" cy="495" r="3" fill="#1b5e20" opacity="0.5"/>
  <circle cx="400" cy="445" r="3" fill="#1a237e" opacity="0.5"/>
  <circle cx="400" cy="445" r="3" fill="#1a237e" opacity="0.5"/>
  <circle cx="400" cy="445" r="3" fill="#283593" opacity="0.5"/>
  <circle cx="400" cy="445" r="3" fill="#2e7d32" opacity="0.5"/>
  <circle cx="400" cy="445" r="3" fill="#1b5e20" opacity="0.5"/>
  <circle cx="400" cy="445" r="3" fill="#1b5e20" opacity="0.5"/>
  <circle cx="400" cy="370" r="3" fill="#1a237e" opacity="0.5"/>
  <circle cx="400" cy="370" r="3" fill="#1b5e20" opacity="0.5"/>
  <circle cx="400" cy="270" r="3" fill="#1a237e" opacity="0.5"/>
  <circle cx="400" cy="270" r="3" fill="#1b5e20" opacity="0.5"/>
  <circle cx="400" cy="195" r="3" fill="#1a237e" opacity="0.5"/>
  <circle cx="400" cy="195" r="3" fill="#1a237e" opacity="0.5"/>
  <circle cx="400" cy="195" r="3" fill="#283593" opacity="0.5"/>
  <circle cx="400" cy="195" r="3" fill="#2e7d32" opacity="0.5"/>
  <circle cx="400" cy="195" r="3" fill="#1b5e20" opacity="0.5"/>
  <circle cx="400" cy="195" r="3" fill="#1b5e20" opacity="0.5"/>
  <circle cx="400" cy="145" r="3" fill="#1a237e" opacity="0.5"/>
  <circle cx="400" cy="145" r="3" fill="#1b5e20" opacity="0.5"/>
  <circle cx="400" cy="120" r="3" fill="#1a237e" opacity="0.5"/>
  <circle cx="400" cy="120" r="3" fill="#1b5e20" opacity="0.5"/>
  <circle cx="425" cy="520" r="3" fill="#1a237e" opacity="0.5"/>
  <circle cx="425" cy="520" r="3" fill="#3949ab" opacity="0.5"/>
  <circle cx="425" cy="520" r="3" fill="#43a047" opacity="0.5"/>
  <circle cx="425" cy="520" r="3" fill="#1b5e20" opacity="0.5"/>
  <circle cx="425" cy="495" r="3" fill="#1a237e" opacity="0.5"/>
  <circle cx="425" cy="495" r="3" fill="#3949ab" opacity="0.5"/>
  <circle cx="425" cy="495" r="3" fill="#43a047" opacity="0.5"/>
  <circle cx="425" cy="495" r="3" fill="#1b5e20" opacity="0.5"/>
  <circle cx="425" cy="445" r="3" fill="#1a237e" opacity="0.5"/>
  <circle cx="425" cy="445" r="3" fill="#1b5e20" opacity="0.5"/>
  <circle cx="425" cy="420" r="3" fill="#1a237e" opacity="0.5"/>
  <circle cx="425" cy="420" r="3" fill="#1a237e" opacity="0.5"/>
  <circle cx="425" cy="420" r="3" fill="#283593" opacity="0.5"/>
  <circle cx="425" cy="420" r="3" fill="#2e7d32" opacity="0.5"/>
  <circle cx="425" cy="420" r="3" fill="#1b5e20" opacity="0.5"/>
  <circle cx="425" cy="420" r="3" fill="#1b5e20" opacity="0.5"/>
  <circle cx="425" cy="370" r="3" fill="#1a237e" opacity="0.5"/>
  <circle cx="425" cy="370" r="3" fill="#3949ab" opacity="0.5"/>
  <circle cx="425" cy="370" r="3" fill="#43a047" opacity="0.5"/>
  <circle cx="425" cy="370" r="3" fill="#1b5e20" opacity="0.5"/>
  <circle cx="425" cy="345" r="3" fill="#1a237e" opacity="0.5"/>
  <circle cx="425" cy="345" r="3" fill="#1a237e" opacity="0.5"/>
  <circle cx="425" cy="345" r="3" fill="#283593" opacity="0.5"/>
  <circle cx="425" cy="345" r="3" fill="#2e7d32" opacity="0.5"/>
  <circle cx="425" cy="345" r="3" fill="#1b5e20" opacity="0.5"/>
  <circle cx="425" cy="345" r="3" fill="#1b5e20" opacity="0.5"/>
  <circle cx="425" cy="295" r="3" fill="#1a237e" opacity="0.5"/>
  <circle cx="425" cy="295" r="3" fill="#1a237e" opacity="0.5"/>
  <circle cx="425" cy="295" r="3" fill="#283593" opacity="0.5"/>
  <circle cx="425" cy="295" r="3" fill="#2e7d32" opacity="0.5"/>
  <circle cx="425" cy="295" r="3" fill="#1b5e20" opacity="0.5"/>
  <circle cx="425" cy="295" r="3" fill="#1b5e20" opacity="0.5"/>
  <circle cx="425" cy="270" r="3" fill="#1a237e" opacity="0.5"/>
  <circle cx="425" cy="270" r="3" fill="#3949ab" opacity="0.5"/>
  <circle cx="425" cy="270" r="3" fill="#43a047" opacity="0.5"/>
  <circle cx="425" cy="270" r="3" fill="#1b5e20" opacity="0.5"/>
  <circle cx="425" cy="220" r="3" fill="#1a237e" opacity="0.5"/>
  <circle cx="425" cy="220" r="3" fill="#1a237e" opacity="0.5"/>
  <circle cx="425" cy="220" r="3" fill="#283593" opacity="0.5"/>
  <circle cx="425" cy="220" r="3" fill="#2e7d32" opacity="0.5"/>
  <circle cx="425" cy="220" r="3" fill="#1b5e20" opacity="0.5"/>
  <circle cx="425" cy="220" r="3" fill="#1b5e20" opacity="0.5"/>
  <circle cx="425" cy="195" r="3" fill="#1a237e" opacity="0.5"/>
  <circle cx="425" cy="195" r="3" fill="#1b5e20" opacity="0.5"/>
  <circle cx="425" cy="145" r="3" fill="#1a237e" opacity="0.5"/>
  <circle cx="425" cy="145" r="3" fill="#3949ab" opacity="0.5"/>
  <circle cx="425" cy="145" r="3" fill="#43a047" opacity="0.5"/>
  <circle cx="425" cy="145" r="3" fill="#1b5e20" opacity="0.5"/>
  <circle cx="425" cy="120" r="3" fill="#1a237e" opacity="0.5"/>
  <circle cx="425" cy="120" r="3" fill="#3949ab" opacity="0.5"/>
  <circle cx="425" cy="120" r="3" fill="#43a047" opacity="0.5"/>
  <circle cx="425" cy="120" r="3" fill="#1b5e20" opacity="0.5"/>
  <circle cx="450" cy="395" r="4" fill="#e53935" opacity="0.9"/>
  <circle cx="450" cy="320" r="3" fill="#1a237e" opacity="0.5"/>
  <circle cx="450" cy="320" r="3" fill="#1b5e20" opacity="0.5"/>
  <circle cx="450" cy="245" r="4" fill="#e53935" opacity="0.9"/>
  <circle cx="475" cy="445" r="3" fill="#1a237e" opacity="0.5"/>
  <circle cx="475" cy="445" r="3" fill="#3949ab" opacity="0.5"/>
  <circle cx="475" cy="445" r="3" fill="#43a047" opacity="0.5"/>
  <circle cx="475" cy="445" r="3" fill="#1b5e20" opacity="0.5"/>
  <circle cx="475" cy="420" r="3" fill="#1a237e" opacity="0.5"/>
  <circle cx="475" cy="420" r="3" fill="#1b5e20" opacity="0.5"/>
  <circle cx="475" cy="345" r="3" fill="#1a237e" opacity="0.5"/>
  <circle cx="475" cy="345" r="3" fill="#1b5e20" opacity="0.5"/>
  <circle cx="475" cy="295" r="3" fill="#1a237e" opacity="0.5"/>
  <circle cx="475" cy="295" r="3" fill="#1b5e20" opacity="0.5"/>
  <circle cx="475" cy="220" r="3" fill="#1a237e" opacity="0.5"/>
  <circle cx="475" cy="220" r="3" fill="#1b5e20" opacity="0.5"/>
  <circle cx="475" cy="195" r="3" fill="#1a237e" opacity="0.5"/>
  <circle cx="475" cy="195" r="3" fill="#3949ab" opacity="0.5"/>
  <circle cx="475" cy="195" r="3" fill="#43a047" opacity="0.5"/>
  <circle cx="475" cy="195" r="3" fill="#1b5e20" opacity="0.5"/>
  <circle cx="500" cy="445" r="3" fill="#1a237e" opacity="0.5"/>
  <circle cx="500" cy="445" r="3" fill="#3949ab" opacity="0.5"/>
  <circle cx="500" cy="445" r="3" fill="#43a047" opacity="0.5"/>
  <circle cx="500" cy="445" r="3" fill="#1b5e20" opacity="0.5"/>
  <circle cx="500" cy="420" r="3" fill="#1a237e" opacity="0.5"/>
  <circle cx="500" cy="420" r="3" fill="#1b5e20" opacity="0.5"/>
  <circle cx="500" cy="345" r="3" fill="#1a237e" opacity="0.5"/>
  <circle cx="500" cy="345" r="3" fill="#1b5e20" opacity="0.5"/>
  <circle cx="500" cy="295" r="3" fill="#1a237e" opacity="0.5"/>
  <circle cx="500" cy="295" r="3" fill="#1b5e20" opacity="0.5"/>
  <circle cx="500" cy="220" r="3" fill="#1a237e" opacity="0.5"/>
  <circle cx="500" cy="220" r="3" fill="#1b5e20" opacity="0.5"/>
  <circle cx="500" cy="195" r="3" fill="#1a237e" opacity="0.5"/>
  <circle cx="500" cy="195" r="3" fill="#3949ab" opacity="0.5"/>
  <circle cx="500" cy="195" r="3" fill="#43a047" opacity="0.5"/>
  <circle cx="500" cy="195" r="3" fill="#1b5e20" opacity="0.5"/>
  <circle cx="300" cy="320" r="5" fill="#e53935" stroke="white" stroke-width="1.5"/>
  <text x="60" y="590" font-size="10" fill="#666">Red: z=0 · Green: z&gt;0 · Blue: z&lt;0 · Size indicates proximity to z=0 plane</text>
</svg>
