<?xml version="1.0" encoding="UTF-8"?>
<svg xmlns="http://www.w3.org/2000/svg" viewBox="0 0 600 500" 
     width="600" height="500">
  <defs>
    <style>
      text { font-family: 'Georgia', 'Times New Roman', serif; }
      .title { font-size: 18px; font-weight: bold; fill: #1a1a2e; }
      .subtitle { font-size: 13px; fill: #444; }
      .label { font-size: 12px; fill: #333; }
      .small { font-size: 10px; fill: #666; }
      .math { font-family: 'Times New Roman', serif; font-style: italic; }
      .axis { stroke: #333; stroke-width: 1.5; fill: none; }
      .grid { stroke: #ddd; stroke-width: 0.5; fill: none; }
      .highlight { fill: #e94560; }
      .accent1 { fill: #0f3460; }
      .accent2 { fill: #16213e; }
      .accent3 { fill: #533483; }
    </style>
    <marker id="arrowhead" markerWidth="10" markerHeight="7" refX="10" refY="3.5" orient="auto">
      <polygon points="0 0, 10 3.5, 0 7" fill="#333" />
    </marker>
  </defs>
  <!-- Pell Obstacle -->
  <rect width="600" height="500" fill="#fafbfc" rx="10"/>
  <text x="300" y="30" text-anchor="middle" class="title">The Pell Obstacle</text>
  <text x="300" y="50" text-anchor="middle" class="subtitle">λ² − n·μ² = 1: Solutions depend critically on n</text>
  <line x1="58" y1="70" x2="58" y2="470" class="grid"/>
  <line x1="80" y1="70" x2="80" y2="470" class="grid"/>
  <line x1="102" y1="70" x2="102" y2="470" class="grid"/>
  <line x1="40" y1="82" x2="560" y2="82" class="grid"/>
  <line x1="124" y1="70" x2="124" y2="470" class="grid"/>
  <line x1="40" y1="104" x2="560" y2="104" class="grid"/>
  <line x1="146" y1="70" x2="146" y2="470" class="grid"/>
  <line x1="40" y1="126" x2="560" y2="126" class="grid"/>
  <line x1="168" y1="70" x2="168" y2="470" class="grid"/>
  <line x1="40" y1="148" x2="560" y2="148" class="grid"/>
  <line x1="190" y1="70" x2="190" y2="470" class="grid"/>
  <line x1="40" y1="170" x2="560" y2="170" class="grid"/>
  <line x1="212" y1="70" x2="212" y2="470" class="grid"/>
  <line x1="40" y1="192" x2="560" y2="192" class="grid"/>
  <line x1="234" y1="70" x2="234" y2="470" class="grid"/>
  <line x1="40" y1="214" x2="560" y2="214" class="grid"/>
  <line x1="256" y1="70" x2="256" y2="470" class="grid"/>
  <line x1="40" y1="236" x2="560" y2="236" class="grid"/>
  <line x1="278" y1="70" x2="278" y2="470" class="grid"/>
  <line x1="40" y1="258" x2="560" y2="258" class="grid"/>
  <line x1="300" y1="70" x2="300" y2="470" class="grid"/>
  <line x1="40" y1="280" x2="560" y2="280" class="grid"/>
  <line x1="322" y1="70" x2="322" y2="470" class="grid"/>
  <line x1="40" y1="302" x2="560" y2="302" class="grid"/>
  <line x1="344" y1="70" x2="344" y2="470" class="grid"/>
  <line x1="40" y1="324" x2="560" y2="324" class="grid"/>
  <line x1="366" y1="70" x2="366" y2="470" class="grid"/>
  <line x1="40" y1="346" x2="560" y2="346" class="grid"/>
  <line x1="388" y1="70" x2="388" y2="470" class="grid"/>
  <line x1="40" y1="368" x2="560" y2="368" class="grid"/>
  <line x1="410" y1="70" x2="410" y2="470" class="grid"/>
  <line x1="40" y1="390" x2="560" y2="390" class="grid"/>
  <line x1="432" y1="70" x2="432" y2="470" class="grid"/>
  <line x1="40" y1="412" x2="560" y2="412" class="grid"/>
  <line x1="454" y1="70" x2="454" y2="470" class="grid"/>
  <line x1="40" y1="434" x2="560" y2="434" class="grid"/>
  <line x1="476" y1="70" x2="476" y2="470" class="grid"/>
  <line x1="40" y1="456" x2="560" y2="456" class="grid"/>
  <line x1="498" y1="70" x2="498" y2="470" class="grid"/>
  <line x1="520" y1="70" x2="520" y2="470" class="grid"/>
  <line x1="542" y1="70" x2="542" y2="470" class="grid"/>
  <line x1="40" y1="280" x2="560" y2="280" class="axis" marker-end="url(#arrowhead)"/>
  <line x1="300" y1="470" x2="300" y2="70" class="axis" marker-end="url(#arrowhead)"/>
  <text x="565" y="275" class="label">λ</text>
  <text x="308" y="75" class="label">μ</text>
  <!-- Hyperbola λ² - μ² = 1 -->
  <polyline points="481.6,460.2 467.7,446.3 454.9,433.4 443.1,421.4 432.3,410.4 422.3,400.3 413.0,390.9 404.5,382.2 396.7,374.1 389.4,366.7 382.8,359.8 376.6,353.4 371.0,347.5 365.8,342.0 361.1,337.0 356.7,332.3 352.7,327.9 349.0,323.8 345.7,320.0 342.6,316.5 339.8,313.2 337.3,310.1 335.0,307.2 332.9,304.5 331.1,302.0 329.4,299.5 328.0,297.2 326.7,295.1 325.5,293.0 324.6,291.0 323.8,289.0 323.1,287.2 322.6,285.3 322.3,283.5 322.1,281.8 322.0,280.0 322.1,278.2 322.3,276.5 322.6,274.7 323.1,272.8 323.8,271.0 324.6,269.0 325.5,267.0 326.7,264.9 328.0,262.8 329.4,260.5 331.1,258.0 332.9,255.5 335.0,252.8 337.3,249.9 339.8,246.8 342.6,243.5 345.7,240.0 349.0,236.2 352.7,232.1 356.7,227.7 361.1,223.0 365.8,218.0 371.0,212.5 376.6,206.6 382.8,200.2 389.4,193.3 396.7,185.9 404.5,177.8 413.0,169.1 422.3,159.7 432.3,149.6 443.1,138.6 454.9,126.6 467.7,113.7 481.6,99.8 496.6,84.7" fill="none" stroke="#e53935" stroke-width="2" stroke-dasharray="6,3"/>
  <polyline points="118.4,460.2 132.3,446.3 145.1,433.4 156.9,421.4 167.7,410.4 177.7,400.3 187.0,390.9 195.5,382.2 203.3,374.1 210.6,366.7 217.2,359.8 223.4,353.4 229.0,347.5 234.2,342.0 238.9,337.0 243.3,332.3 247.3,327.9 251.0,323.8 254.3,320.0 257.4,316.5 260.2,313.2 262.7,310.1 265.0,307.2 267.1,304.5 268.9,302.0 270.6,299.5 272.0,297.2 273.3,295.1 274.5,293.0 275.4,291.0 276.2,289.0 276.9,287.2 277.4,285.3 277.7,283.5 277.9,281.8 278.0,280.0 277.9,278.2 277.7,276.5 277.4,274.7 276.9,272.8 276.2,271.0 275.4,269.0 274.5,267.0 273.3,264.9 272.0,262.8 270.6,260.5 268.9,258.0 267.1,255.5 265.0,252.8 262.7,249.9 260.2,246.8 257.4,243.5 254.3,240.0 251.0,236.2 247.3,232.1 243.3,227.7 238.9,223.0 234.2,218.0 229.0,212.5 223.4,206.6 217.2,200.2 210.6,193.3 203.3,185.9 195.5,177.8 187.0,169.1 177.7,159.7 167.7,149.6 156.9,138.6 145.1,126.6 132.3,113.7 118.4,99.8 103.4,84.7" fill="none" stroke="#e53935" stroke-width="2" stroke-dasharray="6,3"/>
  <circle cx="322" cy="280" r="6" fill="#e53935" stroke="white" stroke-width="2"/>
  <text x="322" y="268" text-anchor="middle" font-size="11" font-weight="bold" fill="#e53935">(1, 0)</text>
  <circle cx="278" cy="280" r="6" fill="#e53935" stroke="white" stroke-width="2"/>
  <text x="278" y="268" text-anchor="middle" font-size="11" font-weight="bold" fill="#e53935">(-1, 0)</text>
  <circle cx="322" cy="280" r="5" fill="#2196F3" stroke="white" stroke-width="1.5"/>
  <circle cx="278" cy="280" r="5" fill="#2196F3" stroke="white" stroke-width="1.5"/>
  <circle cx="366" cy="236" r="5" fill="#2196F3" stroke="white" stroke-width="1.5"/>
  <circle cx="366" cy="324" r="5" fill="#2196F3" stroke="white" stroke-width="1.5"/>
  <circle cx="234" cy="236" r="5" fill="#2196F3" stroke="white" stroke-width="1.5"/>
  <circle cx="234" cy="324" r="5" fill="#2196F3" stroke="white" stroke-width="1.5"/>
  <circle cx="60" cy="485" r="5" fill="#e53935"/>
  <text x="72" y="489" font-size="11" fill="#333">n=1 (Pell Obstacle): only (±1, 0)</text>
  <circle cx="310" cy="485" r="5" fill="#2196F3"/>
  <text x="322" y="489" font-size="11" fill="#333">n=2: infinitely many solutions</text>
</svg>
