<svg xmlns="http://www.w3.org/2000/svg" viewBox="0 0 900 600" font-family="Arial, sans-serif">
  <defs>
    <linearGradient id="bg_grad" x1="0%" y1="0%" x2="100%" y2="100%">
      <stop offset="0%" style="stop-color:#1a1a2e;stop-opacity:1"/>
      <stop offset="100%" style="stop-color:#16213e;stop-opacity:1"/>
    </linearGradient>
    <linearGradient id="oct_grad" x1="0%" y1="0%" x2="100%" y2="0%">
      <stop offset="0%" style="stop-color:#e94560;stop-opacity:0.8"/>
      <stop offset="100%" style="stop-color:#f39c12;stop-opacity:0.8"/>
    </linearGradient>
    <filter id="glow">
      <feGaussianBlur stdDeviation="3" result="blur"/>
      <feMerge><feMergeNode in="blur"/><feMergeNode in="SourceGraphic"/></feMerge>
    </filter>
  </defs>
  
  <rect width="900" height="600" fill="url(#bg_grad)"/>
  
  <!-- Title -->
  <text x="450" y="40" text-anchor="middle" fill="#e94560" font-size="24" font-weight="bold">
    Octonionic Quantum Universal Solver
  </text>
  <text x="450" y="65" text-anchor="middle" fill="#aaa" font-size="14">
    Problem → Octonion Encoding → Oracle Transform → Solution
  </text>
  
  <!-- Pipeline boxes -->
  <!-- Step 1: Problem -->
  <rect x="30" y="100" width="180" height="120" rx="10" fill="none" stroke="#3498db" stroke-width="2"/>
  <text x="120" y="130" text-anchor="middle" fill="#3498db" font-size="16" font-weight="bold">Problem</text>
  <text x="120" y="155" text-anchor="middle" fill="#ccc" font-size="12">x² - 5x + 6 = 0</text>
  <text x="120" y="175" text-anchor="middle" fill="#888" font-size="11">Parameters:</text>
  <text x="120" y="195" text-anchor="middle" fill="#888" font-size="11">a=1, b=-5, c=6</text>
  
  <!-- Arrow 1 -->
  <line x1="215" y1="160" x2="265" y2="160" stroke="#e94560" stroke-width="2" marker-end="url(#arrow)"/>
  <polygon points="265,155 275,160 265,165" fill="#e94560"/>
  
  <!-- Step 2: Encode -->
  <rect x="280" y="100" width="180" height="120" rx="10" fill="none" stroke="#e94560" stroke-width="2"/>
  <text x="370" y="130" text-anchor="middle" fill="#e94560" font-size="16" font-weight="bold">Encode</text>
  <text x="370" y="155" text-anchor="middle" fill="#ccc" font-size="11">𝕆 = (1, 1, -5, 6,</text>
  <text x="370" y="175" text-anchor="middle" fill="#ccc" font-size="11">1, 0, 0, 1)</text>
  <text x="370" y="195" text-anchor="middle" fill="#888" font-size="11">8 components → S⁷</text>
  
  <!-- Arrow 2 -->
  <line x1="465" y1="160" x2="515" y2="160" stroke="#f39c12" stroke-width="2"/>
  <polygon points="515,155 525,160 515,165" fill="#f39c12"/>
  
  <!-- Step 3: Transform -->
  <rect x="530" y="100" width="180" height="120" rx="10" fill="none" stroke="#f39c12" stroke-width="2"/>
  <text x="620" y="130" text-anchor="middle" fill="#f39c12" font-size="16" font-weight="bold">Oracle Transform</text>
  <text x="620" y="155" text-anchor="middle" fill="#ccc" font-size="11">T(T(x)) = T(x)</text>
  <text x="620" y="175" text-anchor="middle" fill="#ccc" font-size="11">Idempotent ✓</text>
  <text x="620" y="195" text-anchor="middle" fill="#888" font-size="11">Norm-preserving ✓</text>
  
  <!-- Arrow 3 -->
  <line x1="715" y1="160" x2="765" y2="160" stroke="#2ecc71" stroke-width="2"/>
  <polygon points="765,155 775,160 765,165" fill="#2ecc71"/>
  
  <!-- Step 4: Solution -->
  <rect x="780" y="100" width="100" height="120" rx="10" fill="none" stroke="#2ecc71" stroke-width="2"/>
  <text x="830" y="130" text-anchor="middle" fill="#2ecc71" font-size="16" font-weight="bold">Solution</text>
  <text x="830" y="165" text-anchor="middle" fill="#2ecc71" font-size="18">x=2, 3</text>
  <text x="830" y="195" text-anchor="middle" fill="#888" font-size="11">Fixed point</text>
  
  <!-- Fano Plane -->
  <text x="200" y="270" text-anchor="middle" fill="#e94560" font-size="18" font-weight="bold">
    Fano Plane (Octonion Multiplication)
  </text>
  
  <!-- Draw Fano plane as a triangle with inscribed circle -->
  <g transform="translate(200, 400)" filter="url(#glow)">
    <!-- Outer triangle -->
    <polygon points="0,-90 78,45 -78,45" fill="none" stroke="#e94560" stroke-width="1.5"/>
    <!-- Inner circle -->
    <circle cx="0" cy="0" r="45" fill="none" stroke="#3498db" stroke-width="1.5"/>
    <!-- Midpoint lines -->
    <line x1="0" y1="-90" x2="0" y2="45" stroke="#f39c12" stroke-width="1" opacity="0.5"/>
    <line x1="-78" y1="45" x2="39" y2="-22" stroke="#f39c12" stroke-width="1" opacity="0.5"/>
    <line x1="78" y1="45" x2="-39" y2="-22" stroke="#f39c12" stroke-width="1" opacity="0.5"/>
    
    <!-- Points -->
    <circle cx="0" cy="-90" r="8" fill="#e94560"/>
    <circle cx="78" cy="45" r="8" fill="#e94560"/>
    <circle cx="-78" cy="45" r="8" fill="#e94560"/>
    <circle cx="0" cy="45" r="8" fill="#3498db"/>
    <circle cx="39" cy="-22" r="8" fill="#3498db"/>
    <circle cx="-39" cy="-22" r="8" fill="#3498db"/>
    <circle cx="0" cy="0" r="8" fill="#f39c12"/>
    
    <!-- Labels -->
    <text x="0" y="-100" text-anchor="middle" fill="white" font-size="12">e₁</text>
    <text x="92" y="50" text-anchor="middle" fill="white" font-size="12">e₂</text>
    <text x="-92" y="50" text-anchor="middle" fill="white" font-size="12">e₃</text>
    <text x="12" y="62" text-anchor="middle" fill="white" font-size="12">e₄</text>
    <text x="52" y="-28" text-anchor="middle" fill="white" font-size="12">e₅</text>
    <text x="-52" y="-28" text-anchor="middle" fill="white" font-size="12">e₆</text>
    <text x="15" y="5" text-anchor="middle" fill="white" font-size="12">e₇</text>
  </g>
  
  <!-- LLM Agent Architecture -->
  <text x="600" y="270" text-anchor="middle" fill="#3498db" font-size="18" font-weight="bold">
    Octonionic LLM Agent
  </text>
  
  <!-- Layer boxes -->
  <rect x="470" y="290" width="260" height="40" rx="5" fill="#1a3a5c" stroke="#3498db" stroke-width="1.5"/>
  <text x="600" y="315" text-anchor="middle" fill="#3498db" font-size="13">Embedding: ℝⁿ → 𝕆 (8D encoding)</text>
  
  <polygon points="600,335 605,345 595,345" fill="#3498db"/>
  
  <rect x="470" y="350" width="260" height="40" rx="5" fill="#3a1a1a" stroke="#e94560" stroke-width="1.5"/>
  <text x="600" y="375" text-anchor="middle" fill="#e94560" font-size="13">Attention: Triality Gate τ³ = I</text>
  
  <polygon points="600,395 605,405 595,405" fill="#e94560"/>
  
  <rect x="470" y="410" width="260" height="40" rx="5" fill="#1a3a1a" stroke="#2ecc71" stroke-width="1.5"/>
  <text x="600" y="435" text-anchor="middle" fill="#2ecc71" font-size="13">FFN: ReLU = Tropical ⊕ (max, +)</text>
  
  <polygon points="600,455 605,465 595,465" fill="#2ecc71"/>
  
  <rect x="470" y="470" width="260" height="40" rx="5" fill="#3a3a1a" stroke="#f39c12" stroke-width="1.5"/>
  <text x="600" y="495" text-anchor="middle" fill="#f39c12" font-size="13">Output: Project 𝕆 → ℝᵏ</text>
  
  <!-- Key properties -->
  <text x="600" y="540" text-anchor="middle" fill="#aaa" font-size="12">
    Each layer is an idempotent oracle: L(L(x)) = L(x)
  </text>
  <text x="600" y="560" text-anchor="middle" fill="#aaa" font-size="12">
    Fixed point = learned representation
  </text>
  
  <!-- Footer -->
  <text x="450" y="590" text-anchor="middle" fill="#666" font-size="11">
    Formally verified in Lean 4 — zero sorry axioms
  </text>
</svg>
