<?xml version="1.0" encoding="UTF-8"?>
<svg xmlns="http://www.w3.org/2000/svg" viewBox="0 0 800 600" font-family="monospace">
  <rect width="800" height="600" fill="#f5f5f5" rx="10"/>
  <text x="400" y="35" text-anchor="middle" font-size="20" font-weight="bold" fill="#333">
    Octonionic Quantum Computing: Triality Gates
  </text>
  
  <!-- Fano Plane -->
  <text x="200" y="70" text-anchor="middle" font-size="14" font-weight="bold" fill="#9C27B0">
    Fano Plane (Octonion Multiplication)
  </text>
  
  <!-- Fano plane vertices (heptagon) -->
  <circle cx="200" cy="120" r="15" fill="#E1BEE7" stroke="#9C27B0" stroke-width="2"/>
  <text x="200" y="125" text-anchor="middle" font-size="11" font-weight="bold">e₁</text>
  
  <circle cx="270" cy="155" r="15" fill="#E1BEE7" stroke="#9C27B0" stroke-width="2"/>
  <text x="270" y="160" text-anchor="middle" font-size="11" font-weight="bold">e₂</text>
  
  <circle cx="280" cy="235" r="15" fill="#E1BEE7" stroke="#9C27B0" stroke-width="2"/>
  <text x="280" y="240" text-anchor="middle" font-size="11" font-weight="bold">e₃</text>
  
  <circle cx="230" cy="290" r="15" fill="#E1BEE7" stroke="#9C27B0" stroke-width="2"/>
  <text x="230" y="295" text-anchor="middle" font-size="11" font-weight="bold">e₄</text>
  
  <circle cx="170" cy="290" r="15" fill="#E1BEE7" stroke="#9C27B0" stroke-width="2"/>
  <text x="170" y="295" text-anchor="middle" font-size="11" font-weight="bold">e₅</text>
  
  <circle cx="120" cy="235" r="15" fill="#E1BEE7" stroke="#9C27B0" stroke-width="2"/>
  <text x="120" y="240" text-anchor="middle" font-size="11" font-weight="bold">e₆</text>
  
  <circle cx="130" cy="155" r="15" fill="#E1BEE7" stroke="#9C27B0" stroke-width="2"/>
  <text x="130" y="160" text-anchor="middle" font-size="11" font-weight="bold">e₇</text>
  
  <!-- Some Fano lines -->
  <line x1="200" y1="135" x2="270" y2="155" stroke="#9C27B0" stroke-width="1.5" opacity="0.5"/>
  <line x1="270" y1="170" x2="230" y2="275" stroke="#9C27B0" stroke-width="1.5" opacity="0.5"/>
  <line x1="200" y1="135" x2="230" y2="275" stroke="#9C27B0" stroke-width="1.5" opacity="0.5"/>
  
  <!-- Triality -->
  <text x="200" y="340" text-anchor="middle" font-size="13" fill="#666">
    eᵢeⱼ = ±eₖ (Fano rules)
  </text>
  <text x="200" y="360" text-anchor="middle" font-size="13" fill="#666">
    Non-associative: (eᵢeⱼ)eₖ ≠ eᵢ(eⱼeₖ)
  </text>

  <!-- Triality Gate Diagram -->
  <rect x="400" y="60" width="370" height="250" fill="white" stroke="#FF5722" stroke-width="2" rx="8"/>
  <text x="585" y="85" text-anchor="middle" font-size="14" font-weight="bold" fill="#FF5722">
    Triality: τ ∈ Out(Spin(8)), τ³ = 1
  </text>
  
  <!-- Three representations -->
  <circle cx="500" cy="150" r="35" fill="#FFEBEE" stroke="#F44336" stroke-width="2"/>
  <text x="500" y="145" text-anchor="middle" font-size="11" font-weight="bold">8ᵥ</text>
  <text x="500" y="160" text-anchor="middle" font-size="9">vector</text>
  
  <circle cx="660" cy="150" r="35" fill="#E8F5E9" stroke="#4CAF50" stroke-width="2"/>
  <text x="660" y="145" text-anchor="middle" font-size="11" font-weight="bold">8ₛ</text>
  <text x="660" y="160" text-anchor="middle" font-size="9">spinor+</text>
  
  <circle cx="580" cy="260" r="35" fill="#E3F2FD" stroke="#2196F3" stroke-width="2"/>
  <text x="580" y="255" text-anchor="middle" font-size="11" font-weight="bold">8_c</text>
  <text x="580" y="270" text-anchor="middle" font-size="9">spinor-</text>
  
  <!-- Triality arrows -->
  <path d="M 535 145 Q 580 120 625 145" fill="none" stroke="#FF5722" stroke-width="2.5" 
        marker-end="url(#arrow2)"/>
  <path d="M 665 185 Q 640 230 615 255" fill="none" stroke="#FF5722" stroke-width="2.5"/>
  <path d="M 545 260 Q 510 220 505 185" fill="none" stroke="#FF5722" stroke-width="2.5"/>
  
  <text x="580" y="200" text-anchor="middle" font-size="16" font-weight="bold" fill="#FF5722">τ</text>
  
  <!-- Quantum Circuit -->
  <rect x="30" y="400" width="740" height="170" fill="white" stroke="#333" stroke-width="2" rx="8"/>
  <text x="400" y="425" text-anchor="middle" font-size="14" font-weight="bold" fill="#333">
    Octonionic Quantum Circuit
  </text>
  
  <!-- Qubit line -->
  <line x1="80" y1="480" x2="720" y2="480" stroke="#333" stroke-width="2"/>
  <text x="60" y="485" text-anchor="middle" font-size="12">|e₀⟩</text>
  
  <!-- Gates -->
  <rect x="150" y="455" width="80" height="50" fill="#E8EAF6" stroke="#3F51B5" stroke-width="2" rx="4"/>
  <text x="190" y="478" text-anchor="middle" font-size="11" font-weight="bold">R₀₁(π/4)</text>
  <text x="190" y="495" text-anchor="middle" font-size="9">Spin(8)</text>
  
  <rect x="280" y="455" width="80" height="50" fill="#FCE4EC" stroke="#E91E63" stroke-width="2" rx="4"/>
  <text x="320" y="478" text-anchor="middle" font-size="11" font-weight="bold">τ</text>
  <text x="320" y="495" text-anchor="middle" font-size="9">Triality</text>
  
  <rect x="410" y="455" width="80" height="50" fill="#FFF3E0" stroke="#FF9800" stroke-width="2" rx="4"/>
  <text x="450" y="478" text-anchor="middle" font-size="11" font-weight="bold">σ₀</text>
  <text x="450" y="495" text-anchor="middle" font-size="9">Fano Refl.</text>
  
  <rect x="540" y="455" width="80" height="50" fill="#E0F7FA" stroke="#00BCD4" stroke-width="2" rx="4"/>
  <text x="580" y="478" text-anchor="middle" font-size="11" font-weight="bold">Measure</text>
  <text x="580" y="495" text-anchor="middle" font-size="9">→ {e₀,...,e₇}</text>
  
  <!-- Result -->
  <text x="680" y="485" text-anchor="middle" font-size="12" fill="#333">|eₖ⟩</text>
  
  <!-- Bottom note -->
  <text x="400" y="555" text-anchor="middle" font-size="11" fill="#666">
    Octonionic qubit: 7 degrees of freedom (vs 2 for standard qubit)
  </text>
</svg>