<svg xmlns="http://www.w3.org/2000/svg" width="800" height="500">
<rect width="800" height="500" fill="#0a0a2e"/>
<text x="400" y="25" text-anchor="middle" fill="#00ccff" font-size="16" font-family="monospace">Dispersion Relation: Continuous vs Lattice</text>
<line x1="60" y1="440" x2="740" y2="440" stroke="#445" stroke-width="1"/>
<line x1="400.0" y1="80" x2="400.0" y2="440" stroke="#445" stroke-width="1"/>
<text x="400" y="495" text-anchor="middle" fill="#888" font-size="12" font-family="monospace">momentum p</text>
<text x="15" y="250" fill="#888" font-size="12" font-family="monospace" transform="rotate(-90,15,250)">energy E</text>
<line x1="60.0" y1="80" x2="60.0" y2="440" stroke="#ff444444" stroke-width="1" stroke-dasharray="4,4"/>
<line x1="740.0" y1="80" x2="740.0" y2="440" stroke="#ff444444" stroke-width="1" stroke-dasharray="4,4"/>
<text x="60.0" y="75" text-anchor="middle" fill="#ff4444" font-size="10" font-family="monospace">-π/a</text>
<text x="740.0" y="75" text-anchor="middle" fill="#ff4444" font-size="10" font-family="monospace">+π/a</text>
<polyline points="60.0,-74.07879786014792 66.80000000000001,-63.797221902944955 73.60000000000002,-53.51564594574194 80.39999999999998,-43.23406998853909 87.19999999999999,-32.95249403133607 94.0,-22.67091807413317 100.80000000000001,-12.389342116930152 107.60000000000002,-2.1077661597271913 114.39999999999998,8.17380979747577 121.19999999999999,18.455385754678673 128.0,28.73696171188169 134.8,39.01853766908465 141.60000000000002,49.300113626287555 148.39999999999998,59.581689583490515 155.2,69.86326554069348 162.0,80.1448414978965 168.8,90.42641745509945 175.60000000000002,100.70799341230236 182.39999999999998,110.98956936950526 189.2,121.27114532670828 196.0,131.55272128391124 202.8,141.8342972411142 209.6,152.11587319831716 216.39999999999998,162.39744915552006 223.2,172.67902511272308 230.0,182.96060106992604 236.8,193.24217702712903 243.60000000000002,203.52375298433196 250.4,213.80532894153492 257.20000000000005,224.0869048987379 264.0,234.36848085594082 270.8,244.65005681314375 277.6,254.93163277034677 284.4,265.2132087275497 291.20000000000005,275.49478468475274 298.0,285.77636064195565 304.79999999999995,296.0579365991586 311.6,306.33951255636157 318.4,316.6210885135645 325.2,326.90266447076743 332.0,337.1842404279704 338.79999999999995,347.4658163851733 345.6,357.7473923423764 352.4,368.0289682995793 359.2,378.31054425678224 366.0,388.5921202139852 372.79999999999995,398.8736961711881 379.6,409.1552721283912 386.4,419.4368480855941 393.2,429.71842404279704 400.0,440.0 406.8,429.71842404279704 413.6,419.4368480855941 420.40000000000003,409.15527212839106 427.20000000000005,398.87369617118816 434.00000000000006,388.5921202139852 440.8,378.31054425678224 447.59999999999997,368.02896829957933 454.40000000000003,357.7473923423763 461.2,347.4658163851734 468.0,337.1842404279705 474.8,326.90266447076743 481.6,316.62108851356453 488.4,306.33951255636146 495.2,296.05793659915855 502.0,285.77636064195565 508.8,275.4947846847526 515.6,265.21320872754967 522.4000000000001,254.93163277034665 529.2,244.65005681314375 536.0,234.36848085594085 542.8000000000001,224.0869048987378 549.5999999999999,213.8053289415349 556.4,203.523752984332 563.2,193.24217702712895 570.0,182.96060106992604 576.8,172.67902511272314 583.6,162.39744915552006 590.4,152.11587319831722 597.2,141.83429724111414 604.0,131.55272128391124 610.8,121.27114532670834 617.5999999999999,110.98956936950543 624.4000000000001,100.70799341230224 631.2,90.42641745509934 638.0,80.1448414978965 644.8,69.86326554069353 651.5999999999999,59.581689583490686 658.4,49.300113626287555 665.2,39.01853766908454 672.0,28.73696171188169 678.8,18.455385754678787 685.5999999999999,8.173809797475826 692.4,-2.1077661597271913 699.2,-12.389342116930209 706.0,-22.67091807413317 712.8,-32.952494031336016 719.6,-43.23406998853909 726.4,-53.51564594574194 733.2,-63.79722190294507 740.0,-74.07879786014792" fill="none" stroke="#ffffff" stroke-width="2" opacity="0.5"/>
<polyline points="60.0,112.72727272727275 66.80000000000001,112.88876206212421 73.60000000000002,113.37307069620203 80.39999999999998,114.17972067535567 87.19999999999999,115.30791593344361 94.0,116.75654307795497 100.80000000000001,118.52417248879283 107.60000000000002,120.60905972913724 114.39999999999998,123.00914726699352 121.19999999999999,125.72206650572775 128.0,128.74514012158613 134.8,132.07538470588992 141.60000000000002,135.70951370929959 148.39999999999998,139.64394068524257 155.2,143.87478282930272 162.0,148.39786481107967 168.8,153.20872289473556 175.60000000000002,158.30260934416395 182.39999999999998,163.67449710843147 189.2,169.31908478287068 196.0,175.2308018409263 202.8,181.4038141315923 209.6,187.83202963701444 216.39999999999998,194.50910448457688 223.2,201.42844920753805 230.0,208.58323524803902 236.8,215.96640169606553 243.60000000000002,223.570662257714 250.4,231.3885124458834 257.20000000000005,239.41223698629864 264.0,247.63391743155424 270.8,256.04543997566634 277.6,264.6385034614193 284.4,273.4046275726058 291.20000000000005,282.3351612030751 298.0,291.42129099433015 304.79999999999995,300.65405003324895 311.6,310.02432670134453 318.4,319.52287366683265 325.2,329.1403170106319 332.0,338.86716547729 338.79999999999995,348.6938198417067 345.6,358.61058238241117 352.4,368.6076664520406 359.2,378.67520613558105 366.0,388.80326598683354 372.79999999999995,398.9818508335004 379.6,409.20091564121356 386.4,419.45037542677017 393.2,429.72011521079435 400.0,440.0 406.8,429.72011521079435 413.6,419.45037542677017 420.40000000000003,409.20091564121344 427.20000000000005,398.98185083350046 434.00000000000006,388.80326598683354 440.8,378.67520613558105 447.59999999999997,368.6076664520407 454.40000000000003,358.6105823824111 461.2,348.69381984170684 468.0,338.86716547729003 474.8,329.1403170106319 481.6,319.52287366683277 488.4,310.02432670134453 495.2,300.65405003324895 502.0,291.42129099433015 508.8,282.33516120307496 515.6,273.40462757260576 522.4000000000001,264.6385034614192 529.2,256.04543997566634 536.0,247.63391743155424 542.8000000000001,239.41223698629855 549.5999999999999,231.38851244588338 556.4,223.570662257714 563.2,215.9664016960655 570.0,208.58323524803902 576.8,201.42844920753814 583.6,194.50910448457688 590.4,187.83202963701447 597.2,181.40381413159224 604.0,175.2308018409263 610.8,169.31908478287073 617.5999999999999,163.67449710843152 624.4000000000001,158.3026093441639 631.2,153.20872289473556 638.0,148.39786481107967 644.8,143.87478282930272 651.5999999999999,139.64394068524257 658.4,135.70951370929959 665.2,132.07538470588986 672.0,128.74514012158613 678.8,125.72206650572775 685.5999999999999,123.00914726699352 692.4,120.60905972913724 699.2,118.52417248879277 706.0,116.75654307795497 712.8,115.30791593344367 719.6,114.17972067535567 726.4,113.37307069620203 733.2,112.88876206212421 740.0,112.72727272727275" fill="none" stroke="#00ff88" stroke-width="2.5"/>
<line x1="580" y1="100" x2="610" y2="100" stroke="white" stroke-width="2" opacity="0.5"/>
<text x="615" y="104" fill="white" font-size="11" font-family="monospace">E = |p| (continuous)</text>
<line x1="580" y1="120" x2="610" y2="120" stroke="#00ff88" stroke-width="2.5"/>
<text x="615" y="124" fill="#00ff88" font-size="11" font-family="monospace">E = (2/a)sin(pa/2) (lattice)</text>
<line x1="60" y1="112.72727272727275" x2="740" y2="112.72727272727275" stroke="#ff8800" stroke-width="1" stroke-dasharray="3,3"/>
<text x="65" y="107.72727272727275" fill="#ff8800" font-size="10" font-family="monospace">E_max = 2/a (Planck cutoff)</text>
</svg>