<?xml version="1.0" encoding="UTF-8"?>
<svg xmlns="http://www.w3.org/2000/svg" viewBox="0 0 800 500" font-family="monospace">
  <defs>
    <linearGradient id="tropGrad" x1="0%" y1="0%" x2="100%" y2="0%">
      <stop offset="0%" style="stop-color:#2196F3;stop-opacity:1" />
      <stop offset="100%" style="stop-color:#4CAF50;stop-opacity:1" />
    </linearGradient>
    <marker id="arrow" markerWidth="10" markerHeight="7" refX="0" refY="3.5" orient="auto">
      <polygon points="0 0, 10 3.5, 0 7" fill="#333" />
    </marker>
  </defs>
  
  <rect width="800" height="500" fill="#f5f5f5" rx="10"/>
  <text x="400" y="35" text-anchor="middle" font-size="20" font-weight="bold" fill="#333">
    Tropical Neural Compilation: ReLU → (max, +) Semiring
  </text>
  
  <!-- ReLU Network Side -->
  <rect x="30" y="60" width="330" height="380" fill="white" stroke="#2196F3" stroke-width="2" rx="8"/>
  <text x="195" y="85" text-anchor="middle" font-size="16" font-weight="bold" fill="#2196F3">ReLU Network</text>
  
  <!-- Input neurons -->
  <circle cx="100" cy="180" r="20" fill="#E3F2FD" stroke="#2196F3" stroke-width="2"/>
  <text x="100" y="185" text-anchor="middle" font-size="12">x₁</text>
  <circle cx="100" cy="280" r="20" fill="#E3F2FD" stroke="#2196F3" stroke-width="2"/>
  <text x="100" y="285" text-anchor="middle" font-size="12">x₂</text>
  
  <!-- Hidden neurons -->
  <circle cx="220" cy="140" r="20" fill="#BBDEFB" stroke="#2196F3" stroke-width="2"/>
  <text x="220" y="145" text-anchor="middle" font-size="10">ReLU</text>
  <circle cx="220" cy="230" r="20" fill="#BBDEFB" stroke="#2196F3" stroke-width="2"/>
  <text x="220" y="235" text-anchor="middle" font-size="10">ReLU</text>
  <circle cx="220" cy="320" r="20" fill="#BBDEFB" stroke="#2196F3" stroke-width="2"/>
  <text x="220" y="325" text-anchor="middle" font-size="10">ReLU</text>
  
  <!-- Output -->
  <circle cx="310" cy="230" r="20" fill="#90CAF9" stroke="#2196F3" stroke-width="2"/>
  <text x="310" y="235" text-anchor="middle" font-size="12">y</text>
  
  <!-- Connections -->
  <line x1="120" y1="180" x2="200" y2="140" stroke="#666" stroke-width="1.5"/>
  <line x1="120" y1="180" x2="200" y2="230" stroke="#666" stroke-width="1.5"/>
  <line x1="120" y1="180" x2="200" y2="320" stroke="#666" stroke-width="1.5"/>
  <line x1="120" y1="280" x2="200" y2="140" stroke="#666" stroke-width="1.5"/>
  <line x1="120" y1="280" x2="200" y2="230" stroke="#666" stroke-width="1.5"/>
  <line x1="120" y1="280" x2="200" y2="320" stroke="#666" stroke-width="1.5"/>
  <line x1="240" y1="140" x2="290" y2="230" stroke="#666" stroke-width="1.5"/>
  <line x1="240" y1="230" x2="290" y2="230" stroke="#666" stroke-width="1.5"/>
  <line x1="240" y1="320" x2="290" y2="230" stroke="#666" stroke-width="1.5"/>
  
  <!-- Core Identity -->
  <rect x="60" y="370" width="270" height="50" fill="#E8F5E9" stroke="#4CAF50" stroke-width="2" rx="5"/>
  <text x="195" y="400" text-anchor="middle" font-size="14" font-weight="bold" fill="#2E7D32">
    ReLU(x) = max(x, 0) = x ⊕ₜ 0
  </text>

  <!-- Arrow -->
  <line x1="370" y1="250" x2="430" y2="250" stroke="#333" stroke-width="3" marker-end="url(#arrow)"/>
  <text x="400" y="240" text-anchor="middle" font-size="12" fill="#333">compile</text>
  
  <!-- Tropical Side -->
  <rect x="440" y="60" width="330" height="380" fill="white" stroke="#4CAF50" stroke-width="2" rx="8"/>
  <text x="605" y="85" text-anchor="middle" font-size="16" font-weight="bold" fill="#4CAF50">Tropical Polynomial</text>
  
  <!-- Tropical formula -->
  <text x="605" y="130" text-anchor="middle" font-size="13" fill="#333">f(x) = ⊕ᵢ (cᵢ ⊙ x^{aᵢ})</text>
  <text x="605" y="155" text-anchor="middle" font-size="13" fill="#333">= maxᵢ(cᵢ + aᵢ · x)</text>
  
  <!-- Piecewise linear graph -->
  <rect x="480" y="170" width="250" height="150" fill="#F1F8E9" stroke="#8BC34A" stroke-width="1" rx="3"/>
  <text x="605" y="190" text-anchor="middle" font-size="11" fill="#666">Piecewise Linear Function</text>
  
  <!-- Draw PWL function -->
  <polyline points="490,310 530,290 570,260 610,220 650,200 690,190 720,185" 
            fill="none" stroke="#4CAF50" stroke-width="3"/>
  <!-- Breakpoints -->
  <circle cx="530" cy="290" r="4" fill="#FF5722"/>
  <circle cx="610" cy="220" r="4" fill="#FF5722"/>
  <circle cx="690" cy="190" r="4" fill="#FF5722"/>
  <text x="605" y="340" text-anchor="middle" font-size="10" fill="#666">Breakpoints = tropical corners</text>
  
  <!-- Semiring box -->
  <rect x="470" y="360" width="280" height="60" fill="#E8F5E9" stroke="#4CAF50" stroke-width="2" rx="5"/>
  <text x="610" y="383" text-anchor="middle" font-size="13" font-weight="bold" fill="#2E7D32">
    𝕋 = (ℝ ∪ {-∞}, max, +)
  </text>
  <text x="610" y="408" text-anchor="middle" font-size="12" fill="#555">
    ⊕ = max  |  ⊙ = +  |  0ₜ = -∞  |  1ₜ = 0
  </text>
</svg>