<svg xmlns="http://www.w3.org/2000/svg" width="800" height="800">
  <rect width="800" height="800" fill="white"/>
  <text x="400.0" y="30" text-anchor="middle" font-size="20" font-weight="bold" fill="#333">Berggren Tree on the Poincaré Disk</text>
  <text x="400.0" y="52" text-anchor="middle" font-size="14" fill="#666">Hyperbolic Shortcuts Through the Pythagorean Triple Tree</text>
  <circle cx="400.0" cy="400.0" r="350" fill="#f0f0f0" stroke="#999" stroke-width="2"/>
  <line x1="575.0" y1="166.7" x2="525.0" y2="100.0" stroke="#e41a1c" stroke-width="1.5" opacity="0.85"/>
  <line x1="525.0" y1="100.0" x2="494.2" y2="76.9" stroke="#e41a1c" stroke-width="1.5" opacity="0.70"/>
  <line x1="494.2" y1="76.9" x2="475.0" y2="66.7" stroke="#e41a1c" stroke-width="1.5" opacity="0.55"/>
  <line x1="475.0" y1="66.7" x2="462.1" y2="61.3" stroke="#e41a1c" stroke-width="1.5" opacity="0.40"/>
  <line x1="475.0" y1="66.7" x2="669.6" y2="179.3" stroke="#377eb8" stroke-width="1.5" opacity="0.40"/>
  <line x1="475.0" y1="66.7" x2="687.9" y2="204.3" stroke="#4daf4a" stroke-width="1.5" opacity="0.40"/>
  <line x1="494.2" y1="76.9" x2="666.3" y2="176.8" stroke="#377eb8" stroke-width="1.5" opacity="0.55"/>
  <line x1="666.3" y1="176.8" x2="559.3" y2="89.2" stroke="#e41a1c" stroke-width="1.5" opacity="0.40"/>
  <line x1="666.3" y1="176.8" x2="643.4" y2="149.1" stroke="#377eb8" stroke-width="1.5" opacity="0.40"/>
  <line x1="666.3" y1="176.8" x2="719.4" y2="259.3" stroke="#4daf4a" stroke-width="1.5" opacity="0.40"/>
  <line x1="494.2" y1="76.9" x2="689.5" y2="209.1" stroke="#4daf4a" stroke-width="1.5" opacity="0.55"/>
  <line x1="689.5" y1="209.1" x2="569.6" y2="94.9" stroke="#e41a1c" stroke-width="1.5" opacity="0.40"/>
  <line x1="689.5" y1="209.1" x2="638.3" y2="144.4" stroke="#377eb8" stroke-width="1.5" opacity="0.40"/>
  <line x1="689.5" y1="209.1" x2="725.0" y2="273.7" stroke="#4daf4a" stroke-width="1.5" opacity="0.40"/>
  <line x1="525.0" y1="100.0" x2="660.1" y2="173.0" stroke="#377eb8" stroke-width="1.5" opacity="0.70"/>
  <line x1="660.1" y1="173.0" x2="557.1" y2="88.9" stroke="#e41a1c" stroke-width="1.5" opacity="0.55"/>
  <line x1="557.1" y1="88.9" x2="509.8" y2="68.4" stroke="#e41a1c" stroke-width="1.5" opacity="0.40"/>
  <line x1="557.1" y1="88.9" x2="660.5" y2="166.7" stroke="#377eb8" stroke-width="1.5" opacity="0.40"/>
  <line x1="557.1" y1="88.9" x2="700.2" y2="220.8" stroke="#4daf4a" stroke-width="1.5" opacity="0.40"/>
  <line x1="660.1" y1="173.0" x2="644.0" y2="150.2" stroke="#377eb8" stroke-width="1.5" opacity="0.55"/>
  <line x1="644.0" y1="150.2" x2="549.5" y2="83.8" stroke="#e41a1c" stroke-width="1.5" opacity="0.40"/>
  <line x1="644.0" y1="150.2" x2="647.9" y2="153.1" stroke="#377eb8" stroke-width="1.5" opacity="0.40"/>
  <line x1="644.0" y1="150.2" x2="715.0" y2="248.1" stroke="#4daf4a" stroke-width="1.5" opacity="0.40"/>
  <line x1="660.1" y1="173.0" x2="717.7" y2="257.3" stroke="#4daf4a" stroke-width="1.5" opacity="0.55"/>
  <line x1="717.7" y1="257.3" x2="582.7" y2="101.9" stroke="#e41a1c" stroke-width="1.5" opacity="0.40"/>
  <line x1="717.7" y1="257.3" x2="631.2" y2="137.7" stroke="#377eb8" stroke-width="1.5" opacity="0.40"/>
  <line x1="717.7" y1="257.3" x2="733.8" y2="297.6" stroke="#4daf4a" stroke-width="1.5" opacity="0.40"/>
  <line x1="525.0" y1="100.0" x2="691.7" y2="218.5" stroke="#4daf4a" stroke-width="1.5" opacity="0.70"/>
  <line x1="691.7" y1="218.5" x2="571.4" y2="96.9" stroke="#e41a1c" stroke-width="1.5" opacity="0.55"/>
  <line x1="571.4" y1="96.9" x2="516.9" y2="71.0" stroke="#e41a1c" stroke-width="1.5" opacity="0.40"/>
  <line x1="571.4" y1="96.9" x2="658.5" y2="164.6" stroke="#377eb8" stroke-width="1.5" opacity="0.40"/>
  <line x1="571.4" y1="96.9" x2="702.3" y2="224.5" stroke="#4daf4a" stroke-width="1.5" opacity="0.40"/>
  <line x1="691.7" y1="218.5" x2="636.8" y2="143.8" stroke="#377eb8" stroke-width="1.5" opacity="0.55"/>
  <line x1="636.8" y1="143.8" x2="546.4" y2="82.5" stroke="#e41a1c" stroke-width="1.5" opacity="0.40"/>
  <line x1="636.8" y1="143.8" x2="649.0" y2="154.3" stroke="#377eb8" stroke-width="1.5" opacity="0.40"/>
  <line x1="636.8" y1="143.8" x2="713.5" y2="245.3" stroke="#4daf4a" stroke-width="1.5" opacity="0.40"/>
  <line x1="691.7" y1="218.5" x2="725.0" y2="277.8" stroke="#4daf4a" stroke-width="1.5" opacity="0.55"/>
  <line x1="725.0" y1="277.8" x2="587.1" y2="105.0" stroke="#e41a1c" stroke-width="1.5" opacity="0.40"/>
  <line x1="725.0" y1="277.8" x2="628.2" y2="135.2" stroke="#377eb8" stroke-width="1.5" opacity="0.40"/>
  <line x1="725.0" y1="277.8" x2="736.3" y2="308.7" stroke="#4daf4a" stroke-width="1.5" opacity="0.40"/>
  <line x1="575.0" y1="166.7" x2="645.0" y2="166.7" stroke="#377eb8" stroke-width="1.5" opacity="0.85"/>
  <line x1="645.0" y1="166.7" x2="551.7" y2="88.9" stroke="#e41a1c" stroke-width="1.5" opacity="0.70"/>
  <line x1="551.7" y1="88.9" x2="507.3" y2="68.8" stroke="#e41a1c" stroke-width="1.5" opacity="0.55"/>
  <line x1="507.3" y1="68.8" x2="482.5" y2="61.0" stroke="#e41a1c" stroke-width="1.5" opacity="0.40"/>
  <line x1="507.3" y1="68.8" x2="666.8" y2="174.0" stroke="#377eb8" stroke-width="1.5" opacity="0.40"/>
  <line x1="507.3" y1="68.8" x2="693.1" y2="209.6" stroke="#4daf4a" stroke-width="1.5" opacity="0.40"/>
  <line x1="551.7" y1="88.9" x2="660.8" y2="167.6" stroke="#377eb8" stroke-width="1.5" opacity="0.55"/>
  <line x1="660.8" y1="167.6" x2="556.6" y2="87.2" stroke="#e41a1c" stroke-width="1.5" opacity="0.40"/>
  <line x1="660.8" y1="167.6" x2="645.0" y2="150.2" stroke="#377eb8" stroke-width="1.5" opacity="0.40"/>
  <line x1="660.8" y1="167.6" x2="718.5" y2="255.5" stroke="#4daf4a" stroke-width="1.5" opacity="0.40"/>
  <line x1="551.7" y1="88.9" x2="699.0" y2="220.0" stroke="#4daf4a" stroke-width="1.5" opacity="0.55"/>
  <line x1="699.0" y1="220.0" x2="573.4" y2="96.3" stroke="#e41a1c" stroke-width="1.5" opacity="0.40"/>
  <line x1="699.0" y1="220.0" x2="636.8" y2="142.5" stroke="#377eb8" stroke-width="1.5" opacity="0.40"/>
  <line x1="699.0" y1="220.0" x2="728.0" y2="279.0" stroke="#4daf4a" stroke-width="1.5" opacity="0.40"/>
  <line x1="645.0" y1="166.7" x2="645.0" y2="152.9" stroke="#377eb8" stroke-width="1.5" opacity="0.70"/>
  <line x1="645.0" y1="152.9" x2="550.1" y2="84.6" stroke="#e41a1c" stroke-width="1.5" opacity="0.55"/>
  <line x1="550.1" y1="84.6" x2="506.2" y2="66.9" stroke="#e41a1c" stroke-width="1.5" opacity="0.40"/>
  <line x1="550.1" y1="84.6" x2="661.6" y2="167.6" stroke="#377eb8" stroke-width="1.5" opacity="0.40"/>
  <line x1="550.1" y1="84.6" x2="699.3" y2="218.9" stroke="#4daf4a" stroke-width="1.5" opacity="0.40"/>
  <line x1="645.0" y1="152.9" x2="647.4" y2="152.9" stroke="#377eb8" stroke-width="1.5" opacity="0.55"/>
  <line x1="647.4" y1="152.9" x2="550.9" y2="84.3" stroke="#e41a1c" stroke-width="1.5" opacity="0.40"/>
  <line x1="647.4" y1="152.9" x2="647.4" y2="152.5" stroke="#377eb8" stroke-width="1.5" opacity="0.40"/>
  <line x1="647.4" y1="152.9" x2="715.8" y2="249.3" stroke="#4daf4a" stroke-width="1.5" opacity="0.40"/>
  <line x1="645.0" y1="152.9" x2="715.0" y2="249.0" stroke="#4daf4a" stroke-width="1.5" opacity="0.55"/>
  <line x1="715.0" y1="249.0" x2="580.9" y2="100.6" stroke="#e41a1c" stroke-width="1.5" opacity="0.40"/>
  <line x1="715.0" y1="249.0" x2="632.5" y2="138.5" stroke="#377eb8" stroke-width="1.5" opacity="0.40"/>
  <line x1="715.0" y1="249.0" x2="733.0" y2="293.3" stroke="#4daf4a" stroke-width="1.5" opacity="0.40"/>
  <line x1="645.0" y1="166.7" x2="713.4" y2="253.5" stroke="#4daf4a" stroke-width="1.5" opacity="0.70"/>
  <line x1="713.4" y1="253.5" x2="581.2" y2="101.8" stroke="#e41a1c" stroke-width="1.5" opacity="0.55"/>
  <line x1="581.2" y1="101.8" x2="521.6" y2="72.3" stroke="#e41a1c" stroke-width="1.5" opacity="0.40"/>
  <line x1="581.2" y1="101.8" x2="657.4" y2="163.1" stroke="#377eb8" stroke-width="1.5" opacity="0.40"/>
  <line x1="581.2" y1="101.8" x2="703.9" y2="227.0" stroke="#4daf4a" stroke-width="1.5" opacity="0.40"/>
  <line x1="713.4" y1="253.5" x2="631.6" y2="138.6" stroke="#377eb8" stroke-width="1.5" opacity="0.55"/>
  <line x1="631.6" y1="138.6" x2="544.2" y2="81.4" stroke="#e41a1c" stroke-width="1.5" opacity="0.40"/>
  <line x1="631.6" y1="138.6" x2="649.9" y2="155.2" stroke="#377eb8" stroke-width="1.5" opacity="0.40"/>
  <line x1="631.6" y1="138.6" x2="712.6" y2="243.1" stroke="#4daf4a" stroke-width="1.5" opacity="0.40"/>
  <line x1="713.4" y1="253.5" x2="731.9" y2="295.4" stroke="#4daf4a" stroke-width="1.5" opacity="0.55"/>
  <line x1="731.9" y1="295.4" x2="591.0" y2="107.2" stroke="#e41a1c" stroke-width="1.5" opacity="0.40"/>
  <line x1="731.9" y1="295.4" x2="625.6" y2="132.9" stroke="#377eb8" stroke-width="1.5" opacity="0.40"/>
  <line x1="731.9" y1="295.4" x2="739.3" y2="319.0" stroke="#4daf4a" stroke-width="1.5" opacity="0.40"/>
  <line x1="575.0" y1="166.7" x2="691.7" y2="244.4" stroke="#4daf4a" stroke-width="1.5" opacity="0.85"/>
  <line x1="691.7" y1="244.4" x2="575.0" y2="103.0" stroke="#e41a1c" stroke-width="1.5" opacity="0.70"/>
  <line x1="575.0" y1="103.0" x2="519.0" y2="73.3" stroke="#e41a1c" stroke-width="1.5" opacity="0.55"/>
  <line x1="519.0" y1="73.3" x2="489.4" y2="63.0" stroke="#e41a1c" stroke-width="1.5" opacity="0.40"/>
  <line x1="519.0" y1="73.3" x2="665.2" y2="172.3" stroke="#377eb8" stroke-width="1.5" opacity="0.40"/>
  <line x1="519.0" y1="73.3" x2="694.6" y2="212.1" stroke="#4daf4a" stroke-width="1.5" opacity="0.40"/>
  <line x1="575.0" y1="103.0" x2="657.4" y2="164.2" stroke="#377eb8" stroke-width="1.5" opacity="0.55"/>
  <line x1="657.4" y1="164.2" x2="555.2" y2="86.6" stroke="#e41a1c" stroke-width="1.5" opacity="0.40"/>
  <line x1="657.4" y1="164.2" x2="645.5" y2="150.8" stroke="#377eb8" stroke-width="1.5" opacity="0.40"/>
  <line x1="657.4" y1="164.2" x2="717.7" y2="254.0" stroke="#4daf4a" stroke-width="1.5" opacity="0.40"/>
  <line x1="575.0" y1="103.0" x2="702.3" y2="226.4" stroke="#4daf4a" stroke-width="1.5" opacity="0.55"/>
  <line x1="702.3" y1="226.4" x2="575.0" y2="97.3" stroke="#e41a1c" stroke-width="1.5" opacity="0.40"/>
  <line x1="702.3" y1="226.4" x2="635.8" y2="141.7" stroke="#377eb8" stroke-width="1.5" opacity="0.40"/>
  <line x1="702.3" y1="226.4" x2="728.8" y2="282.1" stroke="#4daf4a" stroke-width="1.5" opacity="0.40"/>
  <line x1="691.7" y1="244.4" x2="632.1" y2="142.9" stroke="#377eb8" stroke-width="1.5" opacity="0.70"/>
  <line x1="632.1" y1="142.9" x2="544.8" y2="82.7" stroke="#e41a1c" stroke-width="1.5" opacity="0.55"/>
  <line x1="544.8" y1="82.7" x2="503.5" y2="66.3" stroke="#e41a1c" stroke-width="1.5" opacity="0.40"/>
  <line x1="544.8" y1="82.7" x2="662.2" y2="168.5" stroke="#377eb8" stroke-width="1.5" opacity="0.40"/>
  <line x1="544.8" y1="82.7" x2="698.4" y2="217.7" stroke="#4daf4a" stroke-width="1.5" opacity="0.40"/>
  <line x1="632.1" y1="142.9" x2="649.2" y2="155.1" stroke="#377eb8" stroke-width="1.5" opacity="0.55"/>
  <line x1="649.2" y1="155.1" x2="551.7" y2="84.8" stroke="#e41a1c" stroke-width="1.5" opacity="0.40"/>
  <line x1="649.2" y1="155.1" x2="647.0" y2="152.2" stroke="#377eb8" stroke-width="1.5" opacity="0.40"/>
  <line x1="649.2" y1="155.1" x2="716.1" y2="250.2" stroke="#4daf4a" stroke-width="1.5" opacity="0.40"/>
  <line x1="632.1" y1="142.9" x2="712.3" y2="244.4" stroke="#4daf4a" stroke-width="1.5" opacity="0.55"/>
  <line x1="712.3" y1="244.4" x2="579.7" y2="100.0" stroke="#e41a1c" stroke-width="1.5" opacity="0.40"/>
  <line x1="712.3" y1="244.4" x2="633.1" y2="139.2" stroke="#377eb8" stroke-width="1.5" opacity="0.40"/>
  <line x1="712.3" y1="244.4" x2="732.0" y2="291.0" stroke="#4daf4a" stroke-width="1.5" opacity="0.40"/>
  <line x1="691.7" y1="244.4" x2="722.4" y2="289.5" stroke="#4daf4a" stroke-width="1.5" opacity="0.70"/>
  <line x1="722.4" y1="289.5" x2="588.3" y2="107.6" stroke="#e41a1c" stroke-width="1.5" opacity="0.55"/>
  <line x1="588.3" y1="107.6" x2="525.0" y2="74.1" stroke="#e41a1c" stroke-width="1.5" opacity="0.40"/>
  <line x1="588.3" y1="107.6" x2="656.1" y2="162.0" stroke="#377eb8" stroke-width="1.5" opacity="0.40"/>
  <line x1="588.3" y1="107.6" x2="704.9" y2="229.3" stroke="#4daf4a" stroke-width="1.5" opacity="0.40"/>
  <line x1="722.4" y1="289.5" x2="626.0" y2="135.0" stroke="#377eb8" stroke-width="1.5" opacity="0.55"/>
  <line x1="626.0" y1="135.0" x2="541.8" y2="80.7" stroke="#e41a1c" stroke-width="1.5" opacity="0.40"/>
  <line x1="626.0" y1="135.0" x2="650.6" y2="156.1" stroke="#377eb8" stroke-width="1.5" opacity="0.40"/>
  <line x1="626.0" y1="135.0" x2="711.4" y2="241.4" stroke="#4daf4a" stroke-width="1.5" opacity="0.40"/>
  <line x1="722.4" y1="289.5" x2="734.1" y2="315.2" stroke="#4daf4a" stroke-width="1.5" opacity="0.55"/>
  <line x1="734.1" y1="315.2" x2="594.3" y2="110.3" stroke="#e41a1c" stroke-width="1.5" opacity="0.40"/>
  <line x1="734.1" y1="315.2" x2="622.5" y2="131.1" stroke="#377eb8" stroke-width="1.5" opacity="0.40"/>
  <line x1="734.1" y1="315.2" x2="739.7" y2="331.4" stroke="#4daf4a" stroke-width="1.5" opacity="0.40"/>
  <circle cx="575.0" cy="166.7" r="8" fill="#e41a1c" stroke="white" stroke-width="0.5"/>
  <text x="575.0" y="154.7" text-anchor="middle" font-size="10" fill="#333">(3,4,5)</text>
  <circle cx="525.0" cy="100.0" r="7" fill="#377eb8" stroke="white" stroke-width="0.5"/>
  <text x="525.0" y="89.0" text-anchor="middle" font-size="10" fill="#333">(5,12,13)</text>
  <circle cx="494.2" cy="76.9" r="6" fill="#4daf4a" stroke="white" stroke-width="0.5"/>
  <circle cx="475.0" cy="66.7" r="5" fill="#984ea3" stroke="white" stroke-width="0.5"/>
  <circle cx="462.1" cy="61.3" r="4" fill="#ff7f00" stroke="white" stroke-width="0.5"/>
  <circle cx="669.6" cy="179.3" r="4" fill="#ff7f00" stroke="white" stroke-width="0.5"/>
  <circle cx="687.9" cy="204.3" r="4" fill="#ff7f00" stroke="white" stroke-width="0.5"/>
  <circle cx="666.3" cy="176.8" r="5" fill="#984ea3" stroke="white" stroke-width="0.5"/>
  <circle cx="559.3" cy="89.2" r="4" fill="#ff7f00" stroke="white" stroke-width="0.5"/>
  <circle cx="643.4" cy="149.1" r="4" fill="#ff7f00" stroke="white" stroke-width="0.5"/>
  <circle cx="719.4" cy="259.3" r="4" fill="#ff7f00" stroke="white" stroke-width="0.5"/>
  <circle cx="689.5" cy="209.1" r="5" fill="#984ea3" stroke="white" stroke-width="0.5"/>
  <circle cx="569.6" cy="94.9" r="4" fill="#ff7f00" stroke="white" stroke-width="0.5"/>
  <circle cx="638.3" cy="144.4" r="4" fill="#ff7f00" stroke="white" stroke-width="0.5"/>
  <circle cx="725.0" cy="273.7" r="4" fill="#ff7f00" stroke="white" stroke-width="0.5"/>
  <circle cx="660.1" cy="173.0" r="6" fill="#4daf4a" stroke="white" stroke-width="0.5"/>
  <circle cx="557.1" cy="88.9" r="5" fill="#984ea3" stroke="white" stroke-width="0.5"/>
  <circle cx="509.8" cy="68.4" r="4" fill="#ff7f00" stroke="white" stroke-width="0.5"/>
  <circle cx="660.5" cy="166.7" r="4" fill="#ff7f00" stroke="white" stroke-width="0.5"/>
  <circle cx="700.2" cy="220.8" r="4" fill="#ff7f00" stroke="white" stroke-width="0.5"/>
  <circle cx="644.0" cy="150.2" r="5" fill="#984ea3" stroke="white" stroke-width="0.5"/>
  <circle cx="549.5" cy="83.8" r="4" fill="#ff7f00" stroke="white" stroke-width="0.5"/>
  <circle cx="647.9" cy="153.1" r="4" fill="#ff7f00" stroke="white" stroke-width="0.5"/>
  <circle cx="715.0" cy="248.1" r="4" fill="#ff7f00" stroke="white" stroke-width="0.5"/>
  <circle cx="717.7" cy="257.3" r="5" fill="#984ea3" stroke="white" stroke-width="0.5"/>
  <circle cx="582.7" cy="101.9" r="4" fill="#ff7f00" stroke="white" stroke-width="0.5"/>
  <circle cx="631.2" cy="137.7" r="4" fill="#ff7f00" stroke="white" stroke-width="0.5"/>
  <circle cx="733.8" cy="297.6" r="4" fill="#ff7f00" stroke="white" stroke-width="0.5"/>
  <circle cx="691.7" cy="218.5" r="6" fill="#4daf4a" stroke="white" stroke-width="0.5"/>
  <circle cx="571.4" cy="96.9" r="5" fill="#984ea3" stroke="white" stroke-width="0.5"/>
  <circle cx="516.9" cy="71.0" r="4" fill="#ff7f00" stroke="white" stroke-width="0.5"/>
  <circle cx="658.5" cy="164.6" r="4" fill="#ff7f00" stroke="white" stroke-width="0.5"/>
  <circle cx="702.3" cy="224.5" r="4" fill="#ff7f00" stroke="white" stroke-width="0.5"/>
  <circle cx="636.8" cy="143.8" r="5" fill="#984ea3" stroke="white" stroke-width="0.5"/>
  <circle cx="546.4" cy="82.5" r="4" fill="#ff7f00" stroke="white" stroke-width="0.5"/>
  <circle cx="649.0" cy="154.3" r="4" fill="#ff7f00" stroke="white" stroke-width="0.5"/>
  <circle cx="713.5" cy="245.3" r="4" fill="#ff7f00" stroke="white" stroke-width="0.5"/>
  <circle cx="725.0" cy="277.8" r="5" fill="#984ea3" stroke="white" stroke-width="0.5"/>
  <circle cx="587.1" cy="105.0" r="4" fill="#ff7f00" stroke="white" stroke-width="0.5"/>
  <circle cx="628.2" cy="135.2" r="4" fill="#ff7f00" stroke="white" stroke-width="0.5"/>
  <circle cx="736.3" cy="308.7" r="4" fill="#ff7f00" stroke="white" stroke-width="0.5"/>
  <circle cx="645.0" cy="166.7" r="7" fill="#377eb8" stroke="white" stroke-width="0.5"/>
  <text x="645.0" y="155.7" text-anchor="middle" font-size="10" fill="#333">(21,20,29)</text>
  <circle cx="551.7" cy="88.9" r="6" fill="#4daf4a" stroke="white" stroke-width="0.5"/>
  <circle cx="507.3" cy="68.8" r="5" fill="#984ea3" stroke="white" stroke-width="0.5"/>
  <circle cx="482.5" cy="61.0" r="4" fill="#ff7f00" stroke="white" stroke-width="0.5"/>
  <circle cx="666.8" cy="174.0" r="4" fill="#ff7f00" stroke="white" stroke-width="0.5"/>
  <circle cx="693.1" cy="209.6" r="4" fill="#ff7f00" stroke="white" stroke-width="0.5"/>
  <circle cx="660.8" cy="167.6" r="5" fill="#984ea3" stroke="white" stroke-width="0.5"/>
  <circle cx="556.6" cy="87.2" r="4" fill="#ff7f00" stroke="white" stroke-width="0.5"/>
  <circle cx="645.0" cy="150.2" r="4" fill="#ff7f00" stroke="white" stroke-width="0.5"/>
  <circle cx="718.5" cy="255.5" r="4" fill="#ff7f00" stroke="white" stroke-width="0.5"/>
  <circle cx="699.0" cy="220.0" r="5" fill="#984ea3" stroke="white" stroke-width="0.5"/>
  <circle cx="573.4" cy="96.3" r="4" fill="#ff7f00" stroke="white" stroke-width="0.5"/>
  <circle cx="636.8" cy="142.5" r="4" fill="#ff7f00" stroke="white" stroke-width="0.5"/>
  <circle cx="728.0" cy="279.0" r="4" fill="#ff7f00" stroke="white" stroke-width="0.5"/>
  <circle cx="645.0" cy="152.9" r="6" fill="#4daf4a" stroke="white" stroke-width="0.5"/>
  <circle cx="550.1" cy="84.6" r="5" fill="#984ea3" stroke="white" stroke-width="0.5"/>
  <circle cx="506.2" cy="66.9" r="4" fill="#ff7f00" stroke="white" stroke-width="0.5"/>
  <circle cx="661.6" cy="167.6" r="4" fill="#ff7f00" stroke="white" stroke-width="0.5"/>
  <circle cx="699.3" cy="218.9" r="4" fill="#ff7f00" stroke="white" stroke-width="0.5"/>
  <circle cx="647.4" cy="152.9" r="5" fill="#984ea3" stroke="white" stroke-width="0.5"/>
  <circle cx="550.9" cy="84.3" r="4" fill="#ff7f00" stroke="white" stroke-width="0.5"/>
  <circle cx="647.4" cy="152.5" r="4" fill="#ff7f00" stroke="white" stroke-width="0.5"/>
  <circle cx="715.8" cy="249.3" r="4" fill="#ff7f00" stroke="white" stroke-width="0.5"/>
  <circle cx="715.0" cy="249.0" r="5" fill="#984ea3" stroke="white" stroke-width="0.5"/>
  <circle cx="580.9" cy="100.6" r="4" fill="#ff7f00" stroke="white" stroke-width="0.5"/>
  <circle cx="632.5" cy="138.5" r="4" fill="#ff7f00" stroke="white" stroke-width="0.5"/>
  <circle cx="733.0" cy="293.3" r="4" fill="#ff7f00" stroke="white" stroke-width="0.5"/>
  <circle cx="713.4" cy="253.5" r="6" fill="#4daf4a" stroke="white" stroke-width="0.5"/>
  <circle cx="581.2" cy="101.8" r="5" fill="#984ea3" stroke="white" stroke-width="0.5"/>
  <circle cx="521.6" cy="72.3" r="4" fill="#ff7f00" stroke="white" stroke-width="0.5"/>
  <circle cx="657.4" cy="163.1" r="4" fill="#ff7f00" stroke="white" stroke-width="0.5"/>
  <circle cx="703.9" cy="227.0" r="4" fill="#ff7f00" stroke="white" stroke-width="0.5"/>
  <circle cx="631.6" cy="138.6" r="5" fill="#984ea3" stroke="white" stroke-width="0.5"/>
  <circle cx="544.2" cy="81.4" r="4" fill="#ff7f00" stroke="white" stroke-width="0.5"/>
  <circle cx="649.9" cy="155.2" r="4" fill="#ff7f00" stroke="white" stroke-width="0.5"/>
  <circle cx="712.6" cy="243.1" r="4" fill="#ff7f00" stroke="white" stroke-width="0.5"/>
  <circle cx="731.9" cy="295.4" r="5" fill="#984ea3" stroke="white" stroke-width="0.5"/>
  <circle cx="591.0" cy="107.2" r="4" fill="#ff7f00" stroke="white" stroke-width="0.5"/>
  <circle cx="625.6" cy="132.9" r="4" fill="#ff7f00" stroke="white" stroke-width="0.5"/>
  <circle cx="739.3" cy="319.0" r="4" fill="#ff7f00" stroke="white" stroke-width="0.5"/>
  <circle cx="691.7" cy="244.4" r="7" fill="#377eb8" stroke="white" stroke-width="0.5"/>
  <text x="691.7" y="233.4" text-anchor="middle" font-size="10" fill="#333">(15,8,17)</text>
  <circle cx="575.0" cy="103.0" r="6" fill="#4daf4a" stroke="white" stroke-width="0.5"/>
  <circle cx="519.0" cy="73.3" r="5" fill="#984ea3" stroke="white" stroke-width="0.5"/>
  <circle cx="489.4" cy="63.0" r="4" fill="#ff7f00" stroke="white" stroke-width="0.5"/>
  <circle cx="665.2" cy="172.3" r="4" fill="#ff7f00" stroke="white" stroke-width="0.5"/>
  <circle cx="694.6" cy="212.1" r="4" fill="#ff7f00" stroke="white" stroke-width="0.5"/>
  <circle cx="657.4" cy="164.2" r="5" fill="#984ea3" stroke="white" stroke-width="0.5"/>
  <circle cx="555.2" cy="86.6" r="4" fill="#ff7f00" stroke="white" stroke-width="0.5"/>
  <circle cx="645.5" cy="150.8" r="4" fill="#ff7f00" stroke="white" stroke-width="0.5"/>
  <circle cx="717.7" cy="254.0" r="4" fill="#ff7f00" stroke="white" stroke-width="0.5"/>
  <circle cx="702.3" cy="226.4" r="5" fill="#984ea3" stroke="white" stroke-width="0.5"/>
  <circle cx="575.0" cy="97.3" r="4" fill="#ff7f00" stroke="white" stroke-width="0.5"/>
  <circle cx="635.8" cy="141.7" r="4" fill="#ff7f00" stroke="white" stroke-width="0.5"/>
  <circle cx="728.8" cy="282.1" r="4" fill="#ff7f00" stroke="white" stroke-width="0.5"/>
  <circle cx="632.1" cy="142.9" r="6" fill="#4daf4a" stroke="white" stroke-width="0.5"/>
  <circle cx="544.8" cy="82.7" r="5" fill="#984ea3" stroke="white" stroke-width="0.5"/>
  <circle cx="503.5" cy="66.3" r="4" fill="#ff7f00" stroke="white" stroke-width="0.5"/>
  <circle cx="662.2" cy="168.5" r="4" fill="#ff7f00" stroke="white" stroke-width="0.5"/>
  <circle cx="698.4" cy="217.7" r="4" fill="#ff7f00" stroke="white" stroke-width="0.5"/>
  <circle cx="649.2" cy="155.1" r="5" fill="#984ea3" stroke="white" stroke-width="0.5"/>
  <circle cx="551.7" cy="84.8" r="4" fill="#ff7f00" stroke="white" stroke-width="0.5"/>
  <circle cx="647.0" cy="152.2" r="4" fill="#ff7f00" stroke="white" stroke-width="0.5"/>
  <circle cx="716.1" cy="250.2" r="4" fill="#ff7f00" stroke="white" stroke-width="0.5"/>
  <circle cx="712.3" cy="244.4" r="5" fill="#984ea3" stroke="white" stroke-width="0.5"/>
  <circle cx="579.7" cy="100.0" r="4" fill="#ff7f00" stroke="white" stroke-width="0.5"/>
  <circle cx="633.1" cy="139.2" r="4" fill="#ff7f00" stroke="white" stroke-width="0.5"/>
  <circle cx="732.0" cy="291.0" r="4" fill="#ff7f00" stroke="white" stroke-width="0.5"/>
  <circle cx="722.4" cy="289.5" r="6" fill="#4daf4a" stroke="white" stroke-width="0.5"/>
  <circle cx="588.3" cy="107.6" r="5" fill="#984ea3" stroke="white" stroke-width="0.5"/>
  <circle cx="525.0" cy="74.1" r="4" fill="#ff7f00" stroke="white" stroke-width="0.5"/>
  <circle cx="656.1" cy="162.0" r="4" fill="#ff7f00" stroke="white" stroke-width="0.5"/>
  <circle cx="704.9" cy="229.3" r="4" fill="#ff7f00" stroke="white" stroke-width="0.5"/>
  <circle cx="626.0" cy="135.0" r="5" fill="#984ea3" stroke="white" stroke-width="0.5"/>
  <circle cx="541.8" cy="80.7" r="4" fill="#ff7f00" stroke="white" stroke-width="0.5"/>
  <circle cx="650.6" cy="156.1" r="4" fill="#ff7f00" stroke="white" stroke-width="0.5"/>
  <circle cx="711.4" cy="241.4" r="4" fill="#ff7f00" stroke="white" stroke-width="0.5"/>
  <circle cx="734.1" cy="315.2" r="5" fill="#984ea3" stroke="white" stroke-width="0.5"/>
  <circle cx="594.3" cy="110.3" r="4" fill="#ff7f00" stroke="white" stroke-width="0.5"/>
  <circle cx="622.5" cy="131.1" r="4" fill="#ff7f00" stroke="white" stroke-width="0.5"/>
  <circle cx="739.7" cy="331.4" r="4" fill="#ff7f00" stroke="white" stroke-width="0.5"/>
  <text x="20" y="700" font-size="12" fill="#333" font-weight="bold">Legend:</text>
  <line x1="20" y1="718" x2="40" y2="718" stroke="#e41a1c" stroke-width="3"/>
  <text x="45" y="722" font-size="11" fill="#333">L (B₁)</text>
  <line x1="20" y1="736" x2="40" y2="736" stroke="#377eb8" stroke-width="3"/>
  <text x="45" y="740" font-size="11" fill="#333">M (B₂)</text>
  <line x1="20" y1="754" x2="40" y2="754" stroke="#4daf4a" stroke-width="3"/>
  <text x="45" y="758" font-size="11" fill="#333">R (B₃)</text>
  <text x="400.0" y="785" text-anchor="middle" font-size="11" fill="#999">Depth 4 • 121 triples • All verified a²+b²=c²</text>
</svg>