<?xml version="1.0" encoding="UTF-8"?>
<svg xmlns="http://www.w3.org/2000/svg" width="1000" height="680"
     viewBox="0 0 1000 680">
<rect width="1000" height="680" fill="#fafaf5"/>
<text x="500.0" y="30" text-anchor="middle" fill="#333"
      font-family="Georgia, serif" font-size="18" font-weight="bold">
  Berggren Ternary Tree of Pythagorean Triples</text>

<line x1="500.0" y1="60.0" x2="250.0" y2="160.0" stroke="#e74c3c" stroke-width="1.5" opacity="0.5"/>
<line x1="250.0" y1="160.0" x2="171.9" y2="260.0" stroke="#e74c3c" stroke-width="1.5" opacity="0.5"/>
<line x1="171.9" y1="260.0" x2="147.5" y2="360.0" stroke="#e74c3c" stroke-width="1.5" opacity="0.5"/>
<line x1="147.5" y1="360.0" x2="139.8" y2="460.0" stroke="#e74c3c" stroke-width="1.5" opacity="0.5"/>
<line x1="147.5" y1="360.0" x2="147.5" y2="460.0" stroke="#e74c3c" stroke-width="1.5" opacity="0.5"/>
<line x1="147.5" y1="360.0" x2="155.1" y2="460.0" stroke="#e74c3c" stroke-width="1.5" opacity="0.5"/>
<line x1="171.9" y1="260.0" x2="171.9" y2="360.0" stroke="#e74c3c" stroke-width="1.5" opacity="0.5"/>
<line x1="171.9" y1="360.0" x2="164.2" y2="460.0" stroke="#e74c3c" stroke-width="1.5" opacity="0.5"/>
<line x1="171.9" y1="360.0" x2="171.9" y2="460.0" stroke="#e74c3c" stroke-width="1.5" opacity="0.5"/>
<line x1="171.9" y1="360.0" x2="179.5" y2="460.0" stroke="#e74c3c" stroke-width="1.5" opacity="0.5"/>
<line x1="171.9" y1="260.0" x2="196.3" y2="360.0" stroke="#e74c3c" stroke-width="1.5" opacity="0.5"/>
<line x1="196.3" y1="360.0" x2="188.7" y2="460.0" stroke="#e74c3c" stroke-width="1.5" opacity="0.5"/>
<line x1="196.3" y1="360.0" x2="196.3" y2="460.0" stroke="#e74c3c" stroke-width="1.5" opacity="0.5"/>
<line x1="196.3" y1="360.0" x2="203.9" y2="460.0" stroke="#e74c3c" stroke-width="1.5" opacity="0.5"/>
<line x1="250.0" y1="160.0" x2="250.0" y2="260.0" stroke="#e74c3c" stroke-width="1.5" opacity="0.5"/>
<line x1="250.0" y1="260.0" x2="225.6" y2="360.0" stroke="#e74c3c" stroke-width="1.5" opacity="0.5"/>
<line x1="225.6" y1="360.0" x2="218.0" y2="460.0" stroke="#e74c3c" stroke-width="1.5" opacity="0.5"/>
<line x1="225.6" y1="360.0" x2="225.6" y2="460.0" stroke="#e74c3c" stroke-width="1.5" opacity="0.5"/>
<line x1="225.6" y1="360.0" x2="233.2" y2="460.0" stroke="#e74c3c" stroke-width="1.5" opacity="0.5"/>
<line x1="250.0" y1="260.0" x2="250.0" y2="360.0" stroke="#e74c3c" stroke-width="1.5" opacity="0.5"/>
<line x1="250.0" y1="360.0" x2="242.4" y2="460.0" stroke="#e74c3c" stroke-width="1.5" opacity="0.5"/>
<line x1="250.0" y1="360.0" x2="250.0" y2="460.0" stroke="#e74c3c" stroke-width="1.5" opacity="0.5"/>
<line x1="250.0" y1="360.0" x2="257.6" y2="460.0" stroke="#e74c3c" stroke-width="1.5" opacity="0.5"/>
<line x1="250.0" y1="260.0" x2="274.4" y2="360.0" stroke="#e74c3c" stroke-width="1.5" opacity="0.5"/>
<line x1="274.4" y1="360.0" x2="266.8" y2="460.0" stroke="#e74c3c" stroke-width="1.5" opacity="0.5"/>
<line x1="274.4" y1="360.0" x2="274.4" y2="460.0" stroke="#e74c3c" stroke-width="1.5" opacity="0.5"/>
<line x1="274.4" y1="360.0" x2="282.0" y2="460.0" stroke="#e74c3c" stroke-width="1.5" opacity="0.5"/>
<line x1="250.0" y1="160.0" x2="328.1" y2="260.0" stroke="#e74c3c" stroke-width="1.5" opacity="0.5"/>
<line x1="328.1" y1="260.0" x2="303.7" y2="360.0" stroke="#e74c3c" stroke-width="1.5" opacity="0.5"/>
<line x1="303.7" y1="360.0" x2="296.1" y2="460.0" stroke="#e74c3c" stroke-width="1.5" opacity="0.5"/>
<line x1="303.7" y1="360.0" x2="303.7" y2="460.0" stroke="#e74c3c" stroke-width="1.5" opacity="0.5"/>
<line x1="303.7" y1="360.0" x2="311.3" y2="460.0" stroke="#e74c3c" stroke-width="1.5" opacity="0.5"/>
<line x1="328.1" y1="260.0" x2="328.1" y2="360.0" stroke="#e74c3c" stroke-width="1.5" opacity="0.5"/>
<line x1="328.1" y1="360.0" x2="320.5" y2="460.0" stroke="#e74c3c" stroke-width="1.5" opacity="0.5"/>
<line x1="328.1" y1="360.0" x2="328.1" y2="460.0" stroke="#e74c3c" stroke-width="1.5" opacity="0.5"/>
<line x1="328.1" y1="360.0" x2="335.8" y2="460.0" stroke="#e74c3c" stroke-width="1.5" opacity="0.5"/>
<line x1="328.1" y1="260.0" x2="352.5" y2="360.0" stroke="#e74c3c" stroke-width="1.5" opacity="0.5"/>
<line x1="352.5" y1="360.0" x2="344.9" y2="460.0" stroke="#e74c3c" stroke-width="1.5" opacity="0.5"/>
<line x1="352.5" y1="360.0" x2="352.5" y2="460.0" stroke="#e74c3c" stroke-width="1.5" opacity="0.5"/>
<line x1="352.5" y1="360.0" x2="360.2" y2="460.0" stroke="#e74c3c" stroke-width="1.5" opacity="0.5"/>
<line x1="500.0" y1="60.0" x2="500.0" y2="160.0" stroke="#2ecc71" stroke-width="1.5" opacity="0.5"/>
<line x1="500.0" y1="160.0" x2="421.9" y2="260.0" stroke="#2ecc71" stroke-width="1.5" opacity="0.5"/>
<line x1="421.9" y1="260.0" x2="397.5" y2="360.0" stroke="#2ecc71" stroke-width="1.5" opacity="0.5"/>
<line x1="397.5" y1="360.0" x2="389.8" y2="460.0" stroke="#2ecc71" stroke-width="1.5" opacity="0.5"/>
<line x1="397.5" y1="360.0" x2="397.5" y2="460.0" stroke="#2ecc71" stroke-width="1.5" opacity="0.5"/>
<line x1="397.5" y1="360.0" x2="405.1" y2="460.0" stroke="#2ecc71" stroke-width="1.5" opacity="0.5"/>
<line x1="421.9" y1="260.0" x2="421.9" y2="360.0" stroke="#2ecc71" stroke-width="1.5" opacity="0.5"/>
<line x1="421.9" y1="360.0" x2="414.2" y2="460.0" stroke="#2ecc71" stroke-width="1.5" opacity="0.5"/>
<line x1="421.9" y1="360.0" x2="421.9" y2="460.0" stroke="#2ecc71" stroke-width="1.5" opacity="0.5"/>
<line x1="421.9" y1="360.0" x2="429.5" y2="460.0" stroke="#2ecc71" stroke-width="1.5" opacity="0.5"/>
<line x1="421.9" y1="260.0" x2="446.3" y2="360.0" stroke="#2ecc71" stroke-width="1.5" opacity="0.5"/>
<line x1="446.3" y1="360.0" x2="438.7" y2="460.0" stroke="#2ecc71" stroke-width="1.5" opacity="0.5"/>
<line x1="446.3" y1="360.0" x2="446.3" y2="460.0" stroke="#2ecc71" stroke-width="1.5" opacity="0.5"/>
<line x1="446.3" y1="360.0" x2="453.9" y2="460.0" stroke="#2ecc71" stroke-width="1.5" opacity="0.5"/>
<line x1="500.0" y1="160.0" x2="500.0" y2="260.0" stroke="#2ecc71" stroke-width="1.5" opacity="0.5"/>
<line x1="500.0" y1="260.0" x2="475.6" y2="360.0" stroke="#2ecc71" stroke-width="1.5" opacity="0.5"/>
<line x1="475.6" y1="360.0" x2="468.0" y2="460.0" stroke="#2ecc71" stroke-width="1.5" opacity="0.5"/>
<line x1="475.6" y1="360.0" x2="475.6" y2="460.0" stroke="#2ecc71" stroke-width="1.5" opacity="0.5"/>
<line x1="475.6" y1="360.0" x2="483.2" y2="460.0" stroke="#2ecc71" stroke-width="1.5" opacity="0.5"/>
<line x1="500.0" y1="260.0" x2="500.0" y2="360.0" stroke="#2ecc71" stroke-width="1.5" opacity="0.5"/>
<line x1="500.0" y1="360.0" x2="492.4" y2="460.0" stroke="#2ecc71" stroke-width="1.5" opacity="0.5"/>
<line x1="500.0" y1="360.0" x2="500.0" y2="460.0" stroke="#2ecc71" stroke-width="1.5" opacity="0.5"/>
<line x1="500.0" y1="360.0" x2="507.6" y2="460.0" stroke="#2ecc71" stroke-width="1.5" opacity="0.5"/>
<line x1="500.0" y1="260.0" x2="524.4" y2="360.0" stroke="#2ecc71" stroke-width="1.5" opacity="0.5"/>
<line x1="524.4" y1="360.0" x2="516.8" y2="460.0" stroke="#2ecc71" stroke-width="1.5" opacity="0.5"/>
<line x1="524.4" y1="360.0" x2="524.4" y2="460.0" stroke="#2ecc71" stroke-width="1.5" opacity="0.5"/>
<line x1="524.4" y1="360.0" x2="532.0" y2="460.0" stroke="#2ecc71" stroke-width="1.5" opacity="0.5"/>
<line x1="500.0" y1="160.0" x2="578.1" y2="260.0" stroke="#2ecc71" stroke-width="1.5" opacity="0.5"/>
<line x1="578.1" y1="260.0" x2="553.7" y2="360.0" stroke="#2ecc71" stroke-width="1.5" opacity="0.5"/>
<line x1="553.7" y1="360.0" x2="546.1" y2="460.0" stroke="#2ecc71" stroke-width="1.5" opacity="0.5"/>
<line x1="553.7" y1="360.0" x2="553.7" y2="460.0" stroke="#2ecc71" stroke-width="1.5" opacity="0.5"/>
<line x1="553.7" y1="360.0" x2="561.3" y2="460.0" stroke="#2ecc71" stroke-width="1.5" opacity="0.5"/>
<line x1="578.1" y1="260.0" x2="578.1" y2="360.0" stroke="#2ecc71" stroke-width="1.5" opacity="0.5"/>
<line x1="578.1" y1="360.0" x2="570.5" y2="460.0" stroke="#2ecc71" stroke-width="1.5" opacity="0.5"/>
<line x1="578.1" y1="360.0" x2="578.1" y2="460.0" stroke="#2ecc71" stroke-width="1.5" opacity="0.5"/>
<line x1="578.1" y1="360.0" x2="585.8" y2="460.0" stroke="#2ecc71" stroke-width="1.5" opacity="0.5"/>
<line x1="578.1" y1="260.0" x2="602.5" y2="360.0" stroke="#2ecc71" stroke-width="1.5" opacity="0.5"/>
<line x1="602.5" y1="360.0" x2="594.9" y2="460.0" stroke="#2ecc71" stroke-width="1.5" opacity="0.5"/>
<line x1="602.5" y1="360.0" x2="602.5" y2="460.0" stroke="#2ecc71" stroke-width="1.5" opacity="0.5"/>
<line x1="602.5" y1="360.0" x2="610.2" y2="460.0" stroke="#2ecc71" stroke-width="1.5" opacity="0.5"/>
<line x1="500.0" y1="60.0" x2="750.0" y2="160.0" stroke="#3498db" stroke-width="1.5" opacity="0.5"/>
<line x1="750.0" y1="160.0" x2="671.9" y2="260.0" stroke="#3498db" stroke-width="1.5" opacity="0.5"/>
<line x1="671.9" y1="260.0" x2="647.5" y2="360.0" stroke="#3498db" stroke-width="1.5" opacity="0.5"/>
<line x1="647.5" y1="360.0" x2="639.8" y2="460.0" stroke="#3498db" stroke-width="1.5" opacity="0.5"/>
<line x1="647.5" y1="360.0" x2="647.5" y2="460.0" stroke="#3498db" stroke-width="1.5" opacity="0.5"/>
<line x1="647.5" y1="360.0" x2="655.1" y2="460.0" stroke="#3498db" stroke-width="1.5" opacity="0.5"/>
<line x1="671.9" y1="260.0" x2="671.9" y2="360.0" stroke="#3498db" stroke-width="1.5" opacity="0.5"/>
<line x1="671.9" y1="360.0" x2="664.2" y2="460.0" stroke="#3498db" stroke-width="1.5" opacity="0.5"/>
<line x1="671.9" y1="360.0" x2="671.9" y2="460.0" stroke="#3498db" stroke-width="1.5" opacity="0.5"/>
<line x1="671.9" y1="360.0" x2="679.5" y2="460.0" stroke="#3498db" stroke-width="1.5" opacity="0.5"/>
<line x1="671.9" y1="260.0" x2="696.3" y2="360.0" stroke="#3498db" stroke-width="1.5" opacity="0.5"/>
<line x1="696.3" y1="360.0" x2="688.7" y2="460.0" stroke="#3498db" stroke-width="1.5" opacity="0.5"/>
<line x1="696.3" y1="360.0" x2="696.3" y2="460.0" stroke="#3498db" stroke-width="1.5" opacity="0.5"/>
<line x1="696.3" y1="360.0" x2="703.9" y2="460.0" stroke="#3498db" stroke-width="1.5" opacity="0.5"/>
<line x1="750.0" y1="160.0" x2="750.0" y2="260.0" stroke="#3498db" stroke-width="1.5" opacity="0.5"/>
<line x1="750.0" y1="260.0" x2="725.6" y2="360.0" stroke="#3498db" stroke-width="1.5" opacity="0.5"/>
<line x1="725.6" y1="360.0" x2="718.0" y2="460.0" stroke="#3498db" stroke-width="1.5" opacity="0.5"/>
<line x1="725.6" y1="360.0" x2="725.6" y2="460.0" stroke="#3498db" stroke-width="1.5" opacity="0.5"/>
<line x1="725.6" y1="360.0" x2="733.2" y2="460.0" stroke="#3498db" stroke-width="1.5" opacity="0.5"/>
<line x1="750.0" y1="260.0" x2="750.0" y2="360.0" stroke="#3498db" stroke-width="1.5" opacity="0.5"/>
<line x1="750.0" y1="360.0" x2="742.4" y2="460.0" stroke="#3498db" stroke-width="1.5" opacity="0.5"/>
<line x1="750.0" y1="360.0" x2="750.0" y2="460.0" stroke="#3498db" stroke-width="1.5" opacity="0.5"/>
<line x1="750.0" y1="360.0" x2="757.6" y2="460.0" stroke="#3498db" stroke-width="1.5" opacity="0.5"/>
<line x1="750.0" y1="260.0" x2="774.4" y2="360.0" stroke="#3498db" stroke-width="1.5" opacity="0.5"/>
<line x1="774.4" y1="360.0" x2="766.8" y2="460.0" stroke="#3498db" stroke-width="1.5" opacity="0.5"/>
<line x1="774.4" y1="360.0" x2="774.4" y2="460.0" stroke="#3498db" stroke-width="1.5" opacity="0.5"/>
<line x1="774.4" y1="360.0" x2="782.0" y2="460.0" stroke="#3498db" stroke-width="1.5" opacity="0.5"/>
<line x1="750.0" y1="160.0" x2="828.1" y2="260.0" stroke="#3498db" stroke-width="1.5" opacity="0.5"/>
<line x1="828.1" y1="260.0" x2="803.7" y2="360.0" stroke="#3498db" stroke-width="1.5" opacity="0.5"/>
<line x1="803.7" y1="360.0" x2="796.1" y2="460.0" stroke="#3498db" stroke-width="1.5" opacity="0.5"/>
<line x1="803.7" y1="360.0" x2="803.7" y2="460.0" stroke="#3498db" stroke-width="1.5" opacity="0.5"/>
<line x1="803.7" y1="360.0" x2="811.3" y2="460.0" stroke="#3498db" stroke-width="1.5" opacity="0.5"/>
<line x1="828.1" y1="260.0" x2="828.1" y2="360.0" stroke="#3498db" stroke-width="1.5" opacity="0.5"/>
<line x1="828.1" y1="360.0" x2="820.5" y2="460.0" stroke="#3498db" stroke-width="1.5" opacity="0.5"/>
<line x1="828.1" y1="360.0" x2="828.1" y2="460.0" stroke="#3498db" stroke-width="1.5" opacity="0.5"/>
<line x1="828.1" y1="360.0" x2="835.8" y2="460.0" stroke="#3498db" stroke-width="1.5" opacity="0.5"/>
<line x1="828.1" y1="260.0" x2="852.5" y2="360.0" stroke="#3498db" stroke-width="1.5" opacity="0.5"/>
<line x1="852.5" y1="360.0" x2="844.9" y2="460.0" stroke="#3498db" stroke-width="1.5" opacity="0.5"/>
<line x1="852.5" y1="360.0" x2="852.5" y2="460.0" stroke="#3498db" stroke-width="1.5" opacity="0.5"/>
<line x1="852.5" y1="360.0" x2="860.2" y2="460.0" stroke="#3498db" stroke-width="1.5" opacity="0.5"/>
<circle cx="500.0" cy="60.0" r="20" fill="#f39c12" stroke="#333" stroke-width="0.5"/>
<text x="500.0" y="93.0" text-anchor="middle" fill="#444" font-family="monospace" font-size="11">(3,4,5)</text>
<circle cx="250.0" cy="160.0" r="17" fill="#e74c3c" stroke="#333" stroke-width="0.5"/>
<text x="250.0" y="189.0" text-anchor="middle" fill="#444" font-family="monospace" font-size="10">(5,12,13)</text>
<circle cx="171.9" cy="260.0" r="14" fill="#e74c3c" stroke="#333" stroke-width="0.5"/>
<text x="171.9" y="285.0" text-anchor="middle" fill="#444" font-family="monospace" font-size="9">(7,24,25)</text>
<circle cx="147.5" cy="360.0" r="11" fill="#e74c3c" stroke="#333" stroke-width="0.5"/>
<text x="147.5" y="381.0" text-anchor="middle" fill="#444" font-family="monospace" font-size="8">(9,40,41)</text>
<circle cx="139.8" cy="460.0" r="8" fill="#e74c3c" stroke="#333" stroke-width="0.5"/>
<text x="139.8" y="477.0" text-anchor="middle" fill="#444" font-family="monospace" font-size="7">(11,60,61)</text>
<circle cx="147.5" cy="460.0" r="8" fill="#e74c3c" stroke="#333" stroke-width="0.5"/>
<text x="147.5" y="477.0" text-anchor="middle" fill="#444" font-family="monospace" font-size="7">(171,140,221)</text>
<circle cx="155.1" cy="460.0" r="8" fill="#e74c3c" stroke="#333" stroke-width="0.5"/>
<text x="155.1" y="477.0" text-anchor="middle" fill="#444" font-family="monospace" font-size="7">(153,104,185)</text>
<circle cx="171.9" cy="360.0" r="11" fill="#e74c3c" stroke="#333" stroke-width="0.5"/>
<text x="171.9" y="381.0" text-anchor="middle" fill="#444" font-family="monospace" font-size="8">(105,88,137)</text>
<circle cx="164.2" cy="460.0" r="8" fill="#e74c3c" stroke="#333" stroke-width="0.5"/>
<text x="164.2" y="477.0" text-anchor="middle" fill="#444" font-family="monospace" font-size="7">(203,396,445)</text>
<circle cx="171.9" cy="460.0" r="8" fill="#e74c3c" stroke="#333" stroke-width="0.5"/>
<text x="171.9" y="477.0" text-anchor="middle" fill="#444" font-family="monospace" font-size="7">(555,572,797)</text>
<circle cx="179.5" cy="460.0" r="8" fill="#e74c3c" stroke="#333" stroke-width="0.5"/>
<text x="179.5" y="477.0" text-anchor="middle" fill="#444" font-family="monospace" font-size="7">(345,152,377)</text>
<circle cx="196.3" cy="360.0" r="11" fill="#e74c3c" stroke="#333" stroke-width="0.5"/>
<text x="196.3" y="381.0" text-anchor="middle" fill="#444" font-family="monospace" font-size="8">(91,60,109)</text>
<circle cx="188.7" cy="460.0" r="8" fill="#e74c3c" stroke="#333" stroke-width="0.5"/>
<text x="188.7" y="477.0" text-anchor="middle" fill="#444" font-family="monospace" font-size="7">(189,340,389)</text>
<circle cx="196.3" cy="460.0" r="8" fill="#e74c3c" stroke="#333" stroke-width="0.5"/>
<text x="196.3" y="477.0" text-anchor="middle" fill="#444" font-family="monospace" font-size="7">(429,460,629)</text>
<circle cx="203.9" cy="460.0" r="8" fill="#e74c3c" stroke="#333" stroke-width="0.5"/>
<text x="203.9" y="477.0" text-anchor="middle" fill="#444" font-family="monospace" font-size="7">(247,96,265)</text>
<circle cx="250.0" cy="260.0" r="14" fill="#e74c3c" stroke="#333" stroke-width="0.5"/>
<text x="250.0" y="285.0" text-anchor="middle" fill="#444" font-family="monospace" font-size="9">(55,48,73)</text>
<circle cx="225.6" cy="360.0" r="11" fill="#e74c3c" stroke="#333" stroke-width="0.5"/>
<text x="225.6" y="381.0" text-anchor="middle" fill="#444" font-family="monospace" font-size="8">(105,208,233)</text>
<circle cx="218.0" cy="460.0" r="8" fill="#e74c3c" stroke="#333" stroke-width="0.5"/>
<text x="218.0" y="477.0" text-anchor="middle" fill="#444" font-family="monospace" font-size="7">(155,468,493)</text>
<circle cx="225.6" cy="460.0" r="8" fill="#e74c3c" stroke="#333" stroke-width="0.5"/>
<text x="225.6" y="477.0" text-anchor="middle" fill="#444" font-family="monospace" font-size="7">(987,884,1325)</text>
<circle cx="233.2" cy="460.0" r="8" fill="#e74c3c" stroke="#333" stroke-width="0.5"/>
<text x="233.2" y="477.0" text-anchor="middle" fill="#444" font-family="monospace" font-size="7">(777,464,905)</text>
<circle cx="250.0" cy="360.0" r="11" fill="#e74c3c" stroke="#333" stroke-width="0.5"/>
<text x="250.0" y="381.0" text-anchor="middle" fill="#444" font-family="monospace" font-size="8">(297,304,425)</text>
<circle cx="242.4" cy="460.0" r="8" fill="#e74c3c" stroke="#333" stroke-width="0.5"/>
<text x="242.4" y="477.0" text-anchor="middle" fill="#444" font-family="monospace" font-size="7">(539,1140,1261)</text>
<circle cx="250.0" cy="460.0" r="8" fill="#e74c3c" stroke="#333" stroke-width="0.5"/>
<text x="250.0" y="477.0" text-anchor="middle" fill="#444" font-family="monospace" font-size="7">(1755,1748,2477)</text>
<circle cx="257.6" cy="460.0" r="8" fill="#e74c3c" stroke="#333" stroke-width="0.5"/>
<text x="257.6" y="477.0" text-anchor="middle" fill="#444" font-family="monospace" font-size="7">(1161,560,1289)</text>
<circle cx="274.4" cy="360.0" r="11" fill="#e74c3c" stroke="#333" stroke-width="0.5"/>
<text x="274.4" y="381.0" text-anchor="middle" fill="#444" font-family="monospace" font-size="8">(187,84,205)</text>
<circle cx="266.8" cy="460.0" r="8" fill="#e74c3c" stroke="#333" stroke-width="0.5"/>
<text x="266.8" y="477.0" text-anchor="middle" fill="#444" font-family="monospace" font-size="7">(429,700,821)</text>
<circle cx="274.4" cy="460.0" r="8" fill="#e74c3c" stroke="#333" stroke-width="0.5"/>
<text x="274.4" y="477.0" text-anchor="middle" fill="#444" font-family="monospace" font-size="7">(765,868,1157)</text>
<circle cx="282.0" cy="460.0" r="8" fill="#e74c3c" stroke="#333" stroke-width="0.5"/>
<text x="282.0" y="477.0" text-anchor="middle" fill="#444" font-family="monospace" font-size="7">(391,120,409)</text>
<circle cx="328.1" cy="260.0" r="14" fill="#e74c3c" stroke="#333" stroke-width="0.5"/>
<text x="328.1" y="285.0" text-anchor="middle" fill="#444" font-family="monospace" font-size="9">(45,28,53)</text>
<circle cx="303.7" cy="360.0" r="11" fill="#e74c3c" stroke="#333" stroke-width="0.5"/>
<text x="303.7" y="381.0" text-anchor="middle" fill="#444" font-family="monospace" font-size="8">(95,168,193)</text>
<circle cx="296.1" cy="460.0" r="8" fill="#e74c3c" stroke="#333" stroke-width="0.5"/>
<text x="296.1" y="477.0" text-anchor="middle" fill="#444" font-family="monospace" font-size="7">(145,408,433)</text>
<circle cx="303.7" cy="460.0" r="8" fill="#e74c3c" stroke="#333" stroke-width="0.5"/>
<text x="303.7" y="477.0" text-anchor="middle" fill="#444" font-family="monospace" font-size="7">(817,744,1105)</text>
<circle cx="311.3" cy="460.0" r="8" fill="#e74c3c" stroke="#333" stroke-width="0.5"/>
<text x="311.3" y="477.0" text-anchor="middle" fill="#444" font-family="monospace" font-size="7">(627,364,725)</text>
<circle cx="328.1" cy="360.0" r="11" fill="#e74c3c" stroke="#333" stroke-width="0.5"/>
<text x="328.1" y="381.0" text-anchor="middle" fill="#444" font-family="monospace" font-size="8">(207,224,305)</text>
<circle cx="320.5" cy="460.0" r="8" fill="#e74c3c" stroke="#333" stroke-width="0.5"/>
<text x="320.5" y="477.0" text-anchor="middle" fill="#444" font-family="monospace" font-size="7">(369,800,881)</text>
<circle cx="328.1" cy="460.0" r="8" fill="#e74c3c" stroke="#333" stroke-width="0.5"/>
<text x="328.1" y="477.0" text-anchor="middle" fill="#444" font-family="monospace" font-size="7">(1265,1248,1777)</text>
<circle cx="335.8" cy="460.0" r="8" fill="#e74c3c" stroke="#333" stroke-width="0.5"/>
<text x="335.8" y="477.0" text-anchor="middle" fill="#444" font-family="monospace" font-size="7">(851,420,949)</text>
<circle cx="352.5" cy="360.0" r="11" fill="#e74c3c" stroke="#333" stroke-width="0.5"/>
<text x="352.5" y="381.0" text-anchor="middle" fill="#444" font-family="monospace" font-size="8">(117,44,125)</text>
<circle cx="344.9" cy="460.0" r="8" fill="#e74c3c" stroke="#333" stroke-width="0.5"/>
<text x="344.9" y="477.0" text-anchor="middle" fill="#444" font-family="monospace" font-size="7">(279,440,521)</text>
<circle cx="352.5" cy="460.0" r="8" fill="#e74c3c" stroke="#333" stroke-width="0.5"/>
<text x="352.5" y="477.0" text-anchor="middle" fill="#444" font-family="monospace" font-size="7">(455,528,697)</text>
<circle cx="360.2" cy="460.0" r="8" fill="#e74c3c" stroke="#333" stroke-width="0.5"/>
<text x="360.2" y="477.0" text-anchor="middle" fill="#444" font-family="monospace" font-size="7">(221,60,229)</text>
<circle cx="500.0" cy="160.0" r="17" fill="#2ecc71" stroke="#333" stroke-width="0.5"/>
<text x="500.0" y="189.0" text-anchor="middle" fill="#444" font-family="monospace" font-size="10">(21,20,29)</text>
<circle cx="421.9" cy="260.0" r="14" fill="#2ecc71" stroke="#333" stroke-width="0.5"/>
<text x="421.9" y="285.0" text-anchor="middle" fill="#444" font-family="monospace" font-size="9">(39,80,89)</text>
<circle cx="397.5" cy="360.0" r="11" fill="#2ecc71" stroke="#333" stroke-width="0.5"/>
<text x="397.5" y="381.0" text-anchor="middle" fill="#444" font-family="monospace" font-size="8">(57,176,185)</text>
<circle cx="389.8" cy="460.0" r="8" fill="#2ecc71" stroke="#333" stroke-width="0.5"/>
<text x="389.8" y="477.0" text-anchor="middle" fill="#444" font-family="monospace" font-size="7">(75,308,317)</text>
<circle cx="397.5" cy="460.0" r="8" fill="#2ecc71" stroke="#333" stroke-width="0.5"/>
<text x="397.5" y="477.0" text-anchor="middle" fill="#444" font-family="monospace" font-size="7">(779,660,1021)</text>
<circle cx="405.1" cy="460.0" r="8" fill="#2ecc71" stroke="#333" stroke-width="0.5"/>
<text x="405.1" y="477.0" text-anchor="middle" fill="#444" font-family="monospace" font-size="7">(665,432,793)</text>
<circle cx="421.9" cy="360.0" r="11" fill="#2ecc71" stroke="#333" stroke-width="0.5"/>
<text x="421.9" y="381.0" text-anchor="middle" fill="#444" font-family="monospace" font-size="8">(377,336,505)</text>
<circle cx="414.2" cy="460.0" r="8" fill="#2ecc71" stroke="#333" stroke-width="0.5"/>
<text x="414.2" y="477.0" text-anchor="middle" fill="#444" font-family="monospace" font-size="7">(715,1428,1597)</text>
<circle cx="421.9" cy="460.0" r="8" fill="#2ecc71" stroke="#333" stroke-width="0.5"/>
<text x="421.9" y="477.0" text-anchor="middle" fill="#444" font-family="monospace" font-size="7">(2059,2100,2941)</text>
<circle cx="429.5" cy="460.0" r="8" fill="#2ecc71" stroke="#333" stroke-width="0.5"/>
<text x="429.5" y="477.0" text-anchor="middle" fill="#444" font-family="monospace" font-size="7">(1305,592,1433)</text>
<circle cx="446.3" cy="360.0" r="11" fill="#2ecc71" stroke="#333" stroke-width="0.5"/>
<text x="446.3" y="381.0" text-anchor="middle" fill="#444" font-family="monospace" font-size="8">(299,180,349)</text>
<circle cx="438.7" cy="460.0" r="8" fill="#2ecc71" stroke="#333" stroke-width="0.5"/>
<text x="438.7" y="477.0" text-anchor="middle" fill="#444" font-family="monospace" font-size="7">(637,1116,1285)</text>
<circle cx="446.3" cy="460.0" r="8" fill="#2ecc71" stroke="#333" stroke-width="0.5"/>
<text x="446.3" y="477.0" text-anchor="middle" fill="#444" font-family="monospace" font-size="7">(1357,1476,2005)</text>
<circle cx="453.9" cy="460.0" r="8" fill="#2ecc71" stroke="#333" stroke-width="0.5"/>
<text x="453.9" y="477.0" text-anchor="middle" fill="#444" font-family="monospace" font-size="7">(759,280,809)</text>
<circle cx="500.0" cy="260.0" r="14" fill="#2ecc71" stroke="#333" stroke-width="0.5"/>
<text x="500.0" y="285.0" text-anchor="middle" fill="#444" font-family="monospace" font-size="9">(119,120,169)</text>
<circle cx="475.6" cy="360.0" r="11" fill="#2ecc71" stroke="#333" stroke-width="0.5"/>
<text x="475.6" y="381.0" text-anchor="middle" fill="#444" font-family="monospace" font-size="8">(217,456,505)</text>
<circle cx="468.0" cy="460.0" r="8" fill="#2ecc71" stroke="#333" stroke-width="0.5"/>
<text x="468.0" y="477.0" text-anchor="middle" fill="#444" font-family="monospace" font-size="7">(315,988,1037)</text>
<circle cx="475.6" cy="460.0" r="8" fill="#2ecc71" stroke="#333" stroke-width="0.5"/>
<text x="475.6" y="477.0" text-anchor="middle" fill="#444" font-family="monospace" font-size="7">(2139,1900,2861)</text>
<circle cx="483.2" cy="460.0" r="8" fill="#2ecc71" stroke="#333" stroke-width="0.5"/>
<text x="483.2" y="477.0" text-anchor="middle" fill="#444" font-family="monospace" font-size="7">(1705,1032,1993)</text>
<circle cx="500.0" cy="360.0" r="11" fill="#2ecc71" stroke="#333" stroke-width="0.5"/>
<text x="500.0" y="381.0" text-anchor="middle" fill="#444" font-family="monospace" font-size="8">(697,696,985)</text>
<circle cx="492.4" cy="460.0" r="8" fill="#2ecc71" stroke="#333" stroke-width="0.5"/>
<text x="492.4" y="477.0" text-anchor="middle" fill="#444" font-family="monospace" font-size="7">(1275,2668,2957)</text>
<circle cx="500.0" cy="460.0" r="8" fill="#2ecc71" stroke="#333" stroke-width="0.5"/>
<text x="500.0" y="477.0" text-anchor="middle" fill="#444" font-family="monospace" font-size="7">(4059,4060,5741)</text>
<circle cx="507.6" cy="460.0" r="8" fill="#2ecc71" stroke="#333" stroke-width="0.5"/>
<text x="507.6" y="477.0" text-anchor="middle" fill="#444" font-family="monospace" font-size="7">(2665,1272,2953)</text>
<circle cx="524.4" cy="360.0" r="11" fill="#2ecc71" stroke="#333" stroke-width="0.5"/>
<text x="524.4" y="381.0" text-anchor="middle" fill="#444" font-family="monospace" font-size="8">(459,220,509)</text>
<circle cx="516.8" cy="460.0" r="8" fill="#2ecc71" stroke="#333" stroke-width="0.5"/>
<text x="516.8" y="477.0" text-anchor="middle" fill="#444" font-family="monospace" font-size="7">(1037,1716,2005)</text>
<circle cx="524.4" cy="460.0" r="8" fill="#2ecc71" stroke="#333" stroke-width="0.5"/>
<text x="524.4" y="477.0" text-anchor="middle" fill="#444" font-family="monospace" font-size="7">(1917,2156,2885)</text>
<circle cx="532.0" cy="460.0" r="8" fill="#2ecc71" stroke="#333" stroke-width="0.5"/>
<text x="532.0" y="477.0" text-anchor="middle" fill="#444" font-family="monospace" font-size="7">(999,320,1049)</text>
<circle cx="578.1" cy="260.0" r="14" fill="#2ecc71" stroke="#333" stroke-width="0.5"/>
<text x="578.1" y="285.0" text-anchor="middle" fill="#444" font-family="monospace" font-size="9">(77,36,85)</text>
<circle cx="553.7" cy="360.0" r="11" fill="#2ecc71" stroke="#333" stroke-width="0.5"/>
<text x="553.7" y="381.0" text-anchor="middle" fill="#444" font-family="monospace" font-size="8">(175,288,337)</text>
<circle cx="546.1" cy="460.0" r="8" fill="#2ecc71" stroke="#333" stroke-width="0.5"/>
<text x="546.1" y="477.0" text-anchor="middle" fill="#444" font-family="monospace" font-size="7">(273,736,785)</text>
<circle cx="553.7" cy="460.0" r="8" fill="#2ecc71" stroke="#333" stroke-width="0.5"/>
<text x="553.7" y="477.0" text-anchor="middle" fill="#444" font-family="monospace" font-size="7">(1425,1312,1937)</text>
<circle cx="561.3" cy="460.0" r="8" fill="#2ecc71" stroke="#333" stroke-width="0.5"/>
<text x="561.3" y="477.0" text-anchor="middle" fill="#444" font-family="monospace" font-size="7">(1075,612,1237)</text>
<circle cx="578.1" cy="360.0" r="11" fill="#2ecc71" stroke="#333" stroke-width="0.5"/>
<text x="578.1" y="381.0" text-anchor="middle" fill="#444" font-family="monospace" font-size="8">(319,360,481)</text>
<circle cx="570.5" cy="460.0" r="8" fill="#2ecc71" stroke="#333" stroke-width="0.5"/>
<text x="570.5" y="477.0" text-anchor="middle" fill="#444" font-family="monospace" font-size="7">(561,1240,1361)</text>
<circle cx="578.1" cy="460.0" r="8" fill="#2ecc71" stroke="#333" stroke-width="0.5"/>
<text x="578.1" y="477.0" text-anchor="middle" fill="#444" font-family="monospace" font-size="7">(2001,1960,2801)</text>
<circle cx="585.8" cy="460.0" r="8" fill="#2ecc71" stroke="#333" stroke-width="0.5"/>
<text x="585.8" y="477.0" text-anchor="middle" fill="#444" font-family="monospace" font-size="7">(1363,684,1525)</text>
<circle cx="602.5" cy="360.0" r="11" fill="#2ecc71" stroke="#333" stroke-width="0.5"/>
<text x="602.5" y="381.0" text-anchor="middle" fill="#444" font-family="monospace" font-size="8">(165,52,173)</text>
<circle cx="594.9" cy="460.0" r="8" fill="#2ecc71" stroke="#333" stroke-width="0.5"/>
<text x="594.9" y="477.0" text-anchor="middle" fill="#444" font-family="monospace" font-size="7">(407,624,745)</text>
<circle cx="602.5" cy="460.0" r="8" fill="#2ecc71" stroke="#333" stroke-width="0.5"/>
<text x="602.5" y="477.0" text-anchor="middle" fill="#444" font-family="monospace" font-size="7">(615,728,953)</text>
<circle cx="610.2" cy="460.0" r="8" fill="#2ecc71" stroke="#333" stroke-width="0.5"/>
<text x="610.2" y="477.0" text-anchor="middle" fill="#444" font-family="monospace" font-size="7">(285,68,293)</text>
<circle cx="750.0" cy="160.0" r="17" fill="#3498db" stroke="#333" stroke-width="0.5"/>
<text x="750.0" y="189.0" text-anchor="middle" fill="#444" font-family="monospace" font-size="10">(15,8,17)</text>
<circle cx="671.9" cy="260.0" r="14" fill="#3498db" stroke="#333" stroke-width="0.5"/>
<text x="671.9" y="285.0" text-anchor="middle" fill="#444" font-family="monospace" font-size="9">(33,56,65)</text>
<circle cx="647.5" cy="360.0" r="11" fill="#3498db" stroke="#333" stroke-width="0.5"/>
<text x="647.5" y="381.0" text-anchor="middle" fill="#444" font-family="monospace" font-size="8">(51,140,149)</text>
<circle cx="639.8" cy="460.0" r="8" fill="#3498db" stroke="#333" stroke-width="0.5"/>
<text x="639.8" y="477.0" text-anchor="middle" fill="#444" font-family="monospace" font-size="7">(69,260,269)</text>
<circle cx="647.5" cy="460.0" r="8" fill="#3498db" stroke="#333" stroke-width="0.5"/>
<text x="647.5" y="477.0" text-anchor="middle" fill="#444" font-family="monospace" font-size="7">(629,540,829)</text>
<circle cx="655.1" cy="460.0" r="8" fill="#3498db" stroke="#333" stroke-width="0.5"/>
<text x="655.1" y="477.0" text-anchor="middle" fill="#444" font-family="monospace" font-size="7">(527,336,625)</text>
<circle cx="671.9" cy="360.0" r="11" fill="#3498db" stroke="#333" stroke-width="0.5"/>
<text x="671.9" y="381.0" text-anchor="middle" fill="#444" font-family="monospace" font-size="8">(275,252,373)</text>
<circle cx="664.2" cy="460.0" r="8" fill="#3498db" stroke="#333" stroke-width="0.5"/>
<text x="664.2" y="477.0" text-anchor="middle" fill="#444" font-family="monospace" font-size="7">(517,1044,1165)</text>
<circle cx="671.9" cy="460.0" r="8" fill="#3498db" stroke="#333" stroke-width="0.5"/>
<text x="671.9" y="477.0" text-anchor="middle" fill="#444" font-family="monospace" font-size="7">(1525,1548,2173)</text>
<circle cx="679.5" cy="460.0" r="8" fill="#3498db" stroke="#333" stroke-width="0.5"/>
<text x="679.5" y="477.0" text-anchor="middle" fill="#444" font-family="monospace" font-size="7">(975,448,1073)</text>
<circle cx="696.3" cy="360.0" r="11" fill="#3498db" stroke="#333" stroke-width="0.5"/>
<text x="696.3" y="381.0" text-anchor="middle" fill="#444" font-family="monospace" font-size="8">(209,120,241)</text>
<circle cx="688.7" cy="460.0" r="8" fill="#3498db" stroke="#333" stroke-width="0.5"/>
<text x="688.7" y="477.0" text-anchor="middle" fill="#444" font-family="monospace" font-size="7">(451,780,901)</text>
<circle cx="696.3" cy="460.0" r="8" fill="#3498db" stroke="#333" stroke-width="0.5"/>
<text x="696.3" y="477.0" text-anchor="middle" fill="#444" font-family="monospace" font-size="7">(931,1020,1381)</text>
<circle cx="703.9" cy="460.0" r="8" fill="#3498db" stroke="#333" stroke-width="0.5"/>
<text x="703.9" y="477.0" text-anchor="middle" fill="#444" font-family="monospace" font-size="7">(513,184,545)</text>
<circle cx="750.0" cy="260.0" r="14" fill="#3498db" stroke="#333" stroke-width="0.5"/>
<text x="750.0" y="285.0" text-anchor="middle" fill="#444" font-family="monospace" font-size="9">(65,72,97)</text>
<circle cx="725.6" cy="360.0" r="11" fill="#3498db" stroke="#333" stroke-width="0.5"/>
<text x="725.6" y="381.0" text-anchor="middle" fill="#444" font-family="monospace" font-size="8">(115,252,277)</text>
<circle cx="718.0" cy="460.0" r="8" fill="#3498db" stroke="#333" stroke-width="0.5"/>
<text x="718.0" y="477.0" text-anchor="middle" fill="#444" font-family="monospace" font-size="7">(165,532,557)</text>
<circle cx="725.6" cy="460.0" r="8" fill="#3498db" stroke="#333" stroke-width="0.5"/>
<text x="725.6" y="477.0" text-anchor="middle" fill="#444" font-family="monospace" font-size="7">(1173,1036,1565)</text>
<circle cx="733.2" cy="460.0" r="8" fill="#3498db" stroke="#333" stroke-width="0.5"/>
<text x="733.2" y="477.0" text-anchor="middle" fill="#444" font-family="monospace" font-size="7">(943,576,1105)</text>
<circle cx="750.0" cy="360.0" r="11" fill="#3498db" stroke="#333" stroke-width="0.5"/>
<text x="750.0" y="381.0" text-anchor="middle" fill="#444" font-family="monospace" font-size="8">(403,396,565)</text>
<circle cx="742.4" cy="460.0" r="8" fill="#3498db" stroke="#333" stroke-width="0.5"/>
<text x="742.4" y="477.0" text-anchor="middle" fill="#444" font-family="monospace" font-size="7">(741,1540,1709)</text>
<circle cx="750.0" cy="460.0" r="8" fill="#3498db" stroke="#333" stroke-width="0.5"/>
<text x="750.0" y="477.0" text-anchor="middle" fill="#444" font-family="monospace" font-size="7">(2325,2332,3293)</text>
<circle cx="757.6" cy="460.0" r="8" fill="#3498db" stroke="#333" stroke-width="0.5"/>
<text x="757.6" y="477.0" text-anchor="middle" fill="#444" font-family="monospace" font-size="7">(1519,720,1681)</text>
<circle cx="774.4" cy="360.0" r="11" fill="#3498db" stroke="#333" stroke-width="0.5"/>
<text x="774.4" y="381.0" text-anchor="middle" fill="#444" font-family="monospace" font-size="8">(273,136,305)</text>
<circle cx="766.8" cy="460.0" r="8" fill="#3498db" stroke="#333" stroke-width="0.5"/>
<text x="766.8" y="477.0" text-anchor="middle" fill="#444" font-family="monospace" font-size="7">(611,1020,1189)</text>
<circle cx="774.4" cy="460.0" r="8" fill="#3498db" stroke="#333" stroke-width="0.5"/>
<text x="774.4" y="477.0" text-anchor="middle" fill="#444" font-family="monospace" font-size="7">(1155,1292,1733)</text>
<circle cx="782.0" cy="460.0" r="8" fill="#3498db" stroke="#333" stroke-width="0.5"/>
<text x="782.0" y="477.0" text-anchor="middle" fill="#444" font-family="monospace" font-size="7">(609,200,641)</text>
<circle cx="828.1" cy="260.0" r="14" fill="#3498db" stroke="#333" stroke-width="0.5"/>
<text x="828.1" y="285.0" text-anchor="middle" fill="#444" font-family="monospace" font-size="9">(35,12,37)</text>
<circle cx="803.7" cy="360.0" r="11" fill="#3498db" stroke="#333" stroke-width="0.5"/>
<text x="803.7" y="381.0" text-anchor="middle" fill="#444" font-family="monospace" font-size="8">(85,132,157)</text>
<circle cx="796.1" cy="460.0" r="8" fill="#3498db" stroke="#333" stroke-width="0.5"/>
<text x="796.1" y="477.0" text-anchor="middle" fill="#444" font-family="monospace" font-size="7">(135,352,377)</text>
<circle cx="803.7" cy="460.0" r="8" fill="#3498db" stroke="#333" stroke-width="0.5"/>
<text x="803.7" y="477.0" text-anchor="middle" fill="#444" font-family="monospace" font-size="7">(663,616,905)</text>
<circle cx="811.3" cy="460.0" r="8" fill="#3498db" stroke="#333" stroke-width="0.5"/>
<text x="811.3" y="477.0" text-anchor="middle" fill="#444" font-family="monospace" font-size="7">(493,276,565)</text>
<circle cx="828.1" cy="360.0" r="11" fill="#3498db" stroke="#333" stroke-width="0.5"/>
<text x="828.1" y="381.0" text-anchor="middle" fill="#444" font-family="monospace" font-size="8">(133,156,205)</text>
<circle cx="820.5" cy="460.0" r="8" fill="#3498db" stroke="#333" stroke-width="0.5"/>
<text x="820.5" y="477.0" text-anchor="middle" fill="#444" font-family="monospace" font-size="7">(231,520,569)</text>
<circle cx="828.1" cy="460.0" r="8" fill="#3498db" stroke="#333" stroke-width="0.5"/>
<text x="828.1" y="477.0" text-anchor="middle" fill="#444" font-family="monospace" font-size="7">(855,832,1193)</text>
<circle cx="835.8" cy="460.0" r="8" fill="#3498db" stroke="#333" stroke-width="0.5"/>
<text x="835.8" y="477.0" text-anchor="middle" fill="#444" font-family="monospace" font-size="7">(589,300,661)</text>
<circle cx="852.5" cy="360.0" r="11" fill="#3498db" stroke="#333" stroke-width="0.5"/>
<text x="852.5" y="381.0" text-anchor="middle" fill="#444" font-family="monospace" font-size="8">(63,16,65)</text>
<circle cx="844.9" cy="460.0" r="8" fill="#3498db" stroke="#333" stroke-width="0.5"/>
<text x="844.9" y="477.0" text-anchor="middle" fill="#444" font-family="monospace" font-size="7">(161,240,289)</text>
<circle cx="852.5" cy="460.0" r="8" fill="#3498db" stroke="#333" stroke-width="0.5"/>
<text x="852.5" y="477.0" text-anchor="middle" fill="#444" font-family="monospace" font-size="7">(225,272,353)</text>
<circle cx="860.2" cy="460.0" r="8" fill="#3498db" stroke="#333" stroke-width="0.5"/>
<text x="860.2" y="477.0" text-anchor="middle" fill="#444" font-family="monospace" font-size="7">(99,20,101)</text>
</svg>