<?xml version="1.0" encoding="UTF-8"?>
<svg xmlns="http://www.w3.org/2000/svg" width="900" height="500"
     viewBox="0 0 900 500">
<rect width="900" height="500" fill="#fafaf5"/>
<text x="450.0" y="25" text-anchor="middle" fill="#333"
      font-family="Georgia, serif" font-size="16" font-weight="bold">
  Depth Spectrum: Hypotenuse Growth by Branch</text>

<line x1="60" y1="60" x2="60" y2="420" stroke="#333" stroke-width="1"/>
<line x1="60" y1="420" x2="840" y2="420" stroke="#333" stroke-width="1"/>
<text x="450.0" y="490" text-anchor="middle" fill="#555" font-family="sans-serif" font-size="12">Depth in Berggren Tree</text>
<text x="15" y="250.0" text-anchor="middle" fill="#555" font-family="sans-serif" font-size="12" transform="rotate(-90 15 250.0)">log₁₀(hypotenuse)</text>
<line x1="60.0" y1="420" x2="60.0" y2="425" stroke="#333"/>
<text x="60.0" y="438" text-anchor="middle" fill="#555" font-size="10">0</text>
<line x1="157.5" y1="420" x2="157.5" y2="425" stroke="#333"/>
<text x="157.5" y="438" text-anchor="middle" fill="#555" font-size="10">1</text>
<line x1="255.0" y1="420" x2="255.0" y2="425" stroke="#333"/>
<text x="255.0" y="438" text-anchor="middle" fill="#555" font-size="10">2</text>
<line x1="352.5" y1="420" x2="352.5" y2="425" stroke="#333"/>
<text x="352.5" y="438" text-anchor="middle" fill="#555" font-size="10">3</text>
<line x1="450.0" y1="420" x2="450.0" y2="425" stroke="#333"/>
<text x="450.0" y="438" text-anchor="middle" fill="#555" font-size="10">4</text>
<line x1="547.5" y1="420" x2="547.5" y2="425" stroke="#333"/>
<text x="547.5" y="438" text-anchor="middle" fill="#555" font-size="10">5</text>
<line x1="645.0" y1="420" x2="645.0" y2="425" stroke="#333"/>
<text x="645.0" y="438" text-anchor="middle" fill="#555" font-size="10">6</text>
<line x1="742.5" y1="420" x2="742.5" y2="425" stroke="#333"/>
<text x="742.5" y="438" text-anchor="middle" fill="#555" font-size="10">7</text>
<line x1="840.0" y1="420" x2="840.0" y2="425" stroke="#333"/>
<text x="840.0" y="438" text-anchor="middle" fill="#555" font-size="10">8</text>
<line x1="55" y1="455.33014913007077" x2="840" y2="455.33014913007077" stroke="#eee" stroke-width="0.5"/>
<text x="52" y="459.33014913007077" text-anchor="end" fill="#555" font-size="10">10^0</text>
<line x1="55" y1="404.7841329764414" x2="840" y2="404.7841329764414" stroke="#eee" stroke-width="0.5"/>
<text x="52" y="408.7841329764414" text-anchor="end" fill="#555" font-size="10">10^1</text>
<line x1="55" y1="354.2381168228121" x2="840" y2="354.2381168228121" stroke="#eee" stroke-width="0.5"/>
<text x="52" y="358.2381168228121" text-anchor="end" fill="#555" font-size="10">10^2</text>
<line x1="55" y1="303.69210066918276" x2="840" y2="303.69210066918276" stroke="#eee" stroke-width="0.5"/>
<text x="52" y="307.69210066918276" text-anchor="end" fill="#555" font-size="10">10^3</text>
<line x1="55" y1="253.1460845155534" x2="840" y2="253.1460845155534" stroke="#eee" stroke-width="0.5"/>
<text x="52" y="257.1460845155534" text-anchor="end" fill="#555" font-size="10">10^4</text>
<line x1="55" y1="202.60006836192406" x2="840" y2="202.60006836192406" stroke="#eee" stroke-width="0.5"/>
<text x="52" y="206.60006836192406" text-anchor="end" fill="#555" font-size="10">10^5</text>
<line x1="55" y1="152.0540522082947" x2="840" y2="152.0540522082947" stroke="#eee" stroke-width="0.5"/>
<text x="52" y="156.0540522082947" text-anchor="end" fill="#555" font-size="10">10^6</text>
<line x1="55" y1="101.50803605466541" x2="840" y2="101.50803605466541" stroke="#eee" stroke-width="0.5"/>
<text x="52" y="105.50803605466541" text-anchor="end" fill="#555" font-size="10">10^7</text>
<polyline points="60.0,420.0 157.5,399.0 255.0,384.7 352.5,373.8 450.0,365.1 547.5,357.8 645.0,351.6 742.5,346.1 840.0,341.2" fill="none" stroke="#e74c3c" stroke-width="2.5"/>
<circle cx="60.0" cy="420.0" r="4" fill="#e74c3c" stroke="white" stroke-width="1"/>
<circle cx="157.5" cy="399.0" r="4" fill="#e74c3c" stroke="white" stroke-width="1"/>
<circle cx="255.0" cy="384.7" r="4" fill="#e74c3c" stroke="white" stroke-width="1"/>
<circle cx="352.5" cy="373.8" r="4" fill="#e74c3c" stroke="white" stroke-width="1"/>
<circle cx="450.0" cy="365.1" r="4" fill="#e74c3c" stroke="white" stroke-width="1"/>
<circle cx="547.5" cy="357.8" r="4" fill="#e74c3c" stroke="white" stroke-width="1"/>
<circle cx="645.0" cy="351.6" r="4" fill="#e74c3c" stroke="white" stroke-width="1"/>
<circle cx="742.5" cy="346.1" r="4" fill="#e74c3c" stroke="white" stroke-width="1"/>
<circle cx="840.0" cy="341.2" r="4" fill="#e74c3c" stroke="white" stroke-width="1"/>
<polyline points="60.0,420.0 157.5,381.4 255.0,342.7 352.5,304.0 450.0,265.3 547.5,226.6 645.0,187.9 742.5,149.2 840.0,110.5" fill="none" stroke="#2ecc71" stroke-width="2.5"/>
<circle cx="60.0" cy="420.0" r="4" fill="#2ecc71" stroke="white" stroke-width="1"/>
<circle cx="157.5" cy="381.4" r="4" fill="#2ecc71" stroke="white" stroke-width="1"/>
<circle cx="255.0" cy="342.7" r="4" fill="#2ecc71" stroke="white" stroke-width="1"/>
<circle cx="352.5" cy="304.0" r="4" fill="#2ecc71" stroke="white" stroke-width="1"/>
<circle cx="450.0" cy="265.3" r="4" fill="#2ecc71" stroke="white" stroke-width="1"/>
<circle cx="547.5" cy="226.6" r="4" fill="#2ecc71" stroke="white" stroke-width="1"/>
<circle cx="645.0" cy="187.9" r="4" fill="#2ecc71" stroke="white" stroke-width="1"/>
<circle cx="742.5" cy="149.2" r="4" fill="#2ecc71" stroke="white" stroke-width="1"/>
<circle cx="840.0" cy="110.5" r="4" fill="#2ecc71" stroke="white" stroke-width="1"/>
<polyline points="60.0,420.0 157.5,393.1 255.0,376.1 352.5,363.7 450.0,354.0 547.5,346.1 645.0,339.4 742.5,333.5 840.0,328.4" fill="none" stroke="#3498db" stroke-width="2.5"/>
<circle cx="60.0" cy="420.0" r="4" fill="#3498db" stroke="white" stroke-width="1"/>
<circle cx="157.5" cy="393.1" r="4" fill="#3498db" stroke="white" stroke-width="1"/>
<circle cx="255.0" cy="376.1" r="4" fill="#3498db" stroke="white" stroke-width="1"/>
<circle cx="352.5" cy="363.7" r="4" fill="#3498db" stroke="white" stroke-width="1"/>
<circle cx="450.0" cy="354.0" r="4" fill="#3498db" stroke="white" stroke-width="1"/>
<circle cx="547.5" cy="346.1" r="4" fill="#3498db" stroke="white" stroke-width="1"/>
<circle cx="645.0" cy="339.4" r="4" fill="#3498db" stroke="white" stroke-width="1"/>
<circle cx="742.5" cy="333.5" r="4" fill="#3498db" stroke="white" stroke-width="1"/>
<circle cx="840.0" cy="328.4" r="4" fill="#3498db" stroke="white" stroke-width="1"/>
<rect x="80" y="75" width="12" height="3" fill="#e74c3c"/>
<text x="98" y="80" fill="#444" font-family="sans-serif" font-size="11">A-branch (quadratic growth)</text>
<rect x="80" y="95" width="12" height="3" fill="#2ecc71"/>
<text x="98" y="100" fill="#444" font-family="sans-serif" font-size="11">B-branch (exponential growth)</text>
<rect x="80" y="115" width="12" height="3" fill="#3498db"/>
<text x="98" y="120" fill="#444" font-family="sans-serif" font-size="11">C-branch (quadratic growth)</text>
</svg>