<?xml version="1.0" encoding="UTF-8"?>
<svg xmlns="http://www.w3.org/2000/svg" width="800" height="880"
     viewBox="0 0 800 880">
<defs>
  <radialGradient id="diskBg" cx="50%" cy="50%" r="50%">
    <stop offset="0%" style="stop-color:#1a1a2e"/>
    <stop offset="100%" style="stop-color:#0d0d1a"/>
  </radialGradient>
  <filter id="glow">
    <feGaussianBlur stdDeviation="2" result="blur"/>
    <feMerge>
      <feMergeNode in="blur"/>
      <feMergeNode in="SourceGraphic"/>
    </feMerge>
  </filter>
</defs>

<!-- Background -->
<rect width="800" height="880" fill="#0a0a14"/>

<!-- Title -->
<text x="400.0" y="30" text-anchor="middle" fill="#e0e0e0"
      font-family="Georgia, serif" font-size="18" font-weight="bold">Berggren Tree on the Poincaré Disk</text>

<!-- Poincaré disk boundary -->
<circle cx="400.0" cy="440.0" r="340.0" fill="url(#diskBg)"
        stroke="#444" stroke-width="2"/>

<!-- Unit circle (light cone) -->
<circle cx="400.0" cy="440.0" r="340.0" fill="none"
        stroke="#555" stroke-width="1" stroke-dasharray="4,4"/>

<line x1="400.0" y1="440.0" x2="430.2" y2="367.6" stroke="#e74c3c" stroke-width="1.7" opacity="0.52"/>
<line x1="400.0" y1="440.0" x2="456.8" y2="385.9" stroke="#2ecc71" stroke-width="1.7" opacity="0.52"/>
<line x1="400.0" y1="440.0" x2="469.2" y2="403.1" stroke="#3498db" stroke-width="1.7" opacity="0.52"/>
<line x1="430.2" y1="367.6" x2="435.7" y2="317.6" stroke="#e74c3c" stroke-width="1.4" opacity="0.44"/>
<line x1="430.2" y1="367.6" x2="496.1" y2="356.2" stroke="#e74c3c" stroke-width="1.4" opacity="0.44"/>
<line x1="430.2" y1="367.6" x2="508.3" y2="372.6" stroke="#e74c3c" stroke-width="1.4" opacity="0.44"/>
<line x1="456.8" y1="385.9" x2="455.9" y2="325.4" stroke="#2ecc71" stroke-width="1.4" opacity="0.44"/>
<line x1="456.8" y1="385.9" x2="489.8" y2="349.5" stroke="#2ecc71" stroke-width="1.4" opacity="0.44"/>
<line x1="456.8" y1="385.9" x2="515.5" y2="386.0" stroke="#2ecc71" stroke-width="1.4" opacity="0.44"/>
<line x1="469.2" y1="403.1" x2="464.7" y2="330.2" stroke="#3498db" stroke-width="1.4" opacity="0.44"/>
<line x1="469.2" y1="403.1" x2="485.4" y2="345.4" stroke="#3498db" stroke-width="1.4" opacity="0.44"/>
<line x1="469.2" y1="403.1" x2="520.6" y2="398.6" stroke="#3498db" stroke-width="1.4" opacity="0.44"/>
<line x1="435.7" y1="317.6" x2="435.4" y2="282.9" stroke="#e74c3c" stroke-width="1.1" opacity="0.36"/>
<line x1="435.7" y1="317.6" x2="523.4" y2="336.6" stroke="#e74c3c" stroke-width="1.1" opacity="0.36"/>
<line x1="435.7" y1="317.6" x2="534.5" y2="351.3" stroke="#e74c3c" stroke-width="1.1" opacity="0.36"/>
<line x1="496.1" y1="356.2" x2="472.6" y2="296.2" stroke="#e74c3c" stroke-width="1.1" opacity="0.36"/>
<line x1="496.1" y1="356.2" x2="512.5" y2="324.8" stroke="#e74c3c" stroke-width="1.1" opacity="0.36"/>
<line x1="496.1" y1="356.2" x2="546.9" y2="374.0" stroke="#e74c3c" stroke-width="1.1" opacity="0.36"/>
<line x1="508.3" y1="372.6" x2="479.3" y2="299.8" stroke="#e74c3c" stroke-width="1.1" opacity="0.36"/>
<line x1="508.3" y1="372.6" x2="509.3" y2="321.7" stroke="#e74c3c" stroke-width="1.1" opacity="0.36"/>
<line x1="508.3" y1="372.6" x2="550.7" y2="383.3" stroke="#e74c3c" stroke-width="1.1" opacity="0.36"/>
<line x1="455.9" y1="325.4" x2="449.6" y2="286.8" stroke="#2ecc71" stroke-width="1.1" opacity="0.36"/>
<line x1="455.9" y1="325.4" x2="520.2" y2="332.8" stroke="#2ecc71" stroke-width="1.1" opacity="0.36"/>
<line x1="455.9" y1="325.4" x2="538.0" y2="356.9" stroke="#2ecc71" stroke-width="1.1" opacity="0.36"/>
<line x1="489.8" y1="349.5" x2="469.2" y2="294.6" stroke="#2ecc71" stroke-width="1.1" opacity="0.36"/>
<line x1="489.8" y1="349.5" x2="514.0" y2="326.2" stroke="#2ecc71" stroke-width="1.1" opacity="0.36"/>
<line x1="489.8" y1="349.5" x2="545.2" y2="370.4" stroke="#2ecc71" stroke-width="1.1" opacity="0.36"/>
<line x1="515.5" y1="386.0" x2="483.6" y2="302.4" stroke="#2ecc71" stroke-width="1.1" opacity="0.36"/>
<line x1="515.5" y1="386.0" x2="506.8" y2="319.5" stroke="#2ecc71" stroke-width="1.1" opacity="0.36"/>
<line x1="515.5" y1="386.0" x2="553.6" y2="391.6" stroke="#2ecc71" stroke-width="1.1" opacity="0.36"/>
<line x1="464.7" y1="330.2" x2="455.1" y2="288.7" stroke="#3498db" stroke-width="1.1" opacity="0.36"/>
<line x1="464.7" y1="330.2" x2="518.7" y2="331.2" stroke="#3498db" stroke-width="1.1" opacity="0.36"/>
<line x1="464.7" y1="330.2" x2="539.7" y2="359.8" stroke="#3498db" stroke-width="1.1" opacity="0.36"/>
<line x1="485.4" y1="345.4" x2="466.9" y2="293.5" stroke="#3498db" stroke-width="1.1" opacity="0.36"/>
<line x1="485.4" y1="345.4" x2="514.9" y2="327.1" stroke="#3498db" stroke-width="1.1" opacity="0.36"/>
<line x1="485.4" y1="345.4" x2="544.2" y2="368.2" stroke="#3498db" stroke-width="1.1" opacity="0.36"/>
<line x1="520.6" y1="398.6" x2="487.2" y2="304.6" stroke="#3498db" stroke-width="1.1" opacity="0.36"/>
<line x1="520.6" y1="398.6" x2="504.5" y2="317.4" stroke="#3498db" stroke-width="1.1" opacity="0.36"/>
<line x1="520.6" y1="398.6" x2="556.1" y2="400.4" stroke="#3498db" stroke-width="1.1" opacity="0.36"/>
<line x1="435.4" y1="282.9" x2="433.4" y2="257.6" stroke="#e74c3c" stroke-width="0.8" opacity="0.28"/>
<line x1="435.4" y1="282.9" x2="543.5" y2="322.5" stroke="#e74c3c" stroke-width="0.8" opacity="0.28"/>
<line x1="435.4" y1="282.9" x2="553.4" y2="335.7" stroke="#e74c3c" stroke-width="0.8" opacity="0.28"/>
<line x1="523.4" y1="336.6" x2="484.6" y2="275.0" stroke="#e74c3c" stroke-width="0.8" opacity="0.28"/>
<line x1="523.4" y1="336.6" x2="529.1" y2="306.9" stroke="#e74c3c" stroke-width="0.8" opacity="0.28"/>
<line x1="523.4" y1="336.6" x2="569.7" y2="365.2" stroke="#e74c3c" stroke-width="0.8" opacity="0.28"/>
<line x1="534.5" y1="351.3" x2="490.1" y2="277.9" stroke="#e74c3c" stroke-width="0.8" opacity="0.28"/>
<line x1="534.5" y1="351.3" x2="526.5" y2="304.4" stroke="#e74c3c" stroke-width="0.8" opacity="0.28"/>
<line x1="534.5" y1="351.3" x2="572.9" y2="372.8" stroke="#e74c3c" stroke-width="0.8" opacity="0.28"/>
<line x1="472.6" y1="296.2" x2="458.3" y2="263.9" stroke="#e74c3c" stroke-width="0.8" opacity="0.28"/>
<line x1="472.6" y1="296.2" x2="538.1" y2="316.3" stroke="#e74c3c" stroke-width="0.8" opacity="0.28"/>
<line x1="472.6" y1="296.2" x2="559.2" y2="344.9" stroke="#e74c3c" stroke-width="0.8" opacity="0.28"/>
<line x1="512.5" y1="324.8" x2="479.3" y2="272.3" stroke="#e74c3c" stroke-width="0.8" opacity="0.28"/>
<line x1="512.5" y1="324.8" x2="531.4" y2="309.1" stroke="#e74c3c" stroke-width="0.8" opacity="0.28"/>
<line x1="512.5" y1="324.8" x2="567.0" y2="359.4" stroke="#e74c3c" stroke-width="0.8" opacity="0.28"/>
<line x1="546.9" y1="374.0" x2="496.9" y2="281.9" stroke="#e74c3c" stroke-width="0.8" opacity="0.28"/>
<line x1="546.9" y1="374.0" x2="522.6" y2="300.9" stroke="#e74c3c" stroke-width="0.8" opacity="0.28"/>
<line x1="546.9" y1="374.0" x2="577.3" y2="385.6" stroke="#e74c3c" stroke-width="0.8" opacity="0.28"/>
<line x1="479.3" y1="299.8" x2="462.1" y2="265.3" stroke="#e74c3c" stroke-width="0.8" opacity="0.28"/>
<line x1="479.3" y1="299.8" x2="537.1" y2="315.1" stroke="#e74c3c" stroke-width="0.8" opacity="0.28"/>
<line x1="479.3" y1="299.8" x2="560.4" y2="346.9" stroke="#e74c3c" stroke-width="0.8" opacity="0.28"/>
<line x1="509.3" y1="321.7" x2="477.7" y2="271.6" stroke="#e74c3c" stroke-width="0.8" opacity="0.28"/>
<line x1="509.3" y1="321.7" x2="532.0" y2="309.8" stroke="#e74c3c" stroke-width="0.8" opacity="0.28"/>
<line x1="509.3" y1="321.7" x2="566.3" y2="357.9" stroke="#e74c3c" stroke-width="0.8" opacity="0.28"/>
<line x1="550.7" y1="383.3" x2="499.3" y2="283.4" stroke="#e74c3c" stroke-width="0.8" opacity="0.28"/>
<line x1="550.7" y1="383.3" x2="521.1" y2="299.5" stroke="#e74c3c" stroke-width="0.8" opacity="0.28"/>
<line x1="550.7" y1="383.3" x2="579.0" y2="391.4" stroke="#e74c3c" stroke-width="0.8" opacity="0.28"/>
<line x1="449.6" y1="286.8" x2="443.9" y2="259.8" stroke="#2ecc71" stroke-width="0.8" opacity="0.28"/>
<line x1="449.6" y1="286.8" x2="541.5" y2="320.1" stroke="#2ecc71" stroke-width="0.8" opacity="0.28"/>
<line x1="449.6" y1="286.8" x2="555.5" y2="339.0" stroke="#2ecc71" stroke-width="0.8" opacity="0.28"/>
<line x1="520.2" y1="332.8" x2="483.0" y2="274.2" stroke="#2ecc71" stroke-width="0.8" opacity="0.28"/>
<line x1="520.2" y1="332.8" x2="529.8" y2="307.6" stroke="#2ecc71" stroke-width="0.8" opacity="0.28"/>
<line x1="520.2" y1="332.8" x2="568.9" y2="363.4" stroke="#2ecc71" stroke-width="0.8" opacity="0.28"/>
<line x1="538.0" y1="356.9" x2="491.9" y2="278.9" stroke="#2ecc71" stroke-width="0.8" opacity="0.28"/>
<line x1="538.0" y1="356.9" x2="525.5" y2="303.5" stroke="#2ecc71" stroke-width="0.8" opacity="0.28"/>
<line x1="538.0" y1="356.9" x2="574.0" y2="375.8" stroke="#2ecc71" stroke-width="0.8" opacity="0.28"/>
<line x1="469.2" y1="294.6" x2="456.3" y2="263.3" stroke="#2ecc71" stroke-width="0.8" opacity="0.28"/>
<line x1="469.2" y1="294.6" x2="538.7" y2="316.8" stroke="#2ecc71" stroke-width="0.8" opacity="0.28"/>
<line x1="469.2" y1="294.6" x2="558.7" y2="344.0" stroke="#2ecc71" stroke-width="0.8" opacity="0.28"/>
<line x1="514.0" y1="326.2" x2="480.0" y2="272.7" stroke="#2ecc71" stroke-width="0.8" opacity="0.28"/>
<line x1="514.0" y1="326.2" x2="531.1" y2="308.8" stroke="#2ecc71" stroke-width="0.8" opacity="0.28"/>
<line x1="514.0" y1="326.2" x2="567.4" y2="360.1" stroke="#2ecc71" stroke-width="0.8" opacity="0.28"/>
<line x1="545.2" y1="370.4" x2="495.9" y2="281.3" stroke="#2ecc71" stroke-width="0.8" opacity="0.28"/>
<line x1="545.2" y1="370.4" x2="523.2" y2="301.4" stroke="#2ecc71" stroke-width="0.8" opacity="0.28"/>
<line x1="545.2" y1="370.4" x2="576.6" y2="383.4" stroke="#2ecc71" stroke-width="0.8" opacity="0.28"/>
<line x1="483.6" y1="302.4" x2="464.5" y2="266.1" stroke="#2ecc71" stroke-width="0.8" opacity="0.28"/>
<line x1="483.6" y1="302.4" x2="536.4" y2="314.4" stroke="#2ecc71" stroke-width="0.8" opacity="0.28"/>
<line x1="483.6" y1="302.4" x2="561.2" y2="348.2" stroke="#2ecc71" stroke-width="0.8" opacity="0.28"/>
<line x1="506.8" y1="319.5" x2="476.4" y2="271.0" stroke="#2ecc71" stroke-width="0.8" opacity="0.28"/>
<line x1="506.8" y1="319.5" x2="532.5" y2="310.2" stroke="#2ecc71" stroke-width="0.8" opacity="0.28"/>
<line x1="506.8" y1="319.5" x2="565.8" y2="356.8" stroke="#2ecc71" stroke-width="0.8" opacity="0.28"/>
<line x1="553.6" y1="391.6" x2="501.3" y2="284.7" stroke="#2ecc71" stroke-width="0.8" opacity="0.28"/>
<line x1="553.6" y1="391.6" x2="519.7" y2="298.3" stroke="#2ecc71" stroke-width="0.8" opacity="0.28"/>
<line x1="553.6" y1="391.6" x2="580.4" y2="397.0" stroke="#2ecc71" stroke-width="0.8" opacity="0.28"/>
<line x1="455.1" y1="288.7" x2="447.6" y2="260.8" stroke="#3498db" stroke-width="0.8" opacity="0.28"/>
<line x1="455.1" y1="288.7" x2="540.7" y2="319.2" stroke="#3498db" stroke-width="0.8" opacity="0.28"/>
<line x1="455.1" y1="288.7" x2="556.4" y2="340.3" stroke="#3498db" stroke-width="0.8" opacity="0.28"/>
<line x1="518.7" y1="331.2" x2="482.3" y2="273.8" stroke="#3498db" stroke-width="0.8" opacity="0.28"/>
<line x1="518.7" y1="331.2" x2="530.2" y2="307.9" stroke="#3498db" stroke-width="0.8" opacity="0.28"/>
<line x1="518.7" y1="331.2" x2="568.5" y2="362.6" stroke="#3498db" stroke-width="0.8" opacity="0.28"/>
<line x1="539.7" y1="359.8" x2="492.8" y2="279.5" stroke="#3498db" stroke-width="0.8" opacity="0.28"/>
<line x1="539.7" y1="359.8" x2="525.0" y2="303.0" stroke="#3498db" stroke-width="0.8" opacity="0.28"/>
<line x1="539.7" y1="359.8" x2="574.6" y2="377.4" stroke="#3498db" stroke-width="0.8" opacity="0.28"/>
<line x1="466.9" y1="293.5" x2="454.9" y2="262.9" stroke="#3498db" stroke-width="0.8" opacity="0.28"/>
<line x1="466.9" y1="293.5" x2="539.0" y2="317.2" stroke="#3498db" stroke-width="0.8" opacity="0.28"/>
<line x1="466.9" y1="293.5" x2="558.3" y2="343.3" stroke="#3498db" stroke-width="0.8" opacity="0.28"/>
<line x1="514.9" y1="327.1" x2="480.4" y2="272.9" stroke="#3498db" stroke-width="0.8" opacity="0.28"/>
<line x1="514.9" y1="327.1" x2="530.9" y2="308.7" stroke="#3498db" stroke-width="0.8" opacity="0.28"/>
<line x1="514.9" y1="327.1" x2="567.6" y2="360.6" stroke="#3498db" stroke-width="0.8" opacity="0.28"/>
<line x1="544.2" y1="368.2" x2="495.3" y2="280.9" stroke="#3498db" stroke-width="0.8" opacity="0.28"/>
<line x1="544.2" y1="368.2" x2="523.6" y2="301.7" stroke="#3498db" stroke-width="0.8" opacity="0.28"/>
<line x1="544.2" y1="368.2" x2="576.2" y2="382.1" stroke="#3498db" stroke-width="0.8" opacity="0.28"/>
<line x1="487.2" y1="304.6" x2="466.4" y2="266.8" stroke="#3498db" stroke-width="0.8" opacity="0.28"/>
<line x1="487.2" y1="304.6" x2="535.9" y2="313.8" stroke="#3498db" stroke-width="0.8" opacity="0.28"/>
<line x1="487.2" y1="304.6" x2="561.8" y2="349.4" stroke="#3498db" stroke-width="0.8" opacity="0.28"/>
<line x1="504.5" y1="317.4" x2="475.3" y2="270.5" stroke="#3498db" stroke-width="0.8" opacity="0.28"/>
<line x1="504.5" y1="317.4" x2="532.9" y2="310.7" stroke="#3498db" stroke-width="0.8" opacity="0.28"/>
<line x1="504.5" y1="317.4" x2="565.3" y2="355.8" stroke="#3498db" stroke-width="0.8" opacity="0.28"/>
<line x1="556.1" y1="400.4" x2="503.3" y2="286.0" stroke="#3498db" stroke-width="0.8" opacity="0.28"/>
<line x1="556.1" y1="400.4" x2="518.2" y2="297.1" stroke="#3498db" stroke-width="0.8" opacity="0.28"/>
<line x1="556.1" y1="400.4" x2="581.8" y2="403.3" stroke="#3498db" stroke-width="0.8" opacity="0.28"/>
<circle cx="400.0" cy="440.0" r="6.0" fill="#f39c12" opacity="1.00" filter="url(#glow)"/>
<text x="409.0" y="443.0" fill="#ccc" font-family="monospace" font-size="9" opacity="0.8">(3,4,5)</text>
<circle cx="430.2" cy="367.6" r="5.5" fill="#e74c3c" opacity="0.90" filter="url(#glow)"/>
<text x="438.7" y="370.6" fill="#ccc" font-family="monospace" font-size="9" opacity="0.8">(5,12,13)</text>
<circle cx="456.8" cy="385.9" r="5.5" fill="#2ecc71" opacity="0.90" filter="url(#glow)"/>
<text x="465.3" y="388.9" fill="#ccc" font-family="monospace" font-size="9" opacity="0.8">(21,20,29)</text>
<circle cx="469.2" cy="403.1" r="5.5" fill="#3498db" opacity="0.90" filter="url(#glow)"/>
<text x="477.7" y="406.1" fill="#ccc" font-family="monospace" font-size="9" opacity="0.8">(15,8,17)</text>
<circle cx="435.7" cy="317.6" r="5.0" fill="#e74c3c" opacity="0.80" filter="url(#glow)"/>
<text x="443.7" y="320.6" fill="#ccc" font-family="monospace" font-size="9" opacity="0.8">(7,24,25)</text>
<circle cx="496.1" cy="356.2" r="5.0" fill="#e74c3c" opacity="0.80" filter="url(#glow)"/>
<text x="504.1" y="359.2" fill="#ccc" font-family="monospace" font-size="9" opacity="0.8">(55,48,73)</text>
<circle cx="508.3" cy="372.6" r="5.0" fill="#e74c3c" opacity="0.80" filter="url(#glow)"/>
<text x="516.3" y="375.6" fill="#ccc" font-family="monospace" font-size="9" opacity="0.8">(45,28,53)</text>
<circle cx="455.9" cy="325.4" r="5.0" fill="#2ecc71" opacity="0.80" filter="url(#glow)"/>
<text x="463.9" y="328.4" fill="#ccc" font-family="monospace" font-size="9" opacity="0.8">(39,80,89)</text>
<circle cx="489.8" cy="349.5" r="5.0" fill="#2ecc71" opacity="0.80" filter="url(#glow)"/>
<text x="497.8" y="352.5" fill="#ccc" font-family="monospace" font-size="9" opacity="0.8">(119,120,169)</text>
<circle cx="515.5" cy="386.0" r="5.0" fill="#2ecc71" opacity="0.80" filter="url(#glow)"/>
<text x="523.5" y="389.0" fill="#ccc" font-family="monospace" font-size="9" opacity="0.8">(77,36,85)</text>
<circle cx="464.7" cy="330.2" r="5.0" fill="#3498db" opacity="0.80" filter="url(#glow)"/>
<text x="472.7" y="333.2" fill="#ccc" font-family="monospace" font-size="9" opacity="0.8">(33,56,65)</text>
<circle cx="485.4" cy="345.4" r="5.0" fill="#3498db" opacity="0.80" filter="url(#glow)"/>
<text x="493.4" y="348.4" fill="#ccc" font-family="monospace" font-size="9" opacity="0.8">(65,72,97)</text>
<circle cx="520.6" cy="398.6" r="5.0" fill="#3498db" opacity="0.80" filter="url(#glow)"/>
<text x="528.6" y="401.6" fill="#ccc" font-family="monospace" font-size="9" opacity="0.8">(35,12,37)</text>
<circle cx="435.4" cy="282.9" r="4.5" fill="#e74c3c" opacity="0.70" filter="url(#glow)"/>
<circle cx="523.4" cy="336.6" r="4.5" fill="#e74c3c" opacity="0.70" filter="url(#glow)"/>
<circle cx="534.5" cy="351.3" r="4.5" fill="#e74c3c" opacity="0.70" filter="url(#glow)"/>
<circle cx="472.6" cy="296.2" r="4.5" fill="#e74c3c" opacity="0.70" filter="url(#glow)"/>
<circle cx="512.5" cy="324.8" r="4.5" fill="#e74c3c" opacity="0.70" filter="url(#glow)"/>
<circle cx="546.9" cy="374.0" r="4.5" fill="#e74c3c" opacity="0.70" filter="url(#glow)"/>
<circle cx="479.3" cy="299.8" r="4.5" fill="#e74c3c" opacity="0.70" filter="url(#glow)"/>
<circle cx="509.3" cy="321.7" r="4.5" fill="#e74c3c" opacity="0.70" filter="url(#glow)"/>
<circle cx="550.7" cy="383.3" r="4.5" fill="#e74c3c" opacity="0.70" filter="url(#glow)"/>
<circle cx="449.6" cy="286.8" r="4.5" fill="#2ecc71" opacity="0.70" filter="url(#glow)"/>
<circle cx="520.2" cy="332.8" r="4.5" fill="#2ecc71" opacity="0.70" filter="url(#glow)"/>
<circle cx="538.0" cy="356.9" r="4.5" fill="#2ecc71" opacity="0.70" filter="url(#glow)"/>
<circle cx="469.2" cy="294.6" r="4.5" fill="#2ecc71" opacity="0.70" filter="url(#glow)"/>
<circle cx="514.0" cy="326.2" r="4.5" fill="#2ecc71" opacity="0.70" filter="url(#glow)"/>
<circle cx="545.2" cy="370.4" r="4.5" fill="#2ecc71" opacity="0.70" filter="url(#glow)"/>
<circle cx="483.6" cy="302.4" r="4.5" fill="#2ecc71" opacity="0.70" filter="url(#glow)"/>
<circle cx="506.8" cy="319.5" r="4.5" fill="#2ecc71" opacity="0.70" filter="url(#glow)"/>
<circle cx="553.6" cy="391.6" r="4.5" fill="#2ecc71" opacity="0.70" filter="url(#glow)"/>
<circle cx="455.1" cy="288.7" r="4.5" fill="#3498db" opacity="0.70" filter="url(#glow)"/>
<circle cx="518.7" cy="331.2" r="4.5" fill="#3498db" opacity="0.70" filter="url(#glow)"/>
<circle cx="539.7" cy="359.8" r="4.5" fill="#3498db" opacity="0.70" filter="url(#glow)"/>
<circle cx="466.9" cy="293.5" r="4.5" fill="#3498db" opacity="0.70" filter="url(#glow)"/>
<circle cx="514.9" cy="327.1" r="4.5" fill="#3498db" opacity="0.70" filter="url(#glow)"/>
<circle cx="544.2" cy="368.2" r="4.5" fill="#3498db" opacity="0.70" filter="url(#glow)"/>
<circle cx="487.2" cy="304.6" r="4.5" fill="#3498db" opacity="0.70" filter="url(#glow)"/>
<circle cx="504.5" cy="317.4" r="4.5" fill="#3498db" opacity="0.70" filter="url(#glow)"/>
<circle cx="556.1" cy="400.4" r="4.5" fill="#3498db" opacity="0.70" filter="url(#glow)"/>
<circle cx="433.4" cy="257.6" r="4.0" fill="#e74c3c" opacity="0.60" filter="url(#glow)"/>
<circle cx="543.5" cy="322.5" r="4.0" fill="#e74c3c" opacity="0.60" filter="url(#glow)"/>
<circle cx="553.4" cy="335.7" r="4.0" fill="#e74c3c" opacity="0.60" filter="url(#glow)"/>
<circle cx="484.6" cy="275.0" r="4.0" fill="#e74c3c" opacity="0.60" filter="url(#glow)"/>
<circle cx="529.1" cy="306.9" r="4.0" fill="#e74c3c" opacity="0.60" filter="url(#glow)"/>
<circle cx="569.7" cy="365.2" r="4.0" fill="#e74c3c" opacity="0.60" filter="url(#glow)"/>
<circle cx="490.1" cy="277.9" r="4.0" fill="#e74c3c" opacity="0.60" filter="url(#glow)"/>
<circle cx="526.5" cy="304.4" r="4.0" fill="#e74c3c" opacity="0.60" filter="url(#glow)"/>
<circle cx="572.9" cy="372.8" r="4.0" fill="#e74c3c" opacity="0.60" filter="url(#glow)"/>
<circle cx="458.3" cy="263.9" r="4.0" fill="#e74c3c" opacity="0.60" filter="url(#glow)"/>
<circle cx="538.1" cy="316.3" r="4.0" fill="#e74c3c" opacity="0.60" filter="url(#glow)"/>
<circle cx="559.2" cy="344.9" r="4.0" fill="#e74c3c" opacity="0.60" filter="url(#glow)"/>
<circle cx="479.3" cy="272.3" r="4.0" fill="#e74c3c" opacity="0.60" filter="url(#glow)"/>
<circle cx="531.4" cy="309.1" r="4.0" fill="#e74c3c" opacity="0.60" filter="url(#glow)"/>
<circle cx="567.0" cy="359.4" r="4.0" fill="#e74c3c" opacity="0.60" filter="url(#glow)"/>
<circle cx="496.9" cy="281.9" r="4.0" fill="#e74c3c" opacity="0.60" filter="url(#glow)"/>
<circle cx="522.6" cy="300.9" r="4.0" fill="#e74c3c" opacity="0.60" filter="url(#glow)"/>
<circle cx="577.3" cy="385.6" r="4.0" fill="#e74c3c" opacity="0.60" filter="url(#glow)"/>
<circle cx="462.1" cy="265.3" r="4.0" fill="#e74c3c" opacity="0.60" filter="url(#glow)"/>
<circle cx="537.1" cy="315.1" r="4.0" fill="#e74c3c" opacity="0.60" filter="url(#glow)"/>
<circle cx="560.4" cy="346.9" r="4.0" fill="#e74c3c" opacity="0.60" filter="url(#glow)"/>
<circle cx="477.7" cy="271.6" r="4.0" fill="#e74c3c" opacity="0.60" filter="url(#glow)"/>
<circle cx="532.0" cy="309.8" r="4.0" fill="#e74c3c" opacity="0.60" filter="url(#glow)"/>
<circle cx="566.3" cy="357.9" r="4.0" fill="#e74c3c" opacity="0.60" filter="url(#glow)"/>
<circle cx="499.3" cy="283.4" r="4.0" fill="#e74c3c" opacity="0.60" filter="url(#glow)"/>
<circle cx="521.1" cy="299.5" r="4.0" fill="#e74c3c" opacity="0.60" filter="url(#glow)"/>
<circle cx="579.0" cy="391.4" r="4.0" fill="#e74c3c" opacity="0.60" filter="url(#glow)"/>
<circle cx="443.9" cy="259.8" r="4.0" fill="#2ecc71" opacity="0.60" filter="url(#glow)"/>
<circle cx="541.5" cy="320.1" r="4.0" fill="#2ecc71" opacity="0.60" filter="url(#glow)"/>
<circle cx="555.5" cy="339.0" r="4.0" fill="#2ecc71" opacity="0.60" filter="url(#glow)"/>
<circle cx="483.0" cy="274.2" r="4.0" fill="#2ecc71" opacity="0.60" filter="url(#glow)"/>
<circle cx="529.8" cy="307.6" r="4.0" fill="#2ecc71" opacity="0.60" filter="url(#glow)"/>
<circle cx="568.9" cy="363.4" r="4.0" fill="#2ecc71" opacity="0.60" filter="url(#glow)"/>
<circle cx="491.9" cy="278.9" r="4.0" fill="#2ecc71" opacity="0.60" filter="url(#glow)"/>
<circle cx="525.5" cy="303.5" r="4.0" fill="#2ecc71" opacity="0.60" filter="url(#glow)"/>
<circle cx="574.0" cy="375.8" r="4.0" fill="#2ecc71" opacity="0.60" filter="url(#glow)"/>
<circle cx="456.3" cy="263.3" r="4.0" fill="#2ecc71" opacity="0.60" filter="url(#glow)"/>
<circle cx="538.7" cy="316.8" r="4.0" fill="#2ecc71" opacity="0.60" filter="url(#glow)"/>
<circle cx="558.7" cy="344.0" r="4.0" fill="#2ecc71" opacity="0.60" filter="url(#glow)"/>
<circle cx="480.0" cy="272.7" r="4.0" fill="#2ecc71" opacity="0.60" filter="url(#glow)"/>
<circle cx="531.1" cy="308.8" r="4.0" fill="#2ecc71" opacity="0.60" filter="url(#glow)"/>
<circle cx="567.4" cy="360.1" r="4.0" fill="#2ecc71" opacity="0.60" filter="url(#glow)"/>
<circle cx="495.9" cy="281.3" r="4.0" fill="#2ecc71" opacity="0.60" filter="url(#glow)"/>
<circle cx="523.2" cy="301.4" r="4.0" fill="#2ecc71" opacity="0.60" filter="url(#glow)"/>
<circle cx="576.6" cy="383.4" r="4.0" fill="#2ecc71" opacity="0.60" filter="url(#glow)"/>
<circle cx="464.5" cy="266.1" r="4.0" fill="#2ecc71" opacity="0.60" filter="url(#glow)"/>
<circle cx="536.4" cy="314.4" r="4.0" fill="#2ecc71" opacity="0.60" filter="url(#glow)"/>
<circle cx="561.2" cy="348.2" r="4.0" fill="#2ecc71" opacity="0.60" filter="url(#glow)"/>
<circle cx="476.4" cy="271.0" r="4.0" fill="#2ecc71" opacity="0.60" filter="url(#glow)"/>
<circle cx="532.5" cy="310.2" r="4.0" fill="#2ecc71" opacity="0.60" filter="url(#glow)"/>
<circle cx="565.8" cy="356.8" r="4.0" fill="#2ecc71" opacity="0.60" filter="url(#glow)"/>
<circle cx="501.3" cy="284.7" r="4.0" fill="#2ecc71" opacity="0.60" filter="url(#glow)"/>
<circle cx="519.7" cy="298.3" r="4.0" fill="#2ecc71" opacity="0.60" filter="url(#glow)"/>
<circle cx="580.4" cy="397.0" r="4.0" fill="#2ecc71" opacity="0.60" filter="url(#glow)"/>
<circle cx="447.6" cy="260.8" r="4.0" fill="#3498db" opacity="0.60" filter="url(#glow)"/>
<circle cx="540.7" cy="319.2" r="4.0" fill="#3498db" opacity="0.60" filter="url(#glow)"/>
<circle cx="556.4" cy="340.3" r="4.0" fill="#3498db" opacity="0.60" filter="url(#glow)"/>
<circle cx="482.3" cy="273.8" r="4.0" fill="#3498db" opacity="0.60" filter="url(#glow)"/>
<circle cx="530.2" cy="307.9" r="4.0" fill="#3498db" opacity="0.60" filter="url(#glow)"/>
<circle cx="568.5" cy="362.6" r="4.0" fill="#3498db" opacity="0.60" filter="url(#glow)"/>
<circle cx="492.8" cy="279.5" r="4.0" fill="#3498db" opacity="0.60" filter="url(#glow)"/>
<circle cx="525.0" cy="303.0" r="4.0" fill="#3498db" opacity="0.60" filter="url(#glow)"/>
<circle cx="574.6" cy="377.4" r="4.0" fill="#3498db" opacity="0.60" filter="url(#glow)"/>
<circle cx="454.9" cy="262.9" r="4.0" fill="#3498db" opacity="0.60" filter="url(#glow)"/>
<circle cx="539.0" cy="317.2" r="4.0" fill="#3498db" opacity="0.60" filter="url(#glow)"/>
<circle cx="558.3" cy="343.3" r="4.0" fill="#3498db" opacity="0.60" filter="url(#glow)"/>
<circle cx="480.4" cy="272.9" r="4.0" fill="#3498db" opacity="0.60" filter="url(#glow)"/>
<circle cx="530.9" cy="308.7" r="4.0" fill="#3498db" opacity="0.60" filter="url(#glow)"/>
<circle cx="567.6" cy="360.6" r="4.0" fill="#3498db" opacity="0.60" filter="url(#glow)"/>
<circle cx="495.3" cy="280.9" r="4.0" fill="#3498db" opacity="0.60" filter="url(#glow)"/>
<circle cx="523.6" cy="301.7" r="4.0" fill="#3498db" opacity="0.60" filter="url(#glow)"/>
<circle cx="576.2" cy="382.1" r="4.0" fill="#3498db" opacity="0.60" filter="url(#glow)"/>
<circle cx="466.4" cy="266.8" r="4.0" fill="#3498db" opacity="0.60" filter="url(#glow)"/>
<circle cx="535.9" cy="313.8" r="4.0" fill="#3498db" opacity="0.60" filter="url(#glow)"/>
<circle cx="561.8" cy="349.4" r="4.0" fill="#3498db" opacity="0.60" filter="url(#glow)"/>
<circle cx="475.3" cy="270.5" r="4.0" fill="#3498db" opacity="0.60" filter="url(#glow)"/>
<circle cx="532.9" cy="310.7" r="4.0" fill="#3498db" opacity="0.60" filter="url(#glow)"/>
<circle cx="565.3" cy="355.8" r="4.0" fill="#3498db" opacity="0.60" filter="url(#glow)"/>
<circle cx="503.3" cy="286.0" r="4.0" fill="#3498db" opacity="0.60" filter="url(#glow)"/>
<circle cx="518.2" cy="297.1" r="4.0" fill="#3498db" opacity="0.60" filter="url(#glow)"/>
<circle cx="581.8" cy="403.3" r="4.0" fill="#3498db" opacity="0.60" filter="url(#glow)"/>
<circle cx="50" cy="850" r="5" fill="#e74c3c"/>
<text x="60" y="854" fill="#aaa" font-family="sans-serif" font-size="11">A-branch (slow)</text>
<circle cx="210" cy="850" r="5" fill="#2ecc71"/>
<text x="220" y="854" fill="#aaa" font-family="sans-serif" font-size="11">B-branch (fast)</text>
<circle cx="370" cy="850" r="5" fill="#3498db"/>
<text x="380" y="854" fill="#aaa" font-family="sans-serif" font-size="11">C-branch (mirror)</text>
<circle cx="530" cy="850" r="5" fill="#f39c12"/>
<text x="540" y="854" fill="#aaa" font-family="sans-serif" font-size="11">Root (3,4,5)</text>
</svg>