<svg xmlns="http://www.w3.org/2000/svg" width="900" height="500">
<rect width="900" height="500" fill="#0a0a2e"/>
<text x="450" y="30" text-anchor="middle" fill="#FFD700" font-size="18" font-family="monospace">Experimental Bounds vs Lattice Predictions</text>
<line x1="197.89473684210526" y1="50" x2="197.89473684210526" y2="420" stroke="#222" stroke-width="0.5"/>
<text x="197.89473684210526" y="440" text-anchor="middle" fill="#666" font-size="10" font-family="monospace">10^-80</text>
<line x1="275.7894736842105" y1="50" x2="275.7894736842105" y2="420" stroke="#222" stroke-width="0.5"/>
<text x="275.7894736842105" y="440" text-anchor="middle" fill="#666" font-size="10" font-family="monospace">10^-70</text>
<line x1="353.6842105263158" y1="50" x2="353.6842105263158" y2="420" stroke="#222" stroke-width="0.5"/>
<text x="353.6842105263158" y="440" text-anchor="middle" fill="#666" font-size="10" font-family="monospace">10^-60</text>
<line x1="431.57894736842104" y1="50" x2="431.57894736842104" y2="420" stroke="#222" stroke-width="0.5"/>
<text x="431.57894736842104" y="440" text-anchor="middle" fill="#666" font-size="10" font-family="monospace">10^-50</text>
<line x1="509.4736842105263" y1="50" x2="509.4736842105263" y2="420" stroke="#222" stroke-width="0.5"/>
<text x="509.4736842105263" y="440" text-anchor="middle" fill="#666" font-size="10" font-family="monospace">10^-40</text>
<line x1="587.3684210526316" y1="50" x2="587.3684210526316" y2="420" stroke="#222" stroke-width="0.5"/>
<text x="587.3684210526316" y="440" text-anchor="middle" fill="#666" font-size="10" font-family="monospace">10^-30</text>
<line x1="665.2631578947368" y1="50" x2="665.2631578947368" y2="420" stroke="#222" stroke-width="0.5"/>
<text x="665.2631578947368" y="440" text-anchor="middle" fill="#666" font-size="10" font-family="monospace">10^-20</text>
<line x1="743.1578947368421" y1="50" x2="743.1578947368421" y2="420" stroke="#222" stroke-width="0.5"/>
<text x="743.1578947368421" y="440" text-anchor="middle" fill="#666" font-size="10" font-family="monospace">10^-10</text>
<line x1="821.0526315789473" y1="50" x2="821.0526315789473" y2="420" stroke="#222" stroke-width="0.5"/>
<text x="821.0526315789473" y="440" text-anchor="middle" fill="#666" font-size="10" font-family="monospace">10^0</text>
<line x1="821.0526315789473" y1="50" x2="821.0526315789473" y2="420" stroke="#444" stroke-width="1"/>
<rect x="377.0526315789474" y="116.0" width="303.7894736842105" height="16" fill="#2ecc71" opacity="0.3" rx="3"/>
<circle cx="377.0526315789474" cy="124.0" r="6" fill="#4ECDC4"/>
<text x="377.0526315789474" y="109.0" text-anchor="middle" fill="#4ECDC4" font-size="10" font-family="monospace">10^-57</text>
<line x1="680.8421052631579" y1="112.0" x2="680.8421052631579" y2="136.0" stroke="#FF6B6B" stroke-width="3"/>
<text x="680.8421052631579" y="109.0" text-anchor="middle" fill="#FF6B6B" font-size="10" font-family="monospace">10^-18</text>
<text x="110" y="128.0" text-anchor="end" fill="#DDD" font-size="12" font-family="monospace">Michelson-Morley</text>
<rect x="673.0526315789474" y="190.0" width="147.9999999999999" height="16" fill="#2ecc71" opacity="0.3" rx="3"/>
<circle cx="673.0526315789474" cy="198.0" r="6" fill="#4ECDC4"/>
<text x="673.0526315789474" y="183.0" text-anchor="middle" fill="#4ECDC4" font-size="10" font-family="monospace">10^-19</text>
<line x1="821.0526315789473" y1="186.0" x2="821.0526315789473" y2="210.0" stroke="#FF6B6B" stroke-width="3"/>
<text x="821.0526315789473" y="183.0" text-anchor="middle" fill="#FF6B6B" font-size="10" font-family="monospace">10^0</text>
<text x="110" y="202.0" text-anchor="end" fill="#DDD" font-size="12" font-family="monospace">Fermi-LAT (quad)</text>
<rect x="252.42105263157896" y="264.0" width="358.31578947368416" height="16" fill="#2ecc71" opacity="0.3" rx="3"/>
<circle cx="252.42105263157896" cy="272.0" r="6" fill="#4ECDC4"/>
<text x="252.42105263157896" y="257.0" text-anchor="middle" fill="#4ECDC4" font-size="10" font-family="monospace">10^-73</text>
<line x1="610.7368421052631" y1="260.0" x2="610.7368421052631" y2="284.0" stroke="#FF6B6B" stroke-width="3"/>
<text x="610.7368421052631" y="257.0" text-anchor="middle" fill="#FF6B6B" font-size="10" font-family="monospace">10^-27</text>
<text x="110" y="276.0" text-anchor="end" fill="#DDD" font-size="12" font-family="monospace">Hughes-Drever</text>
<rect x="174.52631578947367" y="338.0" width="529.6842105263158" height="16" fill="#2ecc71" opacity="0.3" rx="3"/>
<circle cx="174.52631578947367" cy="346.0" r="6" fill="#4ECDC4"/>
<text x="174.52631578947367" y="331.0" text-anchor="middle" fill="#4ECDC4" font-size="10" font-family="monospace">10^-83</text>
<line x1="704.2105263157895" y1="334.0" x2="704.2105263157895" y2="358.0" stroke="#FF6B6B" stroke-width="3"/>
<text x="704.2105263157895" y="331.0" text-anchor="middle" fill="#FF6B6B" font-size="10" font-family="monospace">10^-15</text>
<text x="110" y="350.0" text-anchor="end" fill="#DDD" font-size="12" font-family="monospace">LIGO/Virgo</text>
<circle cx="140" cy="475" r="5" fill="#4ECDC4"/>
<text x="150" y="479" fill="#4ECDC4" font-size="11" font-family="monospace">Prediction (a=ℓ_P)</text>
<line x1="340" y1="469" x2="340" y2="481" stroke="#FF6B6B" stroke-width="3"/>
<text x="350" y="479" fill="#FF6B6B" font-size="11" font-family="monospace">Experimental bound</text>
<rect x="540" y="469" width="20" height="12" fill="#2ecc71" opacity="0.3" rx="2"/>
<text x="565" y="479" fill="#2ecc71" font-size="11" font-family="monospace">Safety margin</text>
</svg>