<svg xmlns="http://www.w3.org/2000/svg" width="800" height="500">
<rect width="800" height="500" fill="#0a0a2e"/>
<text x="400" y="30" text-anchor="middle" fill="#FFD700" font-size="18" font-family="monospace">Dispersion: Continuous vs Lattice</text>
<line x1="70" y1="450" x2="760" y2="450" stroke="#666" stroke-width="1"/>
<line x1="70" y1="450" x2="70" y2="50" stroke="#666" stroke-width="1"/>
<text x="400" y="490" text-anchor="middle" fill="#AAA" font-size="14" font-family="monospace">Momentum p (units of π/a)</text>
<text x="15" y="250" text-anchor="middle" fill="#AAA" font-size="14" font-family="monospace" transform="rotate(-90 15 250)">Energy E (units of 2c/a)</text>
<polyline points="70.0,450.0 73.5,448.3 76.9,446.7 80.3,445.0 83.8,443.3 87.2,441.7 90.7,440.0 94.2,438.3 97.6,436.7 101.0,435.0 104.5,433.3 108.0,431.7 111.4,430.0 114.8,428.3 118.3,426.7 121.8,425.0 125.2,423.3 128.7,421.7 132.1,420.0 135.6,418.3 139.0,416.7 142.4,415.0 145.9,413.3 149.3,411.7 152.8,410.0 156.2,408.3 159.7,406.7 163.2,405.0 166.6,403.3 170.1,401.7 173.5,400.0 176.9,398.3 180.4,396.7 183.9,395.0 187.3,393.3 190.8,391.7 194.2,390.0 197.7,388.3 201.1,386.7 204.6,385.0 208.0,383.3 211.4,381.7 214.9,380.0 218.3,378.3 221.8,376.7 225.2,375.0 228.7,373.3 232.2,371.7 235.6,370.0 239.0,368.3 242.5,366.7 246.0,365.0 249.4,363.3 252.9,361.7 256.3,360.0 259.8,358.3 263.2,356.7 266.6,355.0 270.1,353.3 273.5,351.7 277.0,350.0 280.4,348.3 283.9,346.7 287.4,345.0 290.8,343.3 294.2,341.7 297.7,340.0 301.1,338.3 304.6,336.7 308.1,335.0 311.5,333.3 315.0,331.7 318.4,330.0 321.9,328.3 325.3,326.7 328.8,325.0 332.2,323.3 335.7,321.7 339.1,320.0 342.6,318.3 346.0,316.7 349.4,315.0 352.9,313.3 356.4,311.7 359.8,310.0 363.2,308.3 366.7,306.7 370.1,305.0 373.6,303.3 377.1,301.7 380.5,300.0 383.9,298.3 387.4,296.7 390.8,295.0 394.3,293.3 397.8,291.7 401.2,290.0 404.6,288.3 408.1,286.7 411.6,285.0 415.0,283.3 418.4,281.7 421.9,280.0 425.4,278.3 428.8,276.7 432.2,275.0 435.7,273.3 439.2,271.7 442.6,270.0 446.0,268.3 449.5,266.7 453.0,265.0 456.4,263.3 459.8,261.7 463.3,260.0 466.8,258.3 470.2,256.7 473.6,255.0 477.1,253.3 480.5,251.7 484.0,250.0 487.5,248.3 490.9,246.7 494.3,245.0 497.8,243.3 501.2,241.7 504.7,240.0 508.2,238.3 511.6,236.7 515.0,235.0 518.5,233.3 522.0,231.7 525.4,230.0 528.9,228.3 532.3,226.7 535.8,225.0 539.2,223.3 542.7,221.7 546.1,220.0 549.6,218.3 553.0,216.7 556.5,215.0 559.9,213.3 563.4,211.7 566.8,210.0 570.2,208.3 573.7,206.7 577.2,205.0 580.6,203.3 584.0,201.7 587.5,200.0 591.0,198.3 594.4,196.7 597.9,195.0 601.3,193.3 604.8,191.7 608.2,190.0 611.6,188.3 615.1,186.7 618.6,185.0 622.0,183.3 625.4,181.7 628.9,180.0 632.3,178.3 635.8,176.7 639.2,175.0 642.7,173.3 646.2,171.7 649.6,170.0 653.0,168.3 656.5,166.7 659.9,165.0 663.4,163.3 666.8,161.7 670.3,160.0 673.7,158.3 677.2,156.7 680.7,155.0 684.1,153.3 687.6,151.7 691.0,150.0 694.5,148.3 697.9,146.7 701.3,145.0 704.8,143.3 708.2,141.7 711.7,140.0 715.2,138.3 718.6,136.7 722.1,135.0 725.5,133.3 728.9,131.7 732.4,130.0 735.9,128.3 739.3,126.7 742.8,125.0 746.2,123.3 749.6,121.7 753.1,120.0 756.5,118.3 760.0,116.7" fill="none" stroke="#FF6B6B" stroke-width="2.5" stroke-dasharray="8,4"/>
<polyline points="70.0,450.0 73.5,447.4 76.9,444.8 80.3,442.1 83.8,439.5 87.2,436.9 90.7,434.3 94.2,431.7 97.6,429.1 101.0,426.5 104.5,423.8 108.0,421.2 111.4,418.6 114.8,416.0 118.3,413.4 121.8,410.8 125.2,408.2 128.7,405.6 132.1,403.0 135.6,400.4 139.0,397.9 142.4,395.3 145.9,392.7 149.3,390.1 152.8,387.5 156.2,385.0 159.7,382.4 163.2,379.8 166.6,377.3 170.1,374.7 173.5,372.2 176.9,369.6 180.4,367.1 183.9,364.6 187.3,362.0 190.8,359.5 194.2,357.0 197.7,354.5 201.1,352.0 204.6,349.5 208.0,347.0 211.4,344.5 214.9,342.0 218.3,339.6 221.8,337.1 225.2,334.6 228.7,332.2 232.2,329.7 235.6,327.3 239.0,324.9 242.5,322.4 246.0,320.0 249.4,317.6 252.9,315.2 256.3,312.8 259.8,310.4 263.2,308.1 266.6,305.7 270.1,303.4 273.5,301.0 277.0,298.7 280.4,296.3 283.9,294.0 287.4,291.7 290.8,289.4 294.2,287.1 297.7,284.8 301.1,282.6 304.6,280.3 308.1,278.1 311.5,275.8 315.0,273.6 318.4,271.4 321.9,269.2 325.3,267.0 328.8,264.8 332.2,262.6 335.7,260.5 339.1,258.3 342.6,256.2 346.0,254.1 349.4,252.0 352.9,249.9 356.4,247.8 359.8,245.7 363.2,243.6 366.7,241.6 370.1,239.5 373.6,237.5 377.1,235.5 380.5,233.5 383.9,231.5 387.4,229.6 390.8,227.6 394.3,225.7 397.8,223.7 401.2,221.8 404.6,219.9 408.1,218.0 411.6,216.2 415.0,214.3 418.4,212.5 421.9,210.6 425.4,208.8 428.8,207.0 432.2,205.2 435.7,203.5 439.2,201.7 442.6,200.0 446.0,198.2 449.5,196.5 453.0,194.8 456.4,193.2 459.8,191.5 463.3,189.9 466.8,188.2 470.2,186.6 473.6,185.0 477.1,183.4 480.5,181.9 484.0,180.3 487.5,178.8 490.9,177.3 494.3,175.8 497.8,174.3 501.2,172.8 504.7,171.4 508.2,170.0 511.6,168.6 515.0,167.2 518.5,165.8 522.0,164.4 525.4,163.1 528.9,161.8 532.3,160.5 535.8,159.2 539.2,157.9 542.7,156.6 546.1,155.4 549.6,154.2 553.0,153.0 556.5,151.8 559.9,150.7 563.4,149.5 566.8,148.4 570.2,147.3 573.7,146.2 577.2,145.1 580.6,144.1 584.0,143.1 587.5,142.0 591.0,141.0 594.4,140.1 597.9,139.1 601.3,138.2 604.8,137.3 608.2,136.4 611.6,135.5 615.1,134.6 618.6,133.8 622.0,133.0 625.4,132.2 628.9,131.4 632.3,130.6 635.8,129.9 639.2,129.2 642.7,128.5 646.2,127.8 649.6,127.1 653.0,126.5 656.5,125.9 659.9,125.3 663.4,124.7 666.8,124.1 670.3,123.6 673.7,123.1 677.2,122.6 680.7,122.1 684.1,121.6 687.6,121.2 691.0,120.8 694.5,120.4 697.9,120.0 701.3,119.6 704.8,119.3 708.2,119.0 711.7,118.7 715.2,118.4 718.6,118.1 722.1,117.9 725.5,117.7 728.9,117.5 732.4,117.3 735.9,117.2 739.3,117.0 742.8,116.9 746.2,116.8 749.6,116.8 753.1,116.7 756.5,116.7 760.0,116.7" fill="none" stroke="#4ECDC4" stroke-width="2.5"/>
<line x1="760" y1="450" x2="760" y2="50" stroke="#FFD700" stroke-width="1" stroke-dasharray="3,3"/>
<text x="760" y="45" text-anchor="middle" fill="#FFD700" font-size="11" font-family="monospace">Brillouin zone</text>
<line x1="90" y1="70" x2="120" y2="70" stroke="#FF6B6B" stroke-width="2.5" stroke-dasharray="8,4"/>
<text x="125" y="74" fill="#FF6B6B" font-size="13" font-family="monospace">E = pc (continuous)</text>
<line x1="90" y1="95" x2="120" y2="95" stroke="#4ECDC4" stroke-width="2.5"/>
<text x="125" y="99" fill="#4ECDC4" font-size="13" font-family="monospace">E = (2/a)sin(pa/2) (lattice)</text>
<text x="632.0" y="122.98116123494884" fill="#4ECDC4" font-size="11" font-family="monospace">UV cutoff!</text>
</svg>