<svg xmlns="http://www.w3.org/2000/svg" width="800" height="800">
<rect width="800" height="800" fill="#0a0a2e"/>
<text x="400" y="30" text-anchor="middle" fill="#FFD700" font-size="18" font-family="monospace">Lattice Light Propagation (c ≤ 25)</text>
<circle cx="400" cy="400" r="320" fill="none" stroke="#333" stroke-width="1" stroke-dasharray="4,4"/>
<text x="725" y="400" fill="#555" font-size="10" font-family="monospace">continuous</text>
<line x1="80" y1="80" x2="80" y2="720" stroke="#111" stroke-width="0.5"/>
<line x1="80" y1="80" x2="720" y2="80" stroke="#111" stroke-width="0.5"/>
<line x1="112" y1="80" x2="112" y2="720" stroke="#111" stroke-width="0.5"/>
<line x1="80" y1="112" x2="720" y2="112" stroke="#111" stroke-width="0.5"/>
<line x1="144" y1="80" x2="144" y2="720" stroke="#111" stroke-width="0.5"/>
<line x1="80" y1="144" x2="720" y2="144" stroke="#111" stroke-width="0.5"/>
<line x1="176" y1="80" x2="176" y2="720" stroke="#111" stroke-width="0.5"/>
<line x1="80" y1="176" x2="720" y2="176" stroke="#111" stroke-width="0.5"/>
<line x1="208" y1="80" x2="208" y2="720" stroke="#111" stroke-width="0.5"/>
<line x1="80" y1="208" x2="720" y2="208" stroke="#111" stroke-width="0.5"/>
<line x1="240" y1="80" x2="240" y2="720" stroke="#111" stroke-width="0.5"/>
<line x1="80" y1="240" x2="720" y2="240" stroke="#111" stroke-width="0.5"/>
<line x1="272" y1="80" x2="272" y2="720" stroke="#111" stroke-width="0.5"/>
<line x1="80" y1="272" x2="720" y2="272" stroke="#111" stroke-width="0.5"/>
<line x1="304" y1="80" x2="304" y2="720" stroke="#111" stroke-width="0.5"/>
<line x1="80" y1="304" x2="720" y2="304" stroke="#111" stroke-width="0.5"/>
<line x1="336" y1="80" x2="336" y2="720" stroke="#111" stroke-width="0.5"/>
<line x1="80" y1="336" x2="720" y2="336" stroke="#111" stroke-width="0.5"/>
<line x1="368" y1="80" x2="368" y2="720" stroke="#111" stroke-width="0.5"/>
<line x1="80" y1="368" x2="720" y2="368" stroke="#111" stroke-width="0.5"/>
<line x1="400" y1="80" x2="400" y2="720" stroke="#111" stroke-width="0.5"/>
<line x1="80" y1="400" x2="720" y2="400" stroke="#111" stroke-width="0.5"/>
<line x1="432" y1="80" x2="432" y2="720" stroke="#111" stroke-width="0.5"/>
<line x1="80" y1="432" x2="720" y2="432" stroke="#111" stroke-width="0.5"/>
<line x1="464" y1="80" x2="464" y2="720" stroke="#111" stroke-width="0.5"/>
<line x1="80" y1="464" x2="720" y2="464" stroke="#111" stroke-width="0.5"/>
<line x1="496" y1="80" x2="496" y2="720" stroke="#111" stroke-width="0.5"/>
<line x1="80" y1="496" x2="720" y2="496" stroke="#111" stroke-width="0.5"/>
<line x1="528" y1="80" x2="528" y2="720" stroke="#111" stroke-width="0.5"/>
<line x1="80" y1="528" x2="720" y2="528" stroke="#111" stroke-width="0.5"/>
<line x1="560" y1="80" x2="560" y2="720" stroke="#111" stroke-width="0.5"/>
<line x1="80" y1="560" x2="720" y2="560" stroke="#111" stroke-width="0.5"/>
<line x1="592" y1="80" x2="592" y2="720" stroke="#111" stroke-width="0.5"/>
<line x1="80" y1="592" x2="720" y2="592" stroke="#111" stroke-width="0.5"/>
<line x1="624" y1="80" x2="624" y2="720" stroke="#111" stroke-width="0.5"/>
<line x1="80" y1="624" x2="720" y2="624" stroke="#111" stroke-width="0.5"/>
<line x1="656" y1="80" x2="656" y2="720" stroke="#111" stroke-width="0.5"/>
<line x1="80" y1="656" x2="720" y2="656" stroke="#111" stroke-width="0.5"/>
<line x1="688" y1="80" x2="688" y2="720" stroke="#111" stroke-width="0.5"/>
<line x1="80" y1="688" x2="720" y2="688" stroke="#111" stroke-width="0.5"/>
<line x1="720" y1="80" x2="720" y2="720" stroke="#111" stroke-width="0.5"/>
<line x1="80" y1="720" x2="720" y2="720" stroke="#111" stroke-width="0.5"/>
<line x1="80" y1="400" x2="720" y2="400" stroke="#444" stroke-width="1"/>
<line x1="400" y1="80" x2="400" y2="720" stroke="#444" stroke-width="1"/>
<line x1="400" y1="400" x2="438.4" y2="348.8" stroke="rgb(26,110,243)" stroke-width="1.5" opacity="0.6"/>
<circle cx="438.4" cy="348.8" r="3" fill="rgb(26,110,243)"/>
<line x1="400" y1="400" x2="438.4" y2="451.2" stroke="rgb(229,12,145)" stroke-width="1.5" opacity="0.6"/>
<circle cx="438.4" cy="451.2" r="3" fill="rgb(229,12,145)"/>
<line x1="400" y1="400" x2="361.6" y2="348.8" stroke="rgb(26,243,110)" stroke-width="1.5" opacity="0.6"/>
<circle cx="361.6" cy="348.8" r="3" fill="rgb(26,243,110)"/>
<line x1="400" y1="400" x2="361.6" y2="451.2" stroke="rgb(229,145,12)" stroke-width="1.5" opacity="0.6"/>
<circle cx="361.6" cy="451.2" r="3" fill="rgb(229,145,12)"/>
<line x1="400" y1="400" x2="451.2" y2="361.6" stroke="rgb(51,75,253)" stroke-width="1.5" opacity="0.6"/>
<circle cx="451.2" cy="361.6" r="3" fill="rgb(51,75,253)"/>
<line x1="400" y1="400" x2="451.2" y2="438.4" stroke="rgb(204,2,180)" stroke-width="1.5" opacity="0.6"/>
<circle cx="451.2" cy="438.4" r="3" fill="rgb(204,2,180)"/>
<line x1="400" y1="400" x2="348.8" y2="361.6" stroke="rgb(51,253,75)" stroke-width="1.5" opacity="0.6"/>
<circle cx="348.8" cy="361.6" r="3" fill="rgb(51,253,75)"/>
<line x1="400" y1="400" x2="348.8" y2="438.4" stroke="rgb(204,180,2)" stroke-width="1.5" opacity="0.6"/>
<circle cx="348.8" cy="438.4" r="3" fill="rgb(204,180,2)"/>
<line x1="400" y1="400" x2="464.0" y2="246.39999999999998" stroke="rgb(10,141,227)" stroke-width="1.5" opacity="0.6"/>
<circle cx="464.0" cy="246.39999999999998" r="3" fill="rgb(10,141,227)"/>
<line x1="400" y1="400" x2="464.0" y2="553.6" stroke="rgb(245,28,114)" stroke-width="1.5" opacity="0.6"/>
<circle cx="464.0" cy="553.6" r="3" fill="rgb(245,28,114)"/>
<line x1="400" y1="400" x2="336.0" y2="246.39999999999998" stroke="rgb(10,227,141)" stroke-width="1.5" opacity="0.6"/>
<circle cx="336.0" cy="246.39999999999998" r="3" fill="rgb(10,227,141)"/>
<line x1="400" y1="400" x2="336.0" y2="553.6" stroke="rgb(245,114,28)" stroke-width="1.5" opacity="0.6"/>
<circle cx="336.0" cy="553.6" r="3" fill="rgb(245,114,28)"/>
<line x1="400" y1="400" x2="553.6" y2="336.0" stroke="rgb(79,48,254)" stroke-width="1.5" opacity="0.6"/>
<circle cx="553.6" cy="336.0" r="3" fill="rgb(79,48,254)"/>
<line x1="400" y1="400" x2="553.6" y2="464.0" stroke="rgb(176,1,207)" stroke-width="1.5" opacity="0.6"/>
<circle cx="553.6" cy="464.0" r="3" fill="rgb(176,1,207)"/>
<line x1="400" y1="400" x2="246.39999999999998" y2="336.0" stroke="rgb(79,254,48)" stroke-width="1.5" opacity="0.6"/>
<circle cx="246.39999999999998" cy="336.0" r="3" fill="rgb(79,254,48)"/>
<line x1="400" y1="400" x2="246.39999999999998" y2="464.0" stroke="rgb(176,207,1)" stroke-width="1.5" opacity="0.6"/>
<circle cx="246.39999999999998" cy="464.0" r="3" fill="rgb(176,207,1)"/>
<line x1="400" y1="400" x2="592.0" y2="297.6" stroke="rgb(68,58,254)" stroke-width="1.5" opacity="0.6"/>
<circle cx="592.0" cy="297.6" r="3" fill="rgb(68,58,254)"/>
<line x1="400" y1="400" x2="592.0" y2="502.4" stroke="rgb(187,1,197)" stroke-width="1.5" opacity="0.6"/>
<circle cx="592.0" cy="502.4" r="3" fill="rgb(187,1,197)"/>
<line x1="400" y1="400" x2="208.0" y2="297.6" stroke="rgb(68,254,58)" stroke-width="1.5" opacity="0.6"/>
<circle cx="208.0" cy="297.6" r="3" fill="rgb(68,254,58)"/>
<line x1="400" y1="400" x2="208.0" y2="502.4" stroke="rgb(187,197,1)" stroke-width="1.5" opacity="0.6"/>
<circle cx="208.0" cy="502.4" r="3" fill="rgb(187,197,1)"/>
<line x1="400" y1="400" x2="502.4" y2="208.0" stroke="rgb(15,129,234)" stroke-width="1.5" opacity="0.6"/>
<circle cx="502.4" cy="208.0" r="3" fill="rgb(15,129,234)"/>
<line x1="400" y1="400" x2="502.4" y2="592.0" stroke="rgb(240,21,126)" stroke-width="1.5" opacity="0.6"/>
<circle cx="502.4" cy="592.0" r="3" fill="rgb(240,21,126)"/>
<line x1="400" y1="400" x2="297.6" y2="208.0" stroke="rgb(15,234,129)" stroke-width="1.5" opacity="0.6"/>
<circle cx="297.6" cy="208.0" r="3" fill="rgb(15,234,129)"/>
<line x1="400" y1="400" x2="297.6" y2="592.0" stroke="rgb(240,126,21)" stroke-width="1.5" opacity="0.6"/>
<circle cx="297.6" cy="592.0" r="3" fill="rgb(240,126,21)"/>
<line x1="400" y1="400" x2="489.6" y2="92.79999999999995" stroke="rgb(6,155,217)" stroke-width="1.5" opacity="0.6"/>
<circle cx="489.6" cy="92.79999999999995" r="3" fill="rgb(6,155,217)"/>
<line x1="400" y1="400" x2="489.6" y2="707.2" stroke="rgb(249,38,100)" stroke-width="1.5" opacity="0.6"/>
<circle cx="489.6" cy="707.2" r="3" fill="rgb(249,38,100)"/>
<line x1="400" y1="400" x2="310.4" y2="92.79999999999995" stroke="rgb(6,217,155)" stroke-width="1.5" opacity="0.6"/>
<circle cx="310.4" cy="92.79999999999995" r="3" fill="rgb(6,217,155)"/>
<line x1="400" y1="400" x2="310.4" y2="707.2" stroke="rgb(249,100,38)" stroke-width="1.5" opacity="0.6"/>
<circle cx="310.4" cy="707.2" r="3" fill="rgb(249,100,38)"/>
<line x1="400" y1="400" x2="707.2" y2="310.4" stroke="rgb(92,38,251)" stroke-width="1.5" opacity="0.6"/>
<circle cx="707.2" cy="310.4" r="3" fill="rgb(92,38,251)"/>
<line x1="400" y1="400" x2="707.2" y2="489.6" stroke="rgb(163,4,217)" stroke-width="1.5" opacity="0.6"/>
<circle cx="707.2" cy="489.6" r="3" fill="rgb(163,4,217)"/>
<line x1="400" y1="400" x2="92.79999999999995" y2="310.4" stroke="rgb(92,251,38)" stroke-width="1.5" opacity="0.6"/>
<circle cx="92.79999999999995" cy="310.4" r="3" fill="rgb(92,251,38)"/>
<line x1="400" y1="400" x2="92.79999999999995" y2="489.6" stroke="rgb(163,217,4)" stroke-width="1.5" opacity="0.6"/>
<circle cx="92.79999999999995" cy="489.6" r="3" fill="rgb(163,217,4)"/>
<circle cx="400" cy="400" r="5" fill="#FFD700"/>
<text x="740" y="760" text-anchor="end" fill="#AAA" font-size="12" font-family="monospace">32 lattice directions</text>
<text x="740" y="780" text-anchor="end" fill="#666" font-size="10" font-family="monospace">dashed = continuous reference</text>
</svg>