<svg xmlns="http://www.w3.org/2000/svg" viewBox="0 0 800 800"
     font-family="'Segoe UI', Arial, sans-serif">
  <defs>
    <radialGradient id="diskBg" cx="50%" cy="50%" r="50%">
      <stop offset="0%" style="stop-color:#1a1a3e"/>
      <stop offset="90%" style="stop-color:#0a0a2e"/>
      <stop offset="100%" style="stop-color:#050520"/>
    </radialGradient>
    <filter id="glow">
      <feGaussianBlur stdDeviation="2" result="blur"/>
      <feMerge><feMergeNode in="blur"/><feMergeNode in="SourceGraphic"/></feMerge>
    </filter>
  </defs>

  <rect width="800" height="800" fill="#0a0a2e"/>

  <!-- Poincaré disk boundary -->
  <circle cx="400.0" cy="400.0" r="362.0" fill="none" stroke="#444" stroke-width="2"/>
  <circle cx="400.0" cy="400.0" r="360.0" fill="url(#diskBg)"/>

  <!-- Title -->
  <text x="400.0" y="25" text-anchor="middle" fill="#fff" font-size="18" font-weight="bold">
    Berggren Tree in the Poincaré Disk (depth 3)
  </text>
  <!-- Edges -->
  <line x1="508.0" y1="544.0" x2="469.2" y2="566.2" stroke="#4ecdc4" stroke-width="1.7" opacity="0.68"/>
  <line x1="469.2" y1="566.2" x2="450.4" y2="572.8" stroke="#4ecdc4" stroke-width="1.4" opacity="0.56"/>
  <line x1="450.4" y1="572.8" x2="439.5" y2="575.6" stroke="#4ecdc4" stroke-width="1.1" opacity="0.44"/>
  <line x1="450.4" y1="572.8" x2="538.0" y2="515.6" stroke="#ff6b6b" stroke-width="1.1" opacity="0.44"/>
  <line x1="450.4" y1="572.8" x2="550.3" y2="499.1" stroke="#a29bfe" stroke-width="1.1" opacity="0.44"/>
  <line x1="469.2" y1="566.2" x2="535.6" y2="518.4" stroke="#ff6b6b" stroke-width="1.4" opacity="0.56"/>
  <line x1="535.6" y1="518.4" x2="481.1" y2="560.7" stroke="#4ecdc4" stroke-width="1.1" opacity="0.44"/>
  <line x1="535.6" y1="518.4" x2="525.8" y2="528.8" stroke="#ff6b6b" stroke-width="1.1" opacity="0.44"/>
  <line x1="535.6" y1="518.4" x2="564.2" y2="473.8" stroke="#a29bfe" stroke-width="1.1" opacity="0.44"/>
  <line x1="469.2" y1="566.2" x2="552.8" y2="495.1" stroke="#a29bfe" stroke-width="1.4" opacity="0.56"/>
  <line x1="552.8" y1="495.1" x2="488.6" y2="556.7" stroke="#4ecdc4" stroke-width="1.1" opacity="0.44"/>
  <line x1="552.8" y1="495.1" x2="522.2" y2="532.2" stroke="#ff6b6b" stroke-width="1.1" opacity="0.44"/>
  <line x1="552.8" y1="495.1" x2="568.5" y2="463.4" stroke="#a29bfe" stroke-width="1.1" opacity="0.44"/>
  <line x1="508.0" y1="544.0" x2="530.3" y2="524.1" stroke="#ff6b6b" stroke-width="1.7" opacity="0.68"/>
  <line x1="530.3" y1="524.1" x2="478.9" y2="561.8" stroke="#4ecdc4" stroke-width="1.4" opacity="0.56"/>
  <line x1="478.9" y1="561.8" x2="455.5" y2="571.2" stroke="#4ecdc4" stroke-width="1.1" opacity="0.44"/>
  <line x1="478.9" y1="561.8" x2="534.4" y2="519.8" stroke="#ff6b6b" stroke-width="1.1" opacity="0.44"/>
  <line x1="478.9" y1="561.8" x2="554.2" y2="492.8" stroke="#a29bfe" stroke-width="1.1" opacity="0.44"/>
  <line x1="530.3" y1="524.1" x2="526.7" y2="527.8" stroke="#ff6b6b" stroke-width="1.4" opacity="0.56"/>
  <line x1="526.7" y1="527.8" x2="477.3" y2="562.5" stroke="#4ecdc4" stroke-width="1.1" opacity="0.44"/>
  <line x1="526.7" y1="527.8" x2="527.4" y2="527.2" stroke="#ff6b6b" stroke-width="1.1" opacity="0.44"/>
  <line x1="526.7" y1="527.8" x2="562.3" y2="477.8" stroke="#a29bfe" stroke-width="1.1" opacity="0.44"/>
  <line x1="530.3" y1="524.1" x2="563.1" y2="476.2" stroke="#a29bfe" stroke-width="1.4" opacity="0.56"/>
  <line x1="563.1" y1="476.2" x2="493.5" y2="553.8" stroke="#4ecdc4" stroke-width="1.1" opacity="0.44"/>
  <line x1="563.1" y1="476.2" x2="519.4" y2="534.7" stroke="#ff6b6b" stroke-width="1.1" opacity="0.44"/>
  <line x1="563.1" y1="476.2" x2="571.7" y2="454.1" stroke="#a29bfe" stroke-width="1.1" opacity="0.44"/>
  <line x1="508.0" y1="544.0" x2="558.8" y2="484.7" stroke="#a29bfe" stroke-width="1.7" opacity="0.68"/>
  <line x1="558.8" y1="484.7" x2="491.4" y2="555.1" stroke="#4ecdc4" stroke-width="1.4" opacity="0.56"/>
  <line x1="491.4" y1="555.1" x2="461.6" y2="569.1" stroke="#4ecdc4" stroke-width="1.1" opacity="0.44"/>
  <line x1="491.4" y1="555.1" x2="532.7" y2="521.6" stroke="#ff6b6b" stroke-width="1.1" opacity="0.44"/>
  <line x1="491.4" y1="555.1" x2="556.1" y2="489.6" stroke="#a29bfe" stroke-width="1.1" opacity="0.44"/>
  <line x1="558.8" y1="484.7" x2="520.6" y2="533.6" stroke="#ff6b6b" stroke-width="1.4" opacity="0.56"/>
  <line x1="520.6" y1="533.6" x2="474.7" y2="563.8" stroke="#4ecdc4" stroke-width="1.1" opacity="0.44"/>
  <line x1="520.6" y1="533.6" x2="528.4" y2="526.2" stroke="#ff6b6b" stroke-width="1.1" opacity="0.44"/>
  <line x1="520.6" y1="533.6" x2="561.1" y2="480.3" stroke="#a29bfe" stroke-width="1.1" opacity="0.44"/>
  <line x1="558.8" y1="484.7" x2="570.3" y2="458.4" stroke="#a29bfe" stroke-width="1.4" opacity="0.56"/>
  <line x1="570.3" y1="458.4" x2="497.5" y2="551.3" stroke="#4ecdc4" stroke-width="1.1" opacity="0.44"/>
  <line x1="570.3" y1="458.4" x2="516.8" y2="537.0" stroke="#ff6b6b" stroke-width="1.1" opacity="0.44"/>
  <line x1="570.3" y1="458.4" x2="574.5" y2="444.3" stroke="#a29bfe" stroke-width="1.1" opacity="0.44"/>
  <!-- Nodes -->
  <circle cx="508.0" cy="544.0" r="6.0" fill="#ffffff" opacity="1.00" filter="url(#glow)"/>
  <text x="517.0" y="548.0" fill="#ffffff" font-size="11" opacity="0.9">(3,4,5)</text>
  <circle cx="469.2" cy="566.2" r="5.2" fill="#4ecdc4" opacity="0.88" filter="url(#glow)"/>
  <text x="477.4" y="570.2" fill="#4ecdc4" font-size="9" opacity="0.9">(5,12,13)</text>
  <circle cx="450.4" cy="572.8" r="4.4" fill="#4ecdc4" opacity="0.76"/>
  <circle cx="439.5" cy="575.6" r="3.6" fill="#4ecdc4" opacity="0.64"/>
  <circle cx="538.0" cy="515.6" r="3.6" fill="#ff6b6b" opacity="0.64"/>
  <circle cx="550.3" cy="499.1" r="3.6" fill="#a29bfe" opacity="0.64"/>
  <circle cx="535.6" cy="518.4" r="4.4" fill="#ff6b6b" opacity="0.76"/>
  <circle cx="481.1" cy="560.7" r="3.6" fill="#4ecdc4" opacity="0.64"/>
  <circle cx="525.8" cy="528.8" r="3.6" fill="#ff6b6b" opacity="0.64"/>
  <circle cx="564.2" cy="473.8" r="3.6" fill="#a29bfe" opacity="0.64"/>
  <circle cx="552.8" cy="495.1" r="4.4" fill="#a29bfe" opacity="0.76"/>
  <circle cx="488.6" cy="556.7" r="3.6" fill="#4ecdc4" opacity="0.64"/>
  <circle cx="522.2" cy="532.2" r="3.6" fill="#ff6b6b" opacity="0.64"/>
  <circle cx="568.5" cy="463.4" r="3.6" fill="#a29bfe" opacity="0.64"/>
  <circle cx="530.3" cy="524.1" r="5.2" fill="#ff6b6b" opacity="0.88" filter="url(#glow)"/>
  <text x="538.5" y="528.1" fill="#ff6b6b" font-size="9" opacity="0.9">(21,20,29)</text>
  <circle cx="478.9" cy="561.8" r="4.4" fill="#4ecdc4" opacity="0.76"/>
  <circle cx="455.5" cy="571.2" r="3.6" fill="#4ecdc4" opacity="0.64"/>
  <circle cx="534.4" cy="519.8" r="3.6" fill="#ff6b6b" opacity="0.64"/>
  <circle cx="554.2" cy="492.8" r="3.6" fill="#a29bfe" opacity="0.64"/>
  <circle cx="526.7" cy="527.8" r="4.4" fill="#ff6b6b" opacity="0.76"/>
  <circle cx="477.3" cy="562.5" r="3.6" fill="#4ecdc4" opacity="0.64"/>
  <circle cx="527.4" cy="527.2" r="3.6" fill="#ff6b6b" opacity="0.64"/>
  <circle cx="562.3" cy="477.8" r="3.6" fill="#a29bfe" opacity="0.64"/>
  <circle cx="563.1" cy="476.2" r="4.4" fill="#a29bfe" opacity="0.76"/>
  <circle cx="493.5" cy="553.8" r="3.6" fill="#4ecdc4" opacity="0.64"/>
  <circle cx="519.4" cy="534.7" r="3.6" fill="#ff6b6b" opacity="0.64"/>
  <circle cx="571.7" cy="454.1" r="3.6" fill="#a29bfe" opacity="0.64"/>
  <circle cx="558.8" cy="484.7" r="5.2" fill="#a29bfe" opacity="0.88" filter="url(#glow)"/>
  <text x="567.0" y="488.7" fill="#a29bfe" font-size="9" opacity="0.9">(15,8,17)</text>
  <circle cx="491.4" cy="555.1" r="4.4" fill="#4ecdc4" opacity="0.76"/>
  <circle cx="461.6" cy="569.1" r="3.6" fill="#4ecdc4" opacity="0.64"/>
  <circle cx="532.7" cy="521.6" r="3.6" fill="#ff6b6b" opacity="0.64"/>
  <circle cx="556.1" cy="489.6" r="3.6" fill="#a29bfe" opacity="0.64"/>
  <circle cx="520.6" cy="533.6" r="4.4" fill="#ff6b6b" opacity="0.76"/>
  <circle cx="474.7" cy="563.8" r="3.6" fill="#4ecdc4" opacity="0.64"/>
  <circle cx="528.4" cy="526.2" r="3.6" fill="#ff6b6b" opacity="0.64"/>
  <circle cx="561.1" cy="480.3" r="3.6" fill="#a29bfe" opacity="0.64"/>
  <circle cx="570.3" cy="458.4" r="4.4" fill="#a29bfe" opacity="0.76"/>
  <circle cx="497.5" cy="551.3" r="3.6" fill="#4ecdc4" opacity="0.64"/>
  <circle cx="516.8" cy="537.0" r="3.6" fill="#ff6b6b" opacity="0.64"/>
  <circle cx="574.5" cy="444.3" r="3.6" fill="#a29bfe" opacity="0.64"/>

  <!-- Legend -->
  <rect x="10" y="710" width="200" height="80" rx="8" fill="#151540" stroke="#333" opacity="0.9"/>
  <rect x="25" y="725" width="10" height="10" rx="2" fill="#4ecdc4"/>
  <text x="42" y="734" fill="#4ecdc4" font-size="11">B₁ branch (det = +1)</text>
  <rect x="25" y="745" width="10" height="10" rx="2" fill="#ff6b6b"/>
  <text x="42" y="754" fill="#ff6b6b" font-size="11">B₂ branch (det = -1)</text>
  <rect x="25" y="765" width="10" height="10" rx="2" fill="#a29bfe"/>
  <text x="42" y="774" fill="#a29bfe" font-size="11">B₃ branch (det = +1)</text>
</svg>