<svg xmlns="http://www.w3.org/2000/svg" width="900" height="500">
<rect width="900" height="500" fill="#0a0a2e"/>
<text x="450" y="25" text-anchor="middle" fill="#00ccff" font-size="16" font-family="monospace">Experimental Bounds vs Lattice Predictions</text>
<rect x="120" y="85" width="660" height="30" fill="#111133" rx="3"/>
<rect x="546.4615384615386" y="88" width="233.53846153846143" height="24" fill="#ff220022" rx="2"/>
<rect x="120" y="88" width="426.46153846153857" height="24" fill="#00ff0008" rx="2"/>
<line x1="546.4615384615386" y1="85" x2="546.4615384615386" y2="115" stroke="#ff4444" stroke-width="2"/>
<text x="546.4615384615386" y="128" text-anchor="middle" fill="#ff6666" font-size="8" font-family="monospace">bound</text>
<circle cx="150.6538797657748" cy="100" r="6" fill="#00ff88"/>
<text x="110" y="104" text-anchor="end" fill="white" font-size="11" font-family="monospace">Michelson-Morley</text>
<text x="150.6538797657748" y="80" text-anchor="middle" fill="#00ff88" font-size="8" font-family="monospace">1e-57</text>
<rect x="120" y="185" width="660" height="30" fill="#111133" rx="3"/>
<rect x="728.5656765818578" y="188" width="51.434323418142185" height="24" fill="#ff220022" rx="2"/>
<rect x="120" y="188" width="608.5656765818578" height="24" fill="#00ff0008" rx="2"/>
<line x1="728.5656765818578" y1="185" x2="728.5656765818578" y2="215" stroke="#ff4444" stroke-width="2"/>
<text x="728.5656765818578" y="228" text-anchor="middle" fill="#ff6666" font-size="8" font-family="monospace">bound</text>
<circle cx="729.302474214796" cy="200" r="6" fill="#ff4444"/>
<text x="110" y="204" text-anchor="end" fill="white" font-size="11" font-family="monospace">Fermi-LAT (linear)</text>
<text x="729.302474214796" y="180" text-anchor="middle" fill="#ff4444" font-size="8" font-family="monospace">1e+00</text>
<rect x="120" y="285" width="660" height="30" fill="#111133" rx="3"/>
<rect x="728.5656765818578" y="288" width="51.434323418142185" height="24" fill="#ff220022" rx="2"/>
<rect x="120" y="288" width="608.5656765818578" height="24" fill="#00ff0008" rx="2"/>
<line x1="728.5656765818578" y1="285" x2="728.5656765818578" y2="315" stroke="#ff4444" stroke-width="2"/>
<text x="728.5656765818578" y="328" text-anchor="middle" fill="#ff6666" font-size="8" font-family="monospace">bound</text>
<circle cx="550.6455700561082" cy="300" r="6" fill="#00ff88"/>
<text x="110" y="304" text-anchor="end" fill="white" font-size="11" font-family="monospace">Fermi-LAT (quad.)</text>
<text x="550.6455700561082" y="280" text-anchor="middle" fill="#00ff88" font-size="8" font-family="monospace">3e-18</text>
<rect x="120" y="385" width="660" height="30" fill="#111133" rx="3"/>
<rect x="455.07692307692304" y="388" width="324.92307692307696" height="24" fill="#ff220022" rx="2"/>
<rect x="120" y="388" width="335.07692307692304" height="24" fill="#00ff0008" rx="2"/>
<line x1="455.07692307692304" y1="385" x2="455.07692307692304" y2="415" stroke="#ff4444" stroke-width="2"/>
<text x="455.07692307692304" y="428" text-anchor="middle" fill="#ff6666" font-size="8" font-family="monospace">bound</text>
<circle cx="327.3098860076755" cy="400" r="6" fill="#00ff88"/>
<text x="110" y="404" text-anchor="end" fill="white" font-size="11" font-family="monospace">Hughes-Drever</text>
<text x="327.3098860076755" y="380" text-anchor="middle" fill="#00ff88" font-size="8" font-family="monospace">3e-40</text>
<line x1="120" y1="460" x2="780" y2="460" stroke="#666" stroke-width="1"/>
<line x1="120.0" y1="455" x2="120.0" y2="465" stroke="#666" stroke-width="1"/>
<text x="120.0" y="478" text-anchor="middle" fill="#888" font-size="9" font-family="monospace">10^-60</text>
<line x1="221.53846153846155" y1="455" x2="221.53846153846155" y2="465" stroke="#666" stroke-width="1"/>
<text x="221.53846153846155" y="478" text-anchor="middle" fill="#888" font-size="9" font-family="monospace">10^-50</text>
<line x1="323.0769230769231" y1="455" x2="323.0769230769231" y2="465" stroke="#666" stroke-width="1"/>
<text x="323.0769230769231" y="478" text-anchor="middle" fill="#888" font-size="9" font-family="monospace">10^-40</text>
<line x1="424.61538461538464" y1="455" x2="424.61538461538464" y2="465" stroke="#666" stroke-width="1"/>
<text x="424.61538461538464" y="478" text-anchor="middle" fill="#888" font-size="9" font-family="monospace">10^-30</text>
<line x1="526.1538461538462" y1="455" x2="526.1538461538462" y2="465" stroke="#666" stroke-width="1"/>
<text x="526.1538461538462" y="478" text-anchor="middle" fill="#888" font-size="9" font-family="monospace">10^-20</text>
<line x1="627.6923076923077" y1="455" x2="627.6923076923077" y2="465" stroke="#666" stroke-width="1"/>
<text x="627.6923076923077" y="478" text-anchor="middle" fill="#888" font-size="9" font-family="monospace">10^-10</text>
<line x1="729.2307692307693" y1="455" x2="729.2307692307693" y2="465" stroke="#666" stroke-width="1"/>
<text x="729.2307692307693" y="478" text-anchor="middle" fill="#888" font-size="9" font-family="monospace">10^0</text>
<text x="450" y="495" text-anchor="middle" fill="#888" font-size="10" font-family="monospace">← more suppressed | magnitude | less suppressed →</text>
<circle cx="700" cy="50" r="5" fill="#00ff88"/>
<text x="710" y="54" fill="#00ff88" font-size="10" font-family="monospace">Lattice prediction</text>
<line x1="695" y1="70" x2="705" y2="70" stroke="#ff4444" stroke-width="2"/>
<text x="710" y="74" fill="#ff4444" font-size="10" font-family="monospace">Experimental bound</text>
</svg>